<svg xmlns="http://www.w3.org/2000/svg" viewBox="0 0 245 98"><g fill="#fff"><path d="M72.5 23.1L64.2 37h-3.5l-.5 1h3.3C57.5 48 51 56 51 61.2c0 3.8 3.8 6.2 7.1 6.2 2.3 0 8.2.2 15.5-8.5h-4.4c0 2-4.3 7.5-10.5 7.5-1.9 0-3.5-.8-3.5-3 0-4 5.5-10.7 14-25.5H80l.5-1H69.9l8.4-13.8zM243 11l-3-3-4 3 2-4-4-3h5l1-4 1 4h4l-3 3 1 4zm-16 0l-3-3-3 3 1-4-4-3h5l1-4 1 4h5l-4 3 1 4zm-15 0l-4-3-3 3 1-4-3-3h4l1-4 1 4h5l-4 3 2 4zm-16 0l-4-3-3 3 1-4-3-3h4l1-4 2 4h4l-4 3 2 4z"/><path d="M16.7 68.3c-6.3 0-11.8-4.9-11.8-9.7H0c0 8.2 11.9 11 16.8 11 14.7 0 31.7-9.4 31.7-33.2 0-18.2 7.6-34 22-31.9C74 5 76 8 76 11.5c0 4-4 7.2-4 7.2h6.4S81 15.5 81 12c0-5.7-5-9.5-10.7-9.5C56.5 2.5 42 15.8 42 36.6c0 14.5-8.2 31.6-25.3 31.6m148.7-27.9c0 5.9-10.7 10.3-15.5 11.2 2.2-5 9-13.6 13.4-13.6a2 2 0 0 1 2.1 2.4m7 13c-1.8 3.1-3 5.8-3 8a5.9 5.9 0 0 0 6.2 6c4.1 0 8.7-3.1 13-7.5 0 0 0-.7.2-1-4.4 4.2-9 7-12.7 7-1.8 0-2.4-.2-2.4-2.3 0-4.1 5.6-10.9 14.2-25.6h10.6l.5-1h-10.5L197 23h-5.8l-8.7 14h-4.4l-.5 1h4.3c-2.2 3.7-4.7 7.3-6.7 10.4-6.8 9.5-17.7 17.4-24 17.4-3 0-3.9-2.8-3.9-5.4a18.8 18.8 0 0 1 2-8c7.2-1.6 19.8-6.7 19.8-12 0-2.3-1.6-3.5-4.3-3.5-9.5 0-23.3 13.6-23.3 23.4 0 4.5 3.5 7 8 7 7.6 0 16.5-6.8 22.6-14"/><path d="M217.2 54.3c-6.4 6.7-14 11.6-19 11.6-3 0-3.8-2.8-3.8-5.5a18.8 18.8 0 0 1 2-8c7.1-1.6 19.7-6.7 19.7-12 0-2.2-1.6-3.5-4.2-3.5-9.6 0-23.4 13.6-23.4 23.5 0 4.5 3.6 7 8.1 7 6.1 0 13-4.5 18.6-9.9l2-3.2m-4.9-14c0 5.9-10.7 10.4-15.5 11.2 2.2-5 9-13.5 13.4-13.5a2.1 2.1 0 0 1 2.1 2.3"/><path d="M227.1 38l-17.8 29.4h6.3a44.2 44.2 0 0 1 6.4-11.3 89 89 0 0 1 15.6-14.8l.2.1a5.9 5.9 0 0 0-1 3.2c0 3.9 2.3 6.2 5.8 6.2a6.4 6.4 0 0 0 2.8-.5 4.5 4.5 0 0 1-2 .2c-1.8 0-3.3-2.2-3.3-4.8 0-3.3 2-5.8 3.8-7.7h-5l-.6 1.3A88.4 88.4 0 0 0 222.9 54l-.1-.2L233 38h-6zM151 23.3c0 2.8 6 5.7 10.7 5.7A14.3 14.3 0 0 0 176 14.7c0-8-6-13.5-20.4-14.5h-.6c-25.3 0-38 13.7-41 23-.3.7 0 1.1.6.2C120 12 132 4.8 151.6 4.8c-2.7 5-11.4 22.3-12.2 23.8-10.3 19-19.5 39.7-35.2 39.7-5.8 0-11-3.3-11-9.7h-4.6c0 7.4 9.7 11 15.8 11 18.5 0 28-17.3 32.8-26.3 4-7.5 18.7-32.6 21.8-38 6.4 0 14.7 4.4 14.7 10.6a11.3 11.3 0 0 1-11.5 11c-3.4 0-5.5-1.4-5.5-3.6H151zM0 90h41.5v1.3H0zm204 0h41.5v1.3H204zM55.1 97.3v-6h-5v6h-1.3V84.4h1.3v5.7h5v-5.7h1.4v13z"/><path d="M56.5 97.3H55v-6h-5v6h-1.3v-13h1.4v5.8h5v-5.7h1.3zm-1.3 0h1.2V84.4h-1.2v5.8h-5v-5.8h-1.4v13h1.3v-6h5zm10 .2c-2.9 0-4.6-3.1-4.6-6.6s1.8-6.7 4.7-6.7 4.7 3 4.7 6.6-1.9 6.7-4.8 6.7zm0-12.1c-2 0-3.3 2.3-3.3 5.5s1.3 5.5 3.3 5.5 3.3-2.4 3.3-5.5-1.3-5.5-3.2-5.5z"/><path d="M65.2 97.5a4 4 0 0 1-3.4-2 8.6 8.6 0 0 1-1.3-4.6 8.4 8.4 0 0 1 1.3-4.7 4.2 4.2 0 0 1 3.5-2 4 4 0 0 1 3.5 2 9.2 9.2 0 0 1 0 9.4 4.2 4.2 0 0 1-3.6 2zm.1-13.3a4.2 4.2 0 0 0-3.4 2 8.4 8.4 0 0 0-1.3 4.7 8.5 8.5 0 0 0 1.2 4.6 4 4 0 0 0 3.4 2 4.2 4.2 0 0 0 3.5-2 9.1 9.1 0 0 0 0-9.3 4 4 0 0 0-3.4-2zm0 12.2a2.9 2.9 0 0 1-2.5-1.6 7.8 7.8 0 0 1-.9-4c0-3.2 1.4-5.5 3.4-5.5s3.3 2.3 3.3 5.5a8 8 0 0 1-1 4 2.8 2.8 0 0 1-2.4 1.6zm0-11c-2 0-3.4 2.3-3.4 5.5a7.8 7.8 0 0 0 1 4 2.6 2.6 0 0 0 4.7 0 8 8 0 0 0 1-4c0-3.2-1.4-5.5-3.4-5.5zm11.8.2v11.7h-1.3V85.6h-3v-1.2h7.4v1.2z"/><path d="M77.1 97.3h-1.3V85.6h-3.1v-1.2h7.5v1.2h-3zm-1.3 0h1.3V85.6h3v-1.2h-7.4v1.2h3.1zm8 0V84.4h6v1.2h-4.6v4.5h4.3v1.2h-4.3v4.8h4.6v1.2z"/><path d="M89.9 97.3h-6v-13h6v1.3h-4.7v4.5h4.3v1.2h-4.3v4.8H90zm-6 0h6v-1.2h-4.7v-4.8h4.2V90h-4.2v-4.5h4.6v-1.2h-6zm10.1 0V84.4h1.4v11.7h4.4v1.2z"/><path d="M99.8 97.3H94v-13h1.4V96h4.4zm-5.7 0h5.7v-1.2h-4.4V84.4H94zm21.9-3.5l1.3-3 1 .4a25.1 25.1 0 0 1-1.4 3.4l2 1.6-.8 1-1.8-1.5a4 4 0 0 1-2.8 1.9 3.2 3.2 0 0 1-3.7-3 4.3 4.3 0 0 1 1.8-4 6.3 6.3 0 0 1-1.1-2.7c-.2-1.7.6-3.4 2.2-3.6a2.6 2.6 0 0 1 2.8 2.4c.2 1.7-.6 3-2.2 4.2a20.2 20.2 0 0 0 2.7 2.9zm-3.7-2.2a3.3 3.3 0 0 0-1.2 2.9 2.1 2.1 0 0 0 2.3 2 3 3 0 0 0 2-1.6 30 30 0 0 1-3.1-3.3zm2-4.7c-.1-1-.7-1.5-1.5-1.4s-1.3 1.2-1.2 2.2a5 5 0 0 0 1 2.4c1.1-1 1.9-1.9 1.7-3.2z"/><path d="M113 97.7a3.3 3.3 0 0 1-2.2-.8 3.4 3.4 0 0 1-1-2.3 4.4 4.4 0 0 1 1.8-3.9 6.3 6.3 0 0 1-1.2-2.8 3.8 3.8 0 0 1 .5-2.3 2.5 2.5 0 0 1 1.8-1.3h.3a2.6 2.6 0 0 1 2.5 2.5c.2 1.5-.5 2.9-2.2 4.2a20.3 20.3 0 0 0 2.7 2.8l1.3-3 1 .5a25 25 0 0 1-1.4 3.3l1.4 1.2.5.4-.8 1-.5-.5a24.7 24.7 0 0 0-1.3-1 4 4 0 0 1-2.8 2zm0-13.4h-.3a2.4 2.4 0 0 0-1.8 1.3 3.8 3.8 0 0 0-.5 2.3 6.3 6.3 0 0 0 1.2 2.8 4.3 4.3 0 0 0-1.9 4 3.4 3.4 0 0 0 1.2 2.1 3.3 3.3 0 0 0 2 .8h.5a4 4 0 0 0 2.8-2l1.3 1 .5.4.8-.8-.5-.4-1.5-1.2a24.8 24.8 0 0 0 1.5-3.4l-1-.5-1.3 3a20.3 20.3 0 0 1-2.7-2.7c1.7-1.3 2.4-2.6 2.2-4.2a2.6 2.6 0 0 0-2.5-2.5zm.1 12.2a2.2 2.2 0 0 1-2.1-2 3.4 3.4 0 0 1 1.2-2.9 30 30 0 0 0 3.1 3.3 3 3 0 0 1-2 1.6zm-.9-4.8a3.3 3.3 0 0 0-1.2 2.8 2.1 2.1 0 0 0 2.1 2h.3a3 3 0 0 0 2-1.6 30 30 0 0 1-3.1-3.3zm.4-1.6a5 5 0 0 1-1-2.4 2.5 2.5 0 0 1 .4-1.8 1.1 1.1 0 0 1 .8-.4h.2c.7 0 1.2.6 1.4 1.5.1 1.3-.7 2.2-1.7 3.1zm.3-4.6h-.1a1 1 0 0 0-.8.4 2.5 2.5 0 0 0-.4 1.8 4.9 4.9 0 0 0 1 2.3c1.2-1 1.8-1.9 1.7-3-.1-1-.6-1.5-1.3-1.5zm19.7 12c-2.8 0-5-2.4-5-6.6 0-4 2-6.7 5-6.7a5.3 5.3 0 0 1 3 .9l-.6 1a4.7 4.7 0 0 0-2.5-.7c-2.1 0-3.6 2.1-3.6 5.4 0 3.5 1.6 5.5 3.7 5.5a5 5 0 0 0 2.5-.8l.5 1a5.2 5.2 0 0 1-3 1z"/><path d="M132.6 97.5a4.5 4.5 0 0 1-3.6-1.7 7.7 7.7 0 0 1-1.5-4.9A8 8 0 0 1 129 86a4.5 4.5 0 0 1 3.6-1.9 5.3 5.3 0 0 1 3 1l-.6 1.1a4.7 4.7 0 0 0-2.5-.8A3 3 0 0 0 130 87a7.1 7.1 0 0 0-1 4c0 3.2 1.5 5.3 3.7 5.3a5 5 0 0 0 2.5-.7l.4 1a5.2 5.2 0 0 1-3 1zm0-13.3a4.5 4.5 0 0 0-3.6 1.9 8 8 0 0 0-1.4 4.8 7.7 7.7 0 0 0 1.4 4.9 4.5 4.5 0 0 0 3.6 1.7 5.1 5.1 0 0 0 3-1l-.5-1a5 5 0 0 1-2.5.8c-2.2 0-3.7-2.2-3.7-5.5a7.2 7.2 0 0 1 1-4 3 3 0 0 1 2.6-1.4 4.7 4.7 0 0 1 2.5.7l.5-1a5.3 5.3 0 0 0-3-.9zm12.9 13.1v-6h-5v6H139V84.4h1.3v5.7h5v-5.7h1.4v13z"/><path d="M146.8 97.3h-1.4v-6h-5v6h-1.3v-13h1.3v5.8h5v-5.7h1.4zm-1.3 0h1.2V84.4h-1.2v5.8h-5v-5.8h-1.3v13h1.3v-6h5zm12.4 0l-1.1-3.4h-4.1l-1.1 3.4h-1.4l4.4-13h.4l4.3 13zm-3.2-10l-1.7 5.5h3.4z"/><path d="M159.4 97.3h-1.5l-1.1-3.4h-4.1l-1.1 3.5h-1.4l4.3-13.2h.5zm-1.5 0h1.4l-4.3-13h-.4l-4.3 13h1.3l1-3.4h4.2zm-1.5-4.5H153l1.7-5.5zm-3.4 0h3.3l-1.6-5.4zm9.6 4.5V84.4h1.4v11.7h4.5v1.2z"/><path d="M168.4 97.3h-5.8v-13h1.4V96h4.5zm-5.7 0h5.7v-1.2h-4.5V84.4h-1.2zm9.3 0V84.4h6v1.2h-4.7v4.5h4.3v1.2h-4.2v4.8h4.6v1.2z"/><path d="M178 97.3h-6v-13h6v1.3h-4.7v4.5h4.3v1.2h-4.2v4.8h4.6zm-6 0h6v-1.2h-4.7v-4.8h4.3V90h-4.2v-4.5h4.6v-1.2h-6zm13.8-11.7v11.7h-1.3V85.6h-3.1v-1.2h7.5v1.2z"/><path d="M185.8 97.3h-1.3V85.6h-3.1v-1.2h7.5v1.2h-3zm-1.3 0h1.3V85.6h3v-1.2h-7.4v1.2h3.1zm10.2.2a5.7 5.7 0 0 1-3.2-1l.6-1.2a4.7 4.7 0 0 0 2.6 1 1.9 1.9 0 0 0 2-2.1c0-1.2-.7-2-2.2-3.1s-2.5-2.2-2.5-3.7a3.2 3.2 0 0 1 3.3-3.2 4 4 0 0 1 2.6.9l-.6 1.1a3.4 3.4 0 0 0-2.1-.8 1.8 1.8 0 0 0-1.9 2c0 1 .8 1.8 2 2.7 1.8 1.2 2.7 2.3 2.7 4a3.2 3.2 0 0 1-3.3 3.4z"/><path d="M194.7 97.5a5.7 5.7 0 0 1-3.2-1l.6-1.3a4.6 4.6 0 0 0 2.6 1 1.9 1.9 0 0 0 2-2c0-1.2-.6-2-2.2-3.1-1.8-1.2-2.6-2.3-2.6-3.7a3.2 3.2 0 0 1 3.3-3.3 4.1 4.1 0 0 1 2.6 1l-.6 1.1a3.3 3.3 0 0 0-2-.8 1.8 1.8 0 0 0-2 2c0 .8.7 1.7 2 2.7a7.8 7.8 0 0 1 2 1.8 3.6 3.6 0 0 1 .8 2.2 3.3 3.3 0 0 1-1 2.4 3.3 3.3 0 0 1-2.3 1zm-3.2-1a5.6 5.6 0 0 0 3.2 1A3.2 3.2 0 0 0 198 94a3.6 3.6 0 0 0-.7-2.2 7.7 7.7 0 0 0-2-1.8c-1.4-1-2-1.8-2-2.7a1.9 1.9 0 0 1 2-2 3.3 3.3 0 0 1 2 .8l.6-1.1a4.1 4.1 0 0 0-2.6-.9 3.2 3.2 0 0 0-3.3 3.2c0 1.4.8 2.5 2.5 3.7s2.2 2 2.2 3.1a1.9 1.9 0 0 1-2 2.1 4.7 4.7 0 0 1-2.5-1z"/></g></svg>