<svg xmlns="http://www.w3.org/2000/svg" viewBox="0 0 787 327"><path d="M779.7 34.2l-11.1-8.1-11.1 8.1 4.2-13.1-11.1-8 13.7-.1 4.3-13 4.2 13 13.7.1-11 8zm-50.8 0l-11.2-8.1-11.1 8.1 4.3-13.1-11.1-8 13.7-.1 4.2-13 4.3 13 13.7.1-11.1 8zm-50.8 0l-11.2-8.1-11.1 8.1 4.3-13.1-11.1-8 13.7-.1 4.2-13 4.3 13 13.7.1-11.1 8zm-50.9 0l-11.1-8.1-11.1 8.1 4.2-13.1-11.1-8 13.8-.1 4.2-13 4.3 13 13.7.1-11.1 8zM233.9 198.1c-3.7 0-6.9 3.4-6.9 7.3 0 4 3.2 7.3 6.9 7.3 3.8 0 7-3.4 7-7.3-.1-4-3.3-7.3-7-7.3m-9.2-124l-26.6 44.3h-11.2l-1.5 3.2H196c-19 32-40.1 57.8-40.1 74.6 0 12.2 12.3 19.7 22.8 19.7 7.2 0 26.3.9 49.5-27h-13.9c0 6.1-13.7 23.8-33.7 23.8-5.9 0-11.1-2.6-11.1-9.4 0-13 17.5-34.5 45-81.7H249l1.6-3.2h-34l26.9-44.3h-18.8z" fill="#3d7378"/><path d="M53.4 218.7c-20.2 0-37.6-15.4-37.6-30.8H.1c0 26.2 38 34.9 53.7 34.9 47.1 0 101.8-30 101.8-106.3 0-58.1 24.2-108.6 70.2-102.1C237.4 16 244 25.5 244 37.1c0 12.3-12.9 22.9-12.9 22.9h20.3c-.1-.1 8.2-10.2 8.2-21.4 0-18.1-16.3-30.3-34.2-30.3-44.2 0-91 42.6-91 109.2 0 46.5-26.4 101.2-81 101.2m476.4-89.5c0 18.7-34.5 33.1-49.7 35.8 6.9-16 28.8-43.4 43-43.4 3.9 0 6.7 2.7 6.7 7.6M552 171a57.1 57.1 0 0 0-9.3 25.4c0 12.2 9 19.5 19.6 19.5 13.3 0 27.8-10.1 41.9-24.1 0 0 .1-2.4.3-3.5-13.9 13.8-28.4 22.8-40.4 22.8-5.9 0-7.8-.8-7.8-7.6 0-13 17.9-34.7 45.4-81.9h34.2l1.5-3.2h-33.7l28.1-44.6h-18.7l-27.8 44.6h-14.4l-1.5 3.2h13.9c-7.1 12-15 23.6-21.5 33.6-21.9 30.5-56.7 55.8-76.9 55.8-9.5 0-12.4-9-12.4-17.4 0-9 2.8-18.7 6.4-25.8 22.9-5.1 63.3-21.4 63.3-38.5 0-7.1-5.1-11.1-13.6-11.1-30.6 0-74.9 43.6-74.9 75.1 0 14.4 11.5 22.5 25.9 22.5 24.4.1 52.7-22 72.4-44.8" fill="#3d7378"/><path d="M695.9 174.1c-20.3 21.5-44.8 37-60.5 37-9.5 0-12.5-9-12.5-17.4 0-9 2.8-18.7 6.4-25.8 22.9-5.1 63.3-21.4 63.3-38.5 0-7.1-5.2-11.1-13.6-11.1-30.6 0-74.9 43.6-74.9 75.1 0 14.4 11.5 22.5 25.9 22.5 19.6 0 41.5-14.2 59.6-31.5l6.3-10.3m-15.6-44.9c0 18.7-34.5 33.1-49.7 35.8 7-16 28.8-43.4 43-43.4 3.8 0 6.7 2.7 6.7 7.6" fill="#3d7378"/><path d="M727.9 121.7a4739.5 4739.5 0 0 0-57 94.3h20a141.7 141.7 0 0 1 20.6-36.3c18.8-22.2 36-37.4 49.9-47.4l.5.5c-1.8 3.2-2.8 6-2.8 10 0 12.5 7.2 20.1 18.3 20.1 3 0 5.8-.3 9.1-1.8v-.2c-2.4 1.1-4.4 1-6.7 1-5.7 0-10.3-7.1-10.3-15.5 0-10.6 6.2-18.4 12.1-24.6h-15.8l-2.2 4.3a283.4 283.4 0 0 0-49.2 46.9l-.5-.5 33-50.6h-19v-.2zM484 74.7c0 9 19 18.3 34.1 18.3A45.9 45.9 0 0 0 564 47.1c0-25.4-19.1-43.4-65.5-46.5h-1.9c-81.2 0-121.7 43.9-131.5 73.7-.8 2.2.2 3.7 1.8.7 17.3-36.8 56.3-59.7 119-59.7-8.9 16.3-36.7 71.5-39.5 76.4-32.8 60.9-62.3 127.2-112.6 127.2-18.5 0-35.5-10.5-35.5-31h-14.2c0 23.5 30.8 34.9 50.5 34.9 59.3 0 89.4-55.2 105.1-84.1 13-23.9 59.9-104.5 69.8-121.5v-.1c20.4 0 47 13.9 47 33.6S540 86.3 519.7 86.3c-10.8 0-17.5-4.7-17.5-11.7H484v.1z" fill="#3d7378"/><path d="M0 291.2h133m520.6 0h132.9" fill="none" stroke="#3d7378" stroke-width="3" stroke-miterlimit="3.864"/><path d="M176.7 311.9v-19.1h-16v19.1h-4.2v-41.4h4.2v18.4h16v-18.4h4.2v41.4h-4.2zm32.3.6c-9.2 0-14.9-10.1-14.9-21.3s5.9-21.4 15.3-21.4c9.2 0 14.9 9.9 14.9 21.2 0 11.4-6 21.5-15.3 21.5zm.1-38.9c-6.3 0-10.7 7.3-10.7 17.6 0 10.2 4.4 17.7 10.7 17.7s10.6-7.5 10.6-17.7-4.3-17.6-10.6-17.6zm38 .8v37.5h-4.2v-37.5H233v-3.9h24v3.9h-9.9zm21.6 37.5v-41.4h19.2v3.9H273v14.4h13.7v3.8H273V308h14.9v3.9h-19.2zm32.7 0v-41.4h4.2V308h14.3v3.9h-18.5zm70.3-11.3c1.4-2.7 2.8-6 4.3-9.8l3.3 1.5a81 81 0 0 1-4.7 10.9c2.3 2 4.3 3.5 6.3 5.1l-2.5 2.9-5.8-4.6c-2.4 3.5-5.3 5.7-9 6.2-5.7.7-11.1-2.7-11.9-9.5-.6-4.7 1.8-9.6 5.9-12.6a20.3 20.3 0 0 1-3.7-9c-.6-5.3 2.1-10.7 7.2-11.4 5.4-.7 8.6 3.7 9.1 7.8.6 5.2-2 9.4-7.1 13.4a65 65 0 0 0 8.6 9.1zm-11.9-7c-2.5 2.2-4.4 5.7-3.9 9.1.5 4 3.5 7 7.6 6.5 2.3-.3 4.6-2.2 6.3-5a96.1 96.1 0 0 1-10-10.6zm6.5-15c-.4-3.1-2.3-5-4.8-4.7-2.8.3-4.1 3.8-3.7 7.1a16 16 0 0 0 3.2 7.6c3.5-3.2 5.8-5.9 5.3-10zm58.6 33.9c-9.1 0-16.2-7.8-16.2-21.2 0-12.7 6.9-21.5 16.2-21.5a17 17 0 0 1 9.5 2.9l-1.8 3.5a15.1 15.1 0 0 0-8-2.5c-6.8 0-11.4 6.8-11.4 17.3 0 11.1 5 17.5 11.9 17.5a16 16 0 0 0 7.8-2.5l1.5 3.4c-2.7 1.9-6 3.1-9.5 3.1zm41.2-.6v-19.1h-16v19.1h-4.2v-41.4h4.2v18.4h16v-18.4h4.2v41.4h-4.2zm39.8 0l-3.5-11h-13.2l-3.5 11h-4.3l13.9-42h1.4l13.9 42h-4.7zm-10.2-32.3l-5.4 17.7h10.8l-5.4-17.7zm25.5 32.3v-41.4h4.2V308h14.3v3.9h-18.5zm30 0v-41.4h19.2v3.9h-14.9v14.4h13.7v3.8h-13.7V308h14.9v3.9h-19.2zm44.2-37.5v37.5h-4.2v-37.5h-9.9v-3.9h24v3.9h-9.9zm28.5 38.1c-3.8 0-7.2-1.4-10.3-3.5l2-3.7a15 15 0 0 0 8.3 3.3c4.3 0 6.3-2.9 6.3-6.7 0-3.9-2.1-6.4-7-9.9-5-3.4-8.1-6.9-8.1-11.9 0-5.8 4.4-10.3 10.5-10.3a13 13 0 0 1 8.4 2.9l-1.9 3.6c-2-1.6-4.2-2.7-6.7-2.7-3.9 0-6.1 2.8-6.1 6.3 0 3.2 2.5 6 6.4 8.8 5.7 3.8 8.8 7.3 8.8 12.9.2 6.4-4.5 10.9-10.6 10.9z" fill="#3d7378" stroke-width=".25" stroke="#3d7378" stroke-miterlimit="3.864"/></svg>