<svg xmlns="http://www.w3.org/2000/svg" viewBox="0 0 787 327"><path d="M780 34l-11-8-11 8 4-13-11-8h13l5-13 4 13h14l-11 8zm-51 0l-11-8-11 8 4-13-11-8h13l5-13 4 13h14l-11 8zm-51 0l-11-8-11 8 4-13-11-8h14l4-13 4 13h14l-11 8zm-51 0l-11-8-11 8 4-13-11-8h14l4-13 4 13h14l-11 8zM234 198c-4 0-7 3-7 7s3 8 7 8 7-4 7-8-3-7-7-7m-9-124l-27 44h-11l-2 4h11c-19 32-40 57-40 74 0 12 12 20 23 20 7 0 26 1 49-27h-14c0 6-13 24-33 24-6 0-11-3-11-10 0-13 17-34 45-81h34l2-4h-34l26-44h-18z" fill="#3d7378"/><path d="M53 219c-20 0-37-16-37-31H0c0 26 38 35 54 35 47 0 102-30 102-107 0-58 24-108 70-102 11 2 18 12 18 23 0 12-13 23-13 23h20s9-10 9-21c0-18-17-31-35-31-44 0-91 43-91 110 0 46-26 101-81 101m477-90c0 19-35 33-50 36 7-16 29-43 43-43 4 0 7 2 7 7m22 42a57 57 0 0 0-9 25c0 13 9 20 19 20 14 0 28-10 42-24l1-4c-14 14-29 23-41 23-6 0-8-1-8-7 0-13 18-35 46-82h34l1-4h-33l28-44h-19l-28 44h-14l-2 4h14l-21 33c-22 31-57 56-77 56-10 0-12-9-12-17 0-9 2-19 6-26 23-5 63-22 63-39 0-7-5-11-13-11-31 0-75 44-75 75 0 15 11 23 26 23 24 0 52-22 72-45" fill="#3d7378"/><path d="M696 174c-20 22-45 37-61 37-9 0-12-9-12-17 0-9 3-19 6-26 23-5 64-22 64-39 0-7-6-11-14-11-31 0-75 44-75 75 0 15 12 23 26 23 20 0 41-14 60-32l6-10m-16-45c0 19-34 33-49 36 7-16 28-43 43-43 3 0 6 2 6 7m48-7a4740 4740 0 0 0-57 94h20a142 142 0 0 1 20-36c19-23 37-38 50-48l1 1c-2 3-3 6-3 10 0 12 7 20 18 20 3 0 6 0 9-2l-6 1c-6 0-11-7-11-16 1-10 7-18 13-24h-16l-2 4a283 283 0 0 0-50 47v-1l33-50h-19zM484 75c0 9 19 18 34 18a46 46 0 0 0 46-46c0-25-19-43-65-46h-2c-82 0-122 44-132 73-1 3 0 4 2 1 17-37 56-60 119-60l-40 77c-32 61-62 127-112 127-19 0-36-11-36-31h-14c0 23 31 35 51 35 59 0 89-55 105-84l70-122c20 0 47 14 47 34s-17 35-37 35c-11 0-18-4-18-11h-18z" fill="#3d7378"/><path d="M0 291h133m521 0h133" fill="none" stroke="#3d7378" stroke-width="3"/><path d="M177 312v-19h-16v19h-5v-42h5v19h16v-19h4v42h-4zm32 0c-9 1-15-10-15-21s6-21 15-21c10 0 15 10 15 21s-6 22-15 22zm0-38c-6 0-11 7-11 17s5 18 11 18 11-8 11-18-5-17-11-17zm38 0v38h-4v-38h-10v-3h24v3h-10zm22 38v-41h19v3h-15v15h14v4h-14v15h15v4h-19zm32 0v-41h5v37h14v4h-19zm71-11l4-10 3 1a81 81 0 0 1-4 11l6 5-3 3-5-4-9 6c-6 0-11-3-12-10-1-4 2-9 6-12a20 20 0 0 1-4-9c-1-6 2-11 7-12 6 0 9 4 9 8 1 5-2 9-7 13a65 65 0 0 0 9 10zm-12-7c-3 2-5 5-4 9 0 4 3 7 8 6 2 0 4-2 6-5a96 96 0 0 1-10-10zm6-15c0-3-2-5-4-5-3 0-5 4-4 7a16 16 0 0 0 3 8c4-4 6-6 5-10zm59 34c-9 0-16-8-16-22 0-12 7-21 16-21a17 17 0 0 1 9 3l-1 3a15 15 0 0 0-8-2c-7 0-12 6-12 17s5 18 12 18a16 16 0 0 0 8-3l1 3c-2 2-6 3-9 3zm41-1v-19h-16v19h-4v-42h4v19h16v-19h4v42h-4zm40 0l-4-11h-13l-3 11h-5l14-42h2l14 42h-5zm-10-32l-6 17h11l-5-17zm25 32v-42h4v38h15v4h-19zm30 0v-42h19v4h-14v15h13v4h-13v15h14v4h-19zm44-38v38h-4v-38h-10v-4h24v4h-10zm29 38c-4 1-7-1-10-3l2-4a15 15 0 0 0 8 4c4 0 6-3 6-7s-2-6-7-10c-5-3-8-7-8-12 0-6 5-10 11-10a13 13 0 0 1 8 3l-2 3-7-2c-4 0-6 2-6 6 0 3 3 6 7 9 5 4 8 7 8 13 1 6-4 11-10 11z" fill="#3d7378"/></svg>