<svg xmlns="http://www.w3.org/2000/svg" viewBox="0 0 350 175"><path d="M100.4 90.8c0 .1 0 0 0 0m229-77.1c-.4 0-.7 0-1-.2-.2-.1-.1-.5-.4-.6-.3-.2-.7 0-1-.3-.4-.3-.4-.6-.7-1-.3.2-.3.6-.6.8l-.5-.2-.7.1a3 3 0 0 1-1.3-.5c-.3.5-.7.9-.9 1.4-.5 1.2-1.5 3.1-3 3.1-.6 0-1.1-.4-1.6-.7l-1.3.1c-.3 0-.4.3-.6.3-1 0-1.5-.2-2.5-.5l-1-.2c-.3 0-.4.4-.7.4l-.8-.2h-.3c-.7 0-1-.4-1.6-.7l-1.3-.5c-.9-.4-1.5-.7-2.3-1.4-.2-.2-.7-.2-.7-.6 0-.4.1-.6.3-1-.3-.1-.4-.3-.7-.3-.1 0-.1.2-.3.2-.2 0-.1-.3-.3-.5-.6.2-.1-.4-.6-.6-1-.4-2.5-.8-2.9-1.9H299l-.7-.1c-.3 0-.3.4-.5.6-.3.4-.6.6-1 .6h-.5c-.4 0-.6-.4-1-.4-.2 0-.3.3-.5.3s-.2-.3-.3-.4l-.6-.6c-.4-.5-.8-.4-1.3-.7-.4-.2-.4-.8-.9-.8h-.5l-.7.1c-.4 0-.6-.3-1-.5-.6-.2-1.2-.3-1.5-.8-.2-.4-.2-.7-.5-1l-.8-.4c-.2-.1-.2-.3-.4-.3s-.2.3-.3.3h-.1l-1.1-.3c-.3-.2-.3-.5-.6-.6a12 12 0 0 1-1.5-.9c-.4-.3-.7-.6-1.2-.6l-.9.2c-.5 0-.6-.5-1-.8l-.1.2V2c0 .4-.2.6-.4.9-.1.2-.1.5-.3.5l-.7-.1c-.5 0-.9-.1-1.4.2-.3.1-.3.5-.6.6h-.5l-.4.2a.2.2 0 0 1-.2-.2c0-.4.3-.5.3-.9 0-.5-.3-.7-.5-1.1-.2-.3 0-.6-.3-.8-.4-.2-.7-.2-1.2-.2l-.6.2-.6-.2c-.3 0-.5 0-.6-.2l-.1-.7h-.5c-.4 0-.6-.4-1.1-.4l-.3.2-.5-.1h-.1v.3l.1.7c0 .4-.5.5-.7.9l-.1.8.1 1.3c0 .2.3.2.3.4s-.3.3-.3.5c0 .6.4.9.4 1.5 0 .4-.3.6-.3 1 0 .2-.2.4-.5.4l.1.7-.1.3c0 .4.2.6.6.8l-.6.3c-.3.3-.1.6-.2 1-.2.6-.5 1-.5 1.7 0 .5 1 .3 1 .8 0 .6-.6.9-1.2.9-.4 0-.5-.4-.8-.4l-.3.1-.6-.2-.4.1c-.3 0-.3-.5-.6-.5-.2 0-.3.3-.5.3-.5 0-.7-.4-1.2-.4h-.5v.9c0 .4-.4.6-.4 1v.5l.1.2c0 .3-.3.4-.6.6-.1.2-.1.4-.3.5-.2.1-.5.1-.6.3-.1.2-.1.4-.3.5-.4.1-.7.1-.9.5-.3.5-.2.9-.3 1.5-.1.4-.3.7-.3 1.2l.1.6-.2.9.1.7c0 .5-.5.6-.5 1.1v.3l-.6-.2-.4.1c-.2 0-.3-.3-.4-.5l-.3-.7c-.1-.1-.1-.3-.3-.3-.4 0-.5.4-.9.4-.6 0-.3-1.3-.9-1.3-.3 0-.3.4-.6.5-.4.2-.7.3-1 .7-.3-.2-.5-.6-.8-.6h-.5c-.2-.2-.3-.3-.6-.3l-.2.1c-.2 0-.2-.3-.3-.5l-.4-.5c-.1-.2-.1-.5-.4-.5-.5 0-.7.1-1.2.3l.2.9c0 .4-.4.6-.5 1s-.1.9-.5.9l-1.1-.2-.1.1v.5l.1.6c0 .2-.2.3-.4.3-.3 0-.4-.3-.7-.3-.6 0-.5.9-.9 1.3h-.1l-.1-.3c-.3-.5-.8-.3-1.3-.6s-.8-.8-1.4-.8l-.5.2c-.2 0-.2-.3-.4-.3-.7-.3-1.1-.5-1.8-.5l-.6.2c-.6 0-.9-.4-1.5-.4-.2 0-.2.4-.4.4l-.4-.1c-.3 0-.3-.4-.5-.5l-.7-.1-.3.2-.2-.6c-.5.1-.7-.6-.8-1.2h-.7c-.1-.3-.2-.5-.4-.6l.6-.7c.3-.2.5 0 .8-.1s.2-.4.2-.7c0-.4-.5-.4-.9-.7-.4-.2-.5-.5-.8-.9-.2-.2-.1-.5-.3-.6-.6-.4-1-.1-1.6-.4-.7-.3-1-.8-1.4-1.4-.7-1-1.4-1.8-2.6-1.8l-.4.2c-1 .5-.4 1.9-1.3 2.5-.1.3-.3.4-.3.7.2 0 .3-.1.4 0 .2.2.2.6.5.6h.3v.2l-.1.4-.4-.1-.1.2v1.5l.2 1.7c0 .6-.1.9-.4 1.4-.1.2-.4.3-.4.5v.5l.1.2c0 .5-.4.6-.7 1-.2.3-.2.7-.6.7-.3 0-.3-.4-.6-.5-.3.3-.3.6-.3 1.1l.2.7c0 .3-.3.3-.4.5-.1.3-.3.4-.8.3-.6-.3-.9-.4-1.2-.7-.3-.3-.8-.2-1-.6-.1-.2-.1-.5-.3-.7l-1.8-1.1c-.3-.2-.4.6-.8.6-.9 0-.9-1.2-1.8-1.6-.3-.1-.7-.2-.9.1-.2.2 0 .4-.2.6l-.1.1c-.3.5-.5 1.1-1 1.1l-.5-.2c-.3 0-.6.1-.6.4 0 .4.4.5.4.9l-.2.3c0 .2.4.3.4.5 0 1.4-.9 2.1-.9 3.6 0 .4.3.6.3 1 0 .7-.4 1-.5 1.6-.1.7 0 1.2-.4 1.8-.4.7-1.1.6-1.8 1.1s-.8 1.1-1.3 1.9c-.3.5-.8.5-1.4.8-.8.4-1.2 1-2.1 1l-1.6-.2c-1.2 0-1.7 1.2-3 1.2l-1-.1c-.9 0-1.1.8-1.9 1.1l-.8.3-.2.5-.3.4-.2.2-.5.4-.6.6a1 1 0 0 1-.6.5c-.7.3-1.9-.1-2.5.2-.5.2-.7 1.4-1 1.8-.2.3-.4.1-.6.4-.2.3-.1.7-.6.6-.7-.2-1 .8-1.1 1.3-.1.4-.5.1-.7-.1-.7-.3-.3.6-.6.9-.2.2-.2.4-.2.7l.2.9c.2.5.8.9 1.2 1.4 1.3 1.3 2.8 1.8 2.9 3.9 0 .3.1 1 .3 1.2s1.4.3 1.4.3h.1l.1.1.1.1.2.8c.2.1.4-.2.5-.1.2.2.1.8.3 1l.7 1.1.7 1.4.4 1.5c0 .7-.5.9-.8 1.5-.3.5-.3.9-.7 1.2l-.7.6c-.2.2-.1.4-.1.6l-.2.4h.3l-.1.6-.2.2v.4c-.5.1-.9.4-.9.9 0 .6.4 1.2 1 1.2l.9-.2c.2 0 .3.3.6.3.4 0 .6-.3.9-.5h.3c.2-.1.2-.3.5-.3.2 0 .3.2.5.4l.6.5c.6.5 1.1.9 1.1 1.7l-.1.4c0 .8.7 1.1.7 1.8s-.5.9-.8 1.5l-.2.3v.5c0 .4-.5.3-.8.6l-.1.5c0 .3.3.5.3.8 0 .7-.5 1-.7 1.6.3.1.5.2.5.4l-.2 1v1c0 .4-.5.3-.8.5-.5.5-.5.9-.9 1.3-.1-.5-.2-1.2-.7-1.2-.2 0-.2.3-.3.3-.6 0-.8-.4-1.2-.7-.6-.3-1-.4-1.4-.9l-.4-.7c-.2-.3-.5-.3-.8-.4-.3-.2-.5-.4-.6-.7-.1-.2 0-.5-.3-.5l-.7.2c-.5 0-.8-.3-1.1-.7-.3-.5-.6-.8-.6-1.3 0-.3.3-.3.3-.6.1-.4.1-.6.4-.8l.4-.2.3-.1c0-.6-.5-.8-1-1-.2-.1-.4.1-.6-.1l-.3-.6c-.1-.2-.3-.3-.3-.5s.3-.2.4-.4c.2-.3.3-.4.3-.7-.3.1-.5.3-.8.3-.6 0-.7-.7-1.2-.7l-.3.1-.4-.1h-.5l-.3.1h.3c-.3 0-.5.3-.8.3l-.6-.1-.7.2c-.2 0-.3-.1-.4 0-.3.2-.2.5-.4.8-.3.5-.5.7-.6 1.3h-.1l-1-.2c-.7 0-.9.8-1.7.8-.2 0-.2-.3-.3-.5-.6-.6-1.1-1-1.4-1.8-.1-.3-.4-.3-.5-.6-.2-.5-.1-1.1-.6-1.1l-2.1.6c-.3-.1-.4-.4-.7-.4l-.4.1c-.2 0-.2-.3-.4-.3-.4 0-.6.2-.9.3-.3.1-.6-.1-.8.2-.2.2-.2.6-.5.6-.2 0-.3-.2-.4-.3-.2-.3-.5-.5-.5-.9 0-.7.7-1 .7-1.7 0-.2-.1-.5-.3-.5-.9 0-.7 1.2-1.5 1.6-.4.2-.8.1-1.3.4v.2c.4.9 0 1.5.4 2.4.3.9 1 1.2 1 2.2 0 .5-.7.4-1.2.7 0-.3-.1-.8-.4-.8-.6 0-.8.6-1.3.6-.3 0-.4-.4-.8-.4h-.5l-.4.1c-.5 0-.6-.4-1.1-.4-.2 0-.2.3-.4.3l-.4-.1c-.3 0-.4.3-.7.3s-.3-.6-.6-.6c-.4 0-.9.1-1 .5l-.6-.2-1.2.2h-.6c-.2 0-.2.3-.4.3l-.4-.1c-.6 0-.9.4-1.5.4v1l-.7.2-.7-.2-2.2-.3-.3.1h-.5l-.5-.1c-.7 0-1.1.3-1.8.3-.5 0-.7-.4-1.1-.4-.4 0-.5.6-.9.6l-.3-.1c-.3 0-.3.5-.5.8-.1.2-.3.3-.3.6l-.2 1.1c0 .4.1.7-.1 1-.2.2-.5.2-.7.3-.3.1-.4.3-.7.3l-.7-.2-.5.2h-1.1c-.6 0-1-.1-1.5-.5-.4.8-.9 1.1-1.5 1.7-.2.2-.6.2-.6.5 0 .2.2.4.4.4h.6c.4 0 .2.6.4 1h-.2l-.3-.1-.6.1-.5-.1c-.2 0-.2.3-.3.3l-.7-.2c-.4 0-.7.3-.7.7h-.4c-.2 0-.2.3-.4.4h-.7v.5l.1.5c0 .3-.4.4-.7.5l-.9.3-.5-.2-.4.1-.2-.1c.3-.7 1-.8 1-1.6 0-.3-.4 0-.7 0s-.4-.3-.8-.3c-.3 0-.4.3-.6.4l-1 .3-1.1.6c-.2.1-.5.1-.5.3v.3c0 .3-.4.3-.7.3h-2l-.5-.1-.3.3-.5-.2-.4.1c-.6 0-1.3-.3-1.3-.9v-.2c0-.3.4-.4.4-.7 0-1-.9-1.2-1.6-2-.2-.2-.5-.2-.5-.4l.2-.6h-.7l-.5-.1-.8.1c-.4 0-.4-.5-.4-.8 0-.8 1.2-.5 1.6-1.2-.2-.2-.5 0-.6-.3-.2-.3 0-.5-.3-.7-.2-.2-.4-.1-.7-.1-.5 0-.8.5-1.3.5h-.8c-.2.1-.1.3-.3.5-.2.2-.5 0-.7.1l-.3.2c-.5 0-.5-.6-.8-1-.3-.5-.8-.2-1.3-.2-.3 0-.3-.3-.6-.4l-.6-.3c-.1-.1 0-.3-.2-.4-.2-.3-.6-.2-.9-.2h-.7c-.3 0-.5-.3-.8-.3l-.3.1-.6-.1c-.2.2-.4.4-.7.4-.1.5 0 1.1-.5 1.2l-.7-.1-.9.2c-1 0-1.4-.9-2.4-1l.4-1.4.2-.3v-.1l-.9.2-.3-.1-.4.1.1.2v.5c0 .4.6.4.6.8 0 .7-.2 1.2-.5 1.9l-.1.9.2 1.1c.3 0 .5-.1.8.1.4.3.2.8.3 1.2.1.6.3.9.3 1.5 0 .2-.3.2-.4.3-.3.3-.5.5-.8.5-.1.5-.3.7-.3 1.1l.1.7h-.2c-.5.2-1 .2-1.3.7l-.4.8c-.2.3-.3.6-.6.8-.4.3-.8.5-.8 1.1l.1.3c0 .2-.2.2-.4.3l-.3.3-.5-.1c-.7.1-.8.9-1.5.9-.3 0-.4.3-.7.5-.1.1-.3 0-.4 0-.3.1-.3.3-.5.6-.4-.3-.7-.3-1.2-.3-.3 0-.5.2-.8.3l-.2-.6c0-.3-.1-.8.3-.8l.3.1c.2 0 .3-.2.5-.4.1-.2.3-.2.3-.4s0-.3-.2-.4c-.1-.2-.4-.3-.4-.5l.2-.3.6-1.4c.2-.3.5-.5.5-.9 0-.3-.1-.7-.4-.7l-.7.2c-.3 0-.4-.3-.7-.3-.7 0-.7 1.2-1.4 1.2-.4 0-.5-.3-.9-.3-.6 0-.4.8-.9 1.1a3 3 0 0 1-.6-2v-.5c0-.3-.2-.5-.4-.5v-.2c.1-.2.4-.2.6-.3.3-.1.4-.5.4-.8s-.2-.5-.3-.8l-.1-.7-.4.1c-.2 0-.2-.2-.4-.3-.6-.3-.8-.8-.9-1.5H85l-.9.2h-.5c-.5 0-.4-.6-.6-1.1s-.8-.7-.8-1.2l.2-.8v-.1c-.3.1-.4.5-.7.5l-.3-.1c-.4 0-.5.3-.9.3-.3 0-.2-.4-.4-.7-.1-.2-.3-.1-.5-.1l-.4-.2-.2.2v.3l-.1.5c-.5-.1-.6-.4-1-.7.4-.5.1-.4-.4-.5.1-.3.4-.4.4-.8v-.9l.1-.3c0-.2-.4-.1-.6-.2-.4-.3-.7-.4-1.2-.4s-.7.5-.9 1l-.7 1.6c-.1.3 0 .6-.3.8l-.3.3c-.9.6-1.8 0-2.8 0l-.9.1c-.1.3-.5.6-.7.8-.3.3-.7.4-1 .5l-.7.2c.1.5.6.6.9 1.1.2.4.2.9.6.9.2 0 .2-.2.3-.3.6.5 1 .8 1.8.8v.2l-.2.9c0 1.2.6 1.8.6 2.9 0 .8-1.3.3-1.7 1l-1.1 1.9-1 1.4c-.2.2-.1.5-.3.7-.4.5-.6.7-.7 1.3l.5.5c.3.1.7.1.7.5 0 .5-.3.7-.5 1.1.6.4 1.2.8 1.2 1.5 0 .2-.2.3-.3.5l-.3 1h.1l.3-.1c.4 0 .5.5.8.7l.8.4c.2.3.1.8.5 1v.1c-.3.3-.4.6-.4 1.1l.3.2c.2.1.2.3.2.5s.1.4-.1.5c-.2.3-.7.1-.8.5l-.2.9c.3.3.5.7 1 .7.2 0 .2-.2.2-.4l.1-.1.2.1c.5 0 .7-.3 1.1-.3.3 0 .3.3.6.4l.5.1c.3.2.3.5.6.5.3.1.6-.1.9.1l.2.2.5-.1h.5c.3 0 .3.3.5.5.6.4.8.9 1.5.9.5 0 .6-.5 1.1-.5h.6c-.1.2-.3.3-.3.6s.4.3.6.4.2.3.2.6-.3.3-.5.5c-.3.3-.3.6-.3 1.1l.2.3v1c0 .2.3.2.5.3l.7.5c.5.3.8.7 1.3.7l.5-.2.4.2.3-.2c.2.2.1.5.3.6l1 .2c.2.1.2.4.5.6s.7.2.8.6c.1.3 0 .6.2.7.3.1.5 0 .8.2.6.3.6 1.1 1.3 1.1.4 0 .6-.3 1-.3l.7.1c.7 0 .9-.9 1.6-.9.6 0 1.2-.2 1.2-.8 0-.3-.3-.4-.3-.7 0-.2.3-.2.3-.4l.4-1.8h.1c.2.3.6.2 1 .3l.6.2.5-.2c.1-.1.4 0 .4-.2l-.2-.5.1-.6c.8 0 .9-.9 1.2-1.7.1-.3.1-.7.5-.7l.6.2c.2 0 .2-.1.3-.2.2-.1.2-.4.4-.4.3 0 .3.3.6.5.2.2.5.4.6.7l-.1.8c.1.4.5.4.8.5.5.1.7.3 1.1.5.2.1.5.3.5.5v.7l-.2.4-.1.6c-.1.3-.3.4-.3.7l.1 2 .4-.2c.2.5.7.6 1.2.6h.5c.4 0 .6-.2.9-.3l-.2.4v.2h.3l.5-.2c.3-.1.6-.1.8-.3.2-.1.1-.4.3-.5.6-.3 1-.1 1.7-.4.4-.1.5-.5.9-.5.2 0 .2.3.4.4.3.2.5.2.7.5s.2.6.5.7c.6.3.9.5 1.3 1l.3.3c0 .2-.2.2-.3.3-.3.5-.9.7-.9 1.4 0 .2.1.3.3.3.7 0 1-.5 1.7-.5s.7 1.1 1.4 1.1c.2 0 .2-.3.5-.3.2 0 .3.2.5.3.5.3.8.6 1.4.6s.9-.6 1.5-.6l.7.1.7-.1c.5 0 .8.3 1.3.3l.7-.1.2.2c.5-.6.5-1.1.7-1.9l.5-.4.4-.5c.2-.2.6-.1.6-.4 0-.4-.3-.6-.3-1 0-1.3 1-1.9 1-3.1l-.1-.9h.3c.4 0 .2-.6.2-1l.1-.1.8.2c.5 0 .9-.2 1.1-.6s-.1-.7.1-1c.1-.2.4-.2.6-.3l.4-.2c.3 0 .4.3.7.3.8 0 1.2-.9 2-.9l.2.1c.3 0 .4-.3.7-.3l.5.1c.3 0 .3-.4.6-.4s.5.1.6.4l.6-.3c.6 0 .7.7 1.1 1.1.3.3.7.2 1.1.2.5 0 .7-.3 1-.7l.2-.5c.2-.2.5 0 .6-.2.3-.4.5-.8 1.1-.8.7 0 1 .4 1.4.9.1.2.2.5.4.5s.3-.2.5-.3c.3-.2.5-.1.7-.3.2-.1.1-.3.3-.5l.2.1c.4-.1.5-.4.9-.4.5 0 .9.3 1.2.7.1.2.2.4.4.4l1.4-.2c.3 0 .4.3.6.6.3.5.6.8 1.2.8.8 0 .9-1.1 1.7-1.1l.3.1h.6c.5 0 .6-.4 1.1-.6.8-.3 1.3-.5 2-1 .5-.4.8-.8 1.4-.8l.3.1.3-.4c.3-.1.5 0 .7-.2.2-.1.2-.3.4-.3l.5.1c.4 0 .7.1 1.1-.1.3-.1.2-.6.5-.6l1 .1c.3 0 .5-.3.6-.6.1-.4.5-.5.9-.5l.5.2c.3 0 .5-.2.7-.3.4-.2.7 0 1.1-.2.3-.1.4-.4.7-.4.4 0 .7.2 1.1.3.4.1.9.3.9.8 0 .3-.4.4-.6.5-.1.2-.3.3-.3.6 0 .9-.9 1.5-1.9 1.5l-.5-.1c-.2 0-.3.3-.5.4s-.5.2-.5.4l.2.6-.2.5.2.8v.4c0 .8 1.3.8 1.3 1.6 0 .6-.8.7-.8 1.3 0 .3.3.3.6.4l.9.3c.6.4.6.9 1 1.5l.6-.4.2-.3.8.2c.2.1.5 0 .5.2l.1.4c.2.3.6.4.6.8l-.1.4c0 .4.5.4.5.8 0 .3-.2.4-.3.6-.2.1-.4.2-.4.5l.2.5c0 .4-.2.6-.4 1l.3.2.1-.1c.8 0 1.3.5 2.1.5h.4l.7 2.4c.1.4 0 .7.3 1 .4.5.8.6 1.5.7.2 0 .2.3.3.4.5.3.9.1 1.5.3.2.1.1.3.3.4.3.2.5 0 .8 0 .7.1 1 .6 1.6 1l.5.2c.2.1.2.3.4.3l.6-.2.6.1c.4 0 .6-.4 1.1-.4.4 0 .4.5.7.5s.4-.3.8-.3c.6 0 1.1-.1 1.6.4l.5.5c.2.2.2.4.4.4s.1-.3.3-.4c.2-.2.5-.2.8-.2.4 0 .6 0 1 .2.5.2.7.8 1.3.8h.3c.1.4-.1.6.2.9.2.2.4.3.7.3l.4-.1.5.1h.6l1-.1c.5 0 .7.3 1.1.3l.5-.1c.4 0 .6.3 1.1.3l.4-.1c.4 0 .6.2 1 .3h.1c.6 0 .9-.4 1.5-.4s.9.4 1.4.6l1.7.3c.3.1.3.4.6.6.5.3 1 .2 1.5.4.4.2.3.8.7.8.3 0 .3-.4.6-.4l.4.1.5-.1c.5 0 .7.2 1.2.3.2.1.3.3.5.3s.1-.3.2-.5c.1-.4.5-.5.9-.5h.6c.1-.2-.1-.6.2-.6s.5.1.8.3l.4.1c.2.2 0 .4.1.6.2.2.4.1.6.1l.7.1.4-.1h.5c.4 0 .6-.2 1-.3.2.5.4 1 .9 1 .3 0 .4-.3.6-.5.3.3.6 0 .9.3.2.2.1.6.3.6.3 0 .3-.4.6-.4s.4.2.7.3h.6c.6.1.8.5 1.4.7.7.3 1.1.3 1.9.4l.4-.2.1.2c.2.2.3.3.6.3l.5-.1.3.1.5-.2c0 .4.4.6.8.6.5 0 .9-.3 1.1-.8.3.3.5.3.9.3s.9 0 1-.4l.6.2h.8l1.1.7.7.5c.7.2.9 1 1.7 1 .5 0 .6-.8 1.1-.8.3 0 .5.2.8.3.8.3 1.3.3 2 .7.4.2.2.7.4 1.2.1.3.4.3.6.5.2.2.3.6.6.6s.5 0 .8-.2l.2-.2.4.1.6-.2c.3 0 .3.4.6.4.6 0 1-.4 1.6-.4.5 0 .7.4 1.2.6l.2.1c1.4-.4 2.2-.9 3.6-.9.3 0 .8-.1.8.2l-.2.3c0 .2.2.2.3.3.2.2.3.4.6.4h.5c.3 0 .4.4.7.4.4 0 .4-.7.8-.7s.5.3.8.6c.4.4.5.7.8 1.2.2.5.2 1.1.7 1.1.4 0 .7-.4.7-.8v-.3l.1-.6-.2-.8c0-.6.8-.8 1.4-.8h.5c.3 0 .4-.2.6-.4l.7-.6c.4-.5.8-.6 1-1.2.2-.5.2-.9.6-1.2l.5.4c.1-.3.1-.7.4-.7.2 0 .3.2.5.4 0-.1.1-.3.3-.3.4 0 .6.3 1 .3.3 0 .3-.3.6-.4.8-.3.7-1.2.9-2l.4-.5.3-1.1c.1-.4.5-.6.5-1 .5-.4.5-1.2 1.1-1.2.5 0 .7.4 1.2.5v-.8l.4.1c.3-.4.6-.7 1-.7.2 0 .3.2.4.5l.4 1c.2-.2.4-.2.5-.5l.1-.6.6-.6c.5-.5.9-.9 1.6-.9.4 0 .5.3.9.3.2 0 .2-.2.4-.4l.4-.2c.2-.1.2-.3.4-.3.3 0 .3.4.6.4l.5-.2c.5 0 .8 0 1.2.2.1 0 .3-.1.4 0 .2.1.1.3.3.4.6.4 1.1.4 1.8.4.3 0 .4-.2.7-.3.3-.1.5.1.8 0s.3-.5.6-.5c.4 0 .5.4.9.4l.3-.3c.4-.2.6-.1 1.1-.1l.5.2 1.6-.2c.2 0 .3.3.5.4.3.3.7.3 1.1.3v.5c0 .2.2.2.3.3.2.3.1.7.5.7.2 0 .2-.4.5-.4l.6.2c.3 0 .3-.3.6-.5s.7-.1.9-.4c.2-.2.1-.4.1-.7s.3-.4.3-.6l-.1-.7c0-.3.4-.2.6-.4l1.3-.7.4.4.5.1.1-.5c.2-.2.6-.1.7-.4l-.1-.4v-.2c.4-.1.7-.3 1.2-.3 1 0 1.4.8 2.3.8 1.4 0 1.9-1.3 3.3-1.3h1c.9 0 1.2.8 2 1.1.9.4 1.6.2 2.4.7.5.3.4.9.8 1.2.3.2.7 0 1 .2l.4.2v-1l.1-.6c0-.5-.4-.7-.5-1.1-1-.1-1.6-1.1-1.6-2.1 0-1.3.5-2 .5-3.2 0-.4-.4-.5-.4-.9 0-.2 0-.4.2-.4l.4.1c.4 0 .5-.4.9-.4l.4.2.3-.2h.4c.6 0 .5-.9.9-1.2.4-.3.8-.1 1.2-.4.5-.4 1-.6 1.2-1.3.4-.6 1-.7 1.3-1.3l.4-.8c.1-.3.1-.6.4-.6l.5.2c.3 0 .3-.3.6-.4l.4-.3c.1-.2.1-.5.3-.6l.5.1h.2v-.5c0-.4.4-.6.4-1v-.8c0-.3.2-.4.4-.7.3.2.4.3.5.6l.5-.1.6.1.2.2c.3 0 .3-.5.6-.5.4 0 .6.4 1 .4s.6-.3 1-.3c.5 0 .5.9 1.1.9.4 0 .3-.8.7-.8.4 0 .6.3 1.1.3l.1-.2c.2-.2.5-.1.7-.2l-.9-.8c-.2-.3-.2-.8-.6-.8-.2 0-.3.2-.5.4-.2-.2-.3-.3-.3-.5s.3-.2.5-.3c.5-.3.9-.4 1.5-.5.4 0 .8-.1.8-.5s-.4-.7-.8-.7l-.4.1c-.3 0-.3-.3-.6-.4l-.2-.8.2-.6h.3c.2 0 .2-.3.4-.4.2-.2.5-.1.5-.3l-.1-.3v-.1l.9-.1v-.2c0-.5-.4-1-.9-1-.6 0-.9.4-1.5.4-.3 0-.3-.4-.3-.8 0-.3.3-.5.3-.9s-.2-.5-.4-.9l-.7.2h-.3c-.1-.5 0-.8-.2-1.3l.5-.1c.2-.1.2-.3.2-.5l.2-.8.1-.2c0-.3-.1-.5-.4-.6v-.1a3 3 0 0 0 1.3-.3c.5-.2.1-1.1.6-1.2 0-.6-.3-.9-.4-1.5l-.4-1.7c-.1-.2-.4-.1-.6-.3l-.4-.7c.4-.1.8-.4.8-.9l-.2-.7.2-.2c0-.5-.4-.7-.4-1.1v-.3h1.5v.2l-.1.5c.1.2.1.4.3.4.4 0 .6-.4.9-.7.3-.4.7-.5 1.2-.5l.7.2c.3 0 .4-.3.7-.5l.9-.6c.3-.2.3-.4.5-.6s.5 0 .7-.3c.4-.5.6-.9.6-1.5 0-.5-.4-.8-.4-1.3 0-.2.1-.5.4-.5l.3.2c.4 0 .5-.4.8-.7l.3-.2.3-1.1v-.1l-.3-.1-.4-.5c-.1-.2-.1-.4-.3-.4l-.3.1c-.2 0-.2-.2-.4-.3.1-.2.3-.2.3-.4v-.5l-.2-.8.1-.5v-.2h-.4c0-.5-.5-.9-1-1l-2 .4c-1.1-.1-1.3-1.4-2.4-1.4-.2 0-.2.3-.2.4-.4-.1-.8 0-1-.4-.1-.1 0-.4-.2-.5-.6-.4-1.2-.3-1.9-.6.3-.6.9-.8.9-1.4 0-.2-.1-.3 0-.4.4.1.2.9.6.9.3 0 .4-.3.5-.6.2-.5.5-.7 1-.9h.4l.4-.4c.4-.1.7-.3.7-.7 0-.3-.4-.4-.4-.7 0-.2.2-.2.4-.3v-.3c.7 0 1-.5 1.8-.5l.3.1.2-.2.6.2.5-.1c.3.6.8 1 1.5 1h.3c.4 0 1.3-.2 1.5.2l.2 1c0 .4.3 1.2.7 1.4.4.2 1.5.7 2 .4h.7c.1-.2.4-.1.6-.4.2-.2-.1-.6.1-.7.4-.2.7-.2.9-.6l.4 1.2c.1.2.1.4.3.4l.6-.1h1c1.3 0 2-.2 3.2-.4 1.1-.2 1.8-.2 2.8-.6-.2-.2-.2-.4-.5-.6l-.2-.4v-.6c0-.9-.1-1.5-.3-2.3-.1-.3-.5-.4-.5-.7 0-.5.8-.4.8-.9l-.3-.2c-.3-.3-.6-.5-.6-1V66c0-.3-.3-.5-.6-.6a3 3 0 0 0-.8-.4c.3-.5.8-.4 1.4-.6l1.3-.6.2.1c.2-.5.5-.7.5-1.2 0-.2-.3-.3-.3-.5 0-.5.6-.7.6-1.2 0-.2-.3-.2-.5-.4l.7-1.4-.5-.4v-.1c.6-.3.7-.7 1.3-1.2l1.1-.8c-.3-.3-.4-.6-.8-.7-.5-.2-.9-.2-1.2-.6-.4.3-.6.7-1 .7l-.2-.3-.4-.2c0-.2.1-.3.3-.4l.3-.5-.5-.5c.1-.3.4-.3.4-.6l-.2-.6c0-.3.1-.5.4-.7.1-.1.3-.1.3-.3s-.2-.3-.3-.4l-.5-.8c-.2-.4-.2-.7-.5-1l-.3-.4h-.7c-1 0-1-1.6-2-1.6l-.1-.7c0-.5-.2-.8-.3-1.2-.1-.5-.1-.8-.4-1.2-.2-.2-.4-.3-.4-.6l.2-.9v-.6c-.3-.3-.7-.1-1-.3-.4-.2-.4-.6-.6-1.1-.1-.4-.5-.5-.5-.9s.4-.5.4-.9c0-.6-1.3-.4-1.3-1l.1-.2v-.1h-.9c-.5 0-.7-.5-.7-1l-.1-.9V36h.1l.2.1c.3 0 .4-.4.4-.7l-.2-.9c0-.2.5-.1.5-.4 0-.2-.2-.3-.3-.5-.2-.4-.1-.7-.1-1.1v-.4h.5v-.2l-.1-.3.4-.4c.1-.1.1-.4.3-.4l.2.1c.3 0 .2-.4.4-.6l-.2-.5c0-.2.2-.3.4-.3l.3.1.1-.1v-.8c.1 0 .3.1.4-.1s0-.5.3-.5l.4.1c.1-.4.4-.6.4-1.1 0-.7-.6-1-.6-1.8l.2-.9-.2-.7.2-.4-.1-.6c-.2 0-.5-.1-.6-.3l.1-.9-.2-1.1.1-.6c-.1-.3-.3-.4-.3-.7l.1-.4c0-.4-.3-.5-.4-.9-.1-.2 0-.4-.2-.6s-.6 0-.8-.3l-.1.1c-.1.5-.7.4-1.1.4l-.5-.2v.3h-.5l-.5.2c-.5 0-.8-.2-1.3-.5-.3-.1-.6 0-.7-.3l-.4-.6-.2.1c-.2-.2-.4-.4-.8-.4s-.6.2-.9.5c-.2-.1-.2-.3-.3-.4l-.2-.3.2-.8c0-.9-.7-1.2-1.5-1.6a1 1 0 0 1-.7.3" fill="#a2cebe"/><path d="M145.2 95.4a5.5 5.5 0 0 0-2.3-1.3l-.5.1-.1.1-.1.1-.2.5c-.1.6.2 1.6.8 2.5.5.8 1.1 1.5 2.1 2.6l.5.6-.7 1.8-.3-.2-.3.1-.4.3-.2.3.1.3.5.6-.1.2-.2-.1-.3.1-.4.3-.2.3.1.3.4.5-.8 1.9v.1l.1.4.6.7.3.1.4-.2 2.6-3.8.1-.1 1.3-1 2.9 3.1.2.2-.6 3.1v.1l.1.4.3.3.3.1.4-.2 1.3-2.1.1-.1.2-.2.4.1.4-.1.2-.4v-.4l.2-.2.1-.1 2.3-.8.3-.3-.1-.3-.3-.4-.4-.2h-3.1l-.2-.3-2.5-3.4 1.3-1 .1-.1 4.2-1.8.2-.3-.1-.3-.6-.7-.3-.2h-.1l-2 .4-.4-.5-.3-.2-.3.1-.4.3-.2.3.1.3-.3.1-.5-.6-.3-.2-.3.1-.4.3-.2.3.1.3-1.9.4-.5-.6c-.9-1-1.5-1.8-2.2-2.4M96.3 41.1c0 1.8-1.4 3.2-3.2 3.2-1.8 0-3.2-1.4-3.2-3.2s1.4-3.2 3.2-3.2c1.7-.1 3.2 1.4 3.2 3.2m58.3-3.6c-.1 1.8-1.5 3.2-3.3 3.1-1.8-.1-3.2-1.5-3.1-3.3.1-1.8 1.5-3.2 3.3-3.1 1.8.1 3.2 1.5 3.1 3.3M326 42.2c-.1 1.8-1.5 3.2-3.3 3.1-1.8-.1-3.2-1.5-3.1-3.3s1.5-3.2 3.3-3.1c1.7.1 3.1 1.5 3.1 3.3M10.8 91.4c0 1.8-1.4 3.2-3.2 3.2s-3.2-1.4-3.2-3.2c0-1.8 1.4-3.2 3.2-3.2 1.7 0 3.2 1.4 3.2 3.2m125.5 45.9c0 1.8-1.4 3.2-3.2 3.2s-3.2-1.4-3.2-3.2 1.4-3.2 3.2-3.2c1.7 0 3.2 1.4 3.2 3.2" fill="#3d7378"/><path d="M128.3 83.7a.8.8 0 0 1-.4-.2c-.2-.2-.1-.5.1-.7l2.4-1.9c.2-.2.5-.1.7.1s.1.5-.1.7l-2.4 1.8c-.1.2-.2.2-.3.2zm4.8-3.7l-.4-.2c-.2-.2-.1-.5.1-.7l2.5-1.7c.2-.2.5-.1.7.1s.1.5-.1.7l-2.4 1.7-.4.1zm4.9-3.4l-.4-.2c-.2-.2-.1-.5.1-.7l2.5-1.7c.2-.1.5-.1.7.1s.1.5-.1.7l-2.5 1.7-.3.1zm5-3.3l-.4-.2a.5.5 0 0 1 .2-.7l2.6-1.6c.2-.1.5-.1.7.2.1.2.1.5-.2.7l-2.5 1.6h-.4zm5.1-3.1l-.4-.2a.5.5 0 0 1 .2-.7l2.6-1.5c.2-.1.5-.1.7.2.1.2.1.5-.2.7l-2.6 1.5h-.3zm5.2-3c-.2 0-.3-.1-.4-.3a.5.5 0 0 1 .2-.7l2.6-1.5c.2-.1.5 0 .7.2s0 .5-.2.7l-2.6 1.5-.3.1zm5.3-2.9c-.2 0-.4-.1-.4-.3-.1-.2 0-.5.2-.7l2.7-1.4c.2-.1.5 0 .7.2.1.2 0 .5-.2.7l-2.7 1.4-.3.1zm5.3-2.8c-.2 0-.4-.1-.4-.3-.1-.2 0-.5.2-.7l2.7-1.3c.3-.1.5 0 .7.2.1.2 0 .5-.2.7l-2.7 1.3-.3.1zm5.4-2.6a.5.5 0 0 1-.5-.3c-.1-.3 0-.5.2-.7l2.7-1.3c.3-.1.5 0 .7.2s0 .5-.2.7l-2.7 1.3-.2.1zm5.5-2.5a.5.5 0 0 1-.5-.3c-.1-.3 0-.5.3-.7l2.8-1.2c.3-.1.5 0 .7.3.1.3 0 .5-.3.7l-2.7 1.2h-.3zm5.5-2.4a.5.5 0 0 1-.5-.3c-.1-.3 0-.5.3-.7l2.8-1.1c.3-.1.5 0 .7.3.1.3 0 .5-.3.7l-2.8 1.1h-.2zm5.6-2.2a.5.5 0 0 1-.5-.3c-.1-.3 0-.5.3-.6l2.8-1.1c.3-.1.5 0 .6.3s0 .5-.3.6l-2.8 1.1h-.1zm5.6-2.1a.5.5 0 0 1-.5-.3c-.1-.3 0-.5.3-.6l2.8-1c.3-.1.5 0 .6.3s0 .5-.3.6l-2.8 1h-.1zm5.7-2a.5.5 0 0 1-.5-.3c-.1-.3.1-.5.3-.6l2.9-.9c.3-.1.5.1.6.3.1.3-.1.5-.3.6l-2.8.9h-.2zm5.7-1.8c-.2 0-.4-.1-.5-.4-.1-.3.1-.5.3-.6l2.9-.9c.3-.1.5.1.6.3.1.3-.1.5-.3.6l-2.9.9-.1.1zm5.7-1.7c-.2 0-.4-.1-.5-.4-.1-.3.1-.5.3-.6l2.9-.8c.3-.1.5.1.6.4s-.1.5-.4.6l-2.9.8c.1 0 .1 0 0 0zm5.8-1.5c-.2 0-.4-.2-.5-.4-.1-.3.1-.5.4-.6l2.9-.7c.3-.1.5.1.6.4s-.1.5-.4.6l-2.9.7h-.1zm109.4-.3h-.1l-2.4-.6c-.3-.1-.4-.3-.4-.6.1-.3.3-.4.6-.4l2.4.6c.3.1.4.3.4.6-.1.3-.3.4-.5.4zm-103.5-1.1c-.2 0-.4-.2-.5-.4-.1-.3.1-.5.4-.6l2.9-.6c.3-.1.5.1.6.4.1.3-.1.5-.4.6l-2.9.6h-.1zm98.1-.2h-.1l-2.9-.6c-.3-.1-.4-.3-.4-.6.1-.3.3-.4.6-.4l2.9.6c.3.1.4.3.4.6s-.3.4-.5.4zM226.1 40c-.2 0-.4-.2-.5-.4-.1-.3.1-.5.4-.6l3-.6c.3-.1.5.1.6.4.1.3-.1.5-.4.6l-3.1.6c.1 0 .1 0 0 0zm86.5-.1c-.1 0-.1 0 0 0l-3-.6c-.3 0-.5-.3-.4-.6 0-.3.3-.5.6-.4l3 .6c.3.1.4.3.4.6-.2.2-.4.4-.6.4zm-80.6-1c-.2 0-.5-.2-.5-.4 0-.3.1-.5.4-.6l3-.5c.3 0 .5.1.6.4 0 .3-.1.5-.4.6l-3.1.5c.1 0 .1 0 0 0zm74.7-.1c-.1 0-.1 0 0 0l-3-.5c-.3 0-.5-.3-.4-.6 0-.3.3-.5.6-.4l3 .5c.3 0 .5.3.4.6-.2.2-.4.4-.6.4zM238 38c-.2 0-.5-.2-.5-.4 0-.3.1-.5.4-.6l3-.4c.3 0 .5.2.6.4 0 .3-.2.5-.4.6a29 29 0 0 0-3.1.4zm62.7-.1l-3-.4c-.3 0-.5-.3-.4-.6 0-.3.3-.5.6-.4l3 .4c.3 0 .5.3.4.6-.1.2-.3.4-.6.4zm-56.8-.7c-.2 0-.5-.2-.5-.4 0-.3.2-.5.4-.6l3-.3c.3 0 .5.2.5.4s-.2.5-.4.5l-3 .4c.1 0 0 0 0 0zm50.9-.1l-3-.3c-.3 0-.5-.3-.4-.5 0-.3.3-.5.5-.4l3 .3c.3 0 .5.3.4.6 0 .1-.3.3-.5.3zm-44.9-.5c-.3 0-.5-.2-.5-.5s.2-.5.5-.5l3-.3c.3 0 .5.2.5.5s-.2.5-.5.5l-3 .3zm38.9-.1l-3-.2c-.3 0-.5-.3-.5-.5 0-.3.3-.5.5-.5l3 .2c.3 0 .5.3.5.5 0 .3-.2.5-.5.5zm-32.9-.4c-.3 0-.5-.2-.5-.5s.2-.5.5-.5l3-.2c.3 0 .5.2.5.5s-.2.5-.5.5l-3 .2zm26.9-.1l-3-.2c-.3 0-.5-.2-.5-.5s.3-.5.5-.5l3 .2c.3 0 .5.3.5.5 0 .3-.2.5-.5.5zm-20.9-.2c-.3 0-.5-.2-.5-.5s.2-.5.5-.5l3-.1c.3 0 .5.2.5.5s-.2.5-.5.5l-3 .1zm14.9 0l-3-.1c-.3 0-.5-.2-.5-.5s.2-.5.5-.5l3 .1c.3 0 .5.2.5.5s-.2.5-.5.5zm-8.9-.1c-.3 0-.5-.2-.5-.5s.2-.5.5-.5h3c.3 0 .5.2.5.5s-.2.5-.5.5h-3zM132.8 138.8l-.3-.1-2.2-2.1c-.2-.2-.2-.5 0-.7s.5-.2.7 0l2.2 2c.2.2.2.5.1.7l-.5.2zm-4.3-4.3a39.8 39.8 0 0 1-2.3-2.6c-.2-.2-.1-.5.1-.7s.5-.1.7.1l1.8 2.3c.2.2.2.5-.1.7.1.2 0 .2-.2.2zm-3.5-4.8l-.4-.2c-.5-.9-1.1-1.7-1.5-2.6-.1-.2 0-.5.2-.7.2-.1.5 0 .7.2l1.5 2.6c.1.2.1.5-.2.7h-.3zm-2.8-5.3a.5.5 0 0 1-.5-.3l-1.1-2.8c-.1-.3.1-.5.3-.6s.5.1.6.3l1 2.8c.1.3 0 .5-.3.6.1 0 0 0 0 0zm-1.9-5.7c-.2 0-.4-.2-.5-.4l-.5-3c0-.3.2-.5.4-.6.3 0 .5.2.6.4l.5 2.9c.1.3-.1.5-.5.7.1 0 .1 0 0 0zm-.7-6c-.3 0-.5-.2-.5-.5v-.3l.1-2.7c0-.3.3-.5.5-.5.3 0 .5.3.5.5l-.1 2.6v.3c0 .4-.2.6-.5.6zm.6-5.9s-.1 0 0 0c-.4-.1-.5-.3-.5-.6l.7-3c.1-.3.4-.4.6-.3.3.1.4.4.3.6l-.7 2.9c0 .2-.2.4-.4.4zm1.7-5.7h-.2c-.3-.1-.4-.4-.3-.7l1.3-2.8c.1-.2.4-.3.7-.2.2.1.3.4.2.7a16 16 0 0 0-1.2 2.7c-.1.1-.3.3-.5.3zm2.8-5.4l-.3-.1c-.2-.1-.3-.5-.2-.7l1.7-2.5c.2-.2.5-.3.7-.1.2.2.3.5.1.7l-1.6 2.5-.4.2zm3.4-4.9l-.3-.1c-.2-.2-.3-.5-.1-.7l.6-.7c.2-.2.5-.2.7-.1.2.2.2.5.1.7l-.6.7-.4.2zM9.8 87.9l-.4-.2c-.2-.2-.1-.5.1-.7l2.6-1.7c.2-.1.5-.1.7.2.1.2.1.5-.2.7l-2.5 1.6-.3.1zM126.2 86l-.3-.1-2.6-1.5c-.2-.1-.3-.4-.2-.7.1-.2.4-.3.7-.2l2.6 1.6c.2.1.3.5.2.7l-.4.2zM14.9 84.7c-.2 0-.3-.1-.4-.3a.5.5 0 0 1 .2-.7l2.6-1.5c.2-.1.5 0 .7.2s0 .5-.2.7l-2.6 1.4c-.1.2-.2.2-.3.2zM121 83l-.2-.1-2.6-1.4c-.2-.1-.3-.4-.2-.7.1-.2.4-.3.7-.2l2.7 1.4c.2.1.3.4.2.7l-.6.3zM20.2 81.9c-.2 0-.4-.1-.4-.3-.1-.2 0-.5.2-.7l2.7-1.3c.3-.1.5 0 .7.2.1.3 0 .5-.2.7l-2.7 1.3-.3.1zm95.5-1.7l-.2-.1-2.7-1.3c-.3-.1-.4-.4-.2-.7.1-.3.4-.4.7-.2l2.7 1.3c.2.1.4.4.2.7-.1.2-.3.3-.5.3zm-90-.9a.5.5 0 0 1-.5-.3c-.1-.3 0-.5.3-.7l2.8-1.2c.3-.1.5 0 .7.3.1.3 0 .5-.3.7l-2.8 1.2h-.2zm84.6-1.6h-.2l-2.8-1.1c-.3-.1-.4-.4-.3-.6.1-.3.4-.4.6-.3l2.8 1.1c.3.1.4.4.3.7l-.4.2zm-79.1-.6a.5.5 0 0 1-.5-.3c-.1-.3 0-.5.3-.6l2.8-1c.3-.1.5 0 .6.3s0 .5-.3.6l-2.9 1c.2 0 .1 0 0 0zm73.5-1.6h-.2l-2.8-1c-.3-.1-.4-.4-.3-.6.1-.3.4-.4.6-.3l2.9 1c.3.1.4.4.3.6-.1.2-.3.3-.5.3zm-67.8-.4a.5.5 0 0 1-.5-.3c-.1-.3.1-.5.3-.6l2.9-.9c.3-.1.5.1.6.3.1.3-.1.5-.3.6l-3 .9c.1 0 .1 0 0 0zM99 73.7l-3-.8c-.3-.1-.4-.3-.4-.6.1-.3.3-.4.6-.4l2.9.8c.3.1.4.4.3.6 0 .3-.2.4-.4.4zm-56.3-.3c-.2 0-.4-.1-.5-.4s.1-.5.4-.6l2.9-.7c.3-.1.5.1.6.4s-.1.5-.4.6l-3 .7zm50.5-1.2l-3-.6c-.3-.1-.4-.3-.4-.6.1-.3.3-.5.6-.4l2.9.6c.3.1.4.3.4.6-.1.2-.3.4-.5.4zM48.5 72c-.2 0-.4-.2-.5-.4-.1-.3.1-.5.4-.6l3-.6c.3 0 .5.1.6.4 0 .3-.1.5-.4.6l-2.9.6h-.2zm38.8-1c-.1 0-.1 0 0 0l-3-.5c-.3 0-.5-.3-.4-.6 0-.3.3-.5.6-.4l3 .4c.3 0 .5.3.4.6-.2.4-.4.5-.6.5zm-32.9-.1c-.2 0-.5-.2-.5-.4 0-.3.1-.5.4-.6l3-.4c.3 0 .5.2.6.4 0 .3-.2.5-.4.6l-3.1.4c.1 0 0 0 0 0zm26.9-.7l-3-.3c-.3 0-.5-.3-.5-.5s.3-.5.5-.5l3 .3c.3 0 .5.3.4.5.1.3-.1.5-.4.5zm-20.9 0c-.3 0-.5-.2-.5-.5s.2-.5.4-.5l3-.3c.3 0 .5.2.5.5s-.2.5-.5.5l-2.9.3zm14.9-.4l-3-.1c-.3 0-.5-.2-.5-.5s.2-.5.5-.5l3 .1c.3 0 .5.2.5.5s-.2.5-.5.5zm-8.9 0c-.3 0-.5-.2-.5-.5s.2-.5.5-.5l3-.1c.3 0 .5.2.5.5s-.2.5-.5.5l-3 .1zm59.8 11.4h-.2s-1.1-.4-2.8-1.3c-.2-.1-.3-.4-.2-.7.1-.2.4-.3.7-.2 1.6.9 2.7 1.3 2.7 1.3.3.1.4.4.3.7l-.5.2zm-5.3-2.8l-.3-.1-2.6-1.6c-.2-.2-.3-.5-.1-.7.2-.2.5-.3.7-.1l2.5 1.6c.2.1.3.4.2.7l-.4.2zm-5-3.3l-.3-.1-2.4-1.8a.6.6 0 0 1-.1-.7c.2-.2.5-.2.7-.1l2.4 1.8c.2.2.3.5.1.7l-.4.2zm-4.7-3.8l-.3-.1-2.2-2.1c-.2-.2-.2-.5 0-.7s.5-.2.7 0l2.2 2c.2.2.2.5 0 .7l-.4.2zm-4.3-4.2a.8.8 0 0 1-.4-.2 22 22 0 0 1-2-2.3c-.2-.2-.1-.5.1-.7.2-.2.5-.1.7.1l2 2.2c.2.2.2.5 0 .7l-.4.2zm-3.8-4.6l-.4-.2-1.8-2.5c-.2-.2-.1-.5.1-.7s.5-.1.7.1l1.7 2.4c.2.2.1.5-.1.7 0 .2-.1.2-.2.2zm-3.4-5l-.4-.2-1.5-2.6c-.1-.2 0-.5.2-.7.2-.1.5 0 .7.2l1.5 2.6c.1.2.1.5-.2.7h-.3zm-2.8-5.3a.5.5 0 0 1-.5-.3l-1.2-2.8c-.1-.3 0-.5.3-.6s.5 0 .6.3l1.2 2.7c.1.3 0 .5-.2.7h-.2zm-2.2-5.6a.5.5 0 0 1-.5-.3l-.9-2.9c-.1-.3.1-.5.3-.6.3-.1.5.1.6.3l.9 2.8c.1.3-.1.5-.3.6l-.1.1zm-1.6-5.7c-.2 0-.4-.2-.5-.4l-.3-1.3c-.1-.3.1-.5.4-.6s.5.1.6.4l.3 1.3c.1.3-.1.5-.5.6.1 0 .1 0 0 0z" fill="#3d7378"/><path d="M131 82.1s-.1 0 0 0c-.3 0-.5-.2-.5-.5 0 0 0-1.1.3-3 0-.3.3-.5.6-.4.3 0 .5.3.4.6l-.3 3c-.1.1-.3.3-.5.3zm.7-5.9c-.1 0-.1-.1 0 0-.4-.1-.5-.3-.5-.6l.6-3c.1-.3.3-.4.6-.4.3.1.4.3.4.6l-.6 2.9c-.1.3-.3.5-.5.5zm1.2-5.9h-.1c-.3-.1-.4-.3-.4-.6l.8-2.9c.1-.3.4-.4.6-.3.3.1.4.4.3.6l-.8 2.9c.1.1-.1.3-.4.3zm1.7-5.8h-.2c-.3-.1-.4-.4-.3-.6l1-2.8c.1-.3.4-.4.6-.3.3.1.4.4.3.6l-1 2.8c0 .2-.1.3-.4.3zm2.2-5.6h-.2c-.3-.1-.4-.4-.3-.7l1.3-2.7c.1-.2.4-.4.7-.2.2.1.4.4.2.7l-1.2 2.7-.5.2zm2.6-5.4l-.2-.1c-.2-.1-.3-.4-.2-.7l1.5-2.6c.1-.2.4-.3.7-.2s.3.4.2.7l-1.5 2.6c-.1.2-.3.3-.5.3zm3.1-5.1l-.3-.1c-.2-.2-.3-.5-.1-.7l1.7-2.5c.2-.2.5-.3.7-.1s.3.5.1.7l-1.7 2.5-.4.2zm3.5-4.9l-.3-.1c-.2-.2-.3-.5-.1-.7l1.9-2.3c.2-.2.5-.2.7 0s.2.5 0 .7l-1.9 2.3-.3.1zm4-4.5l-.3-.1a.5.5 0 0 1 0-.7l2.1-2.1c.2-.2.5-.2.7 0s.2.5 0 .7l-2.1 2.1-.4.1zm-8.2 55.4c-.3 0-.5-.2-.5-.5v-.3c0-.9-.1-1.7-.3-2.5-.1-.3.1-.5.4-.6.3-.1.5.1.6.4.2.8.3 1.8.3 2.7v.4c0 .2-.3.4-.5.4zm-1.7-5.6a.8.8 0 0 1-.4-.2 9 9 0 0 0-2.1-1.8c-.2-.1-.3-.4-.2-.7.1-.2.4-.3.7-.2 1 .5 1.8 1.2 2.5 2 .2.2.1.5-.1.7l-.4.2zm-5.1-2.9h-.1c-1.6-.3-2.8-.3-2.9-.3-.3 0-.5-.2-.5-.5s.2-.5.5-.5c0 0 1.4-.1 3.1.3.3.1.4.3.4.6-.1.2-.3.4-.5.4z" fill="#3d7378"/><path d="M129.7 61.7c-6.9 0-12.5 5.6-12.5 12.5s12.5 19.4 12.5 19.4 12.5-12.5 12.5-19.4c0-6.9-5.6-12.5-12.5-12.5m0 18.1c-2.8 0-5-2.2-5-5s2.2-5 5-5 5 2.2 5 5-2.2 5-5 5" fill="#3e423a"/><path fill="#ec2a3a" d="M269 61h19v13h-19z"/><path fill="#fff" d="M269 66h19v4h-19z"/><path d="M16 9h19v12H16z"/><path fill="#db1f26" d="M16 13h19v8H16z"/><path fill="#ffce06" d="M16 17h19v4H16z"/><path fill="#009247" d="M84 153h7v13h-7z"/><path fill="#fff" d="M91 153h6v13h-6z"/><path fill="#ce2a37" d="M97 153h7v13h-7z"/><path fill="#ed1f24" d="M0 104h15v14H0z"/><path fill="#fff" d="M3 110h9v2H3z"/><path fill="#fff" d="M6 106h3v9H6z"/><path fill="#ec2a3a" d="M163 95h19v13h-19z"/><path fill="#fff" d="M163 100h19v4h-19z"/><path d="M158 17h19v12h-19z"/><path fill="#db1f26" d="M158 21h19v8h-19z"/><path fill="#ffce06" d="M158 25h19v4h-19z"/><path d="M303.4 54.8L299 66h-1.3l-4.5-11.2h1.6l3.6 9.1 3.6-9.1h1.4zm1.7-.5h1.5v1.6h-1.5v-1.6zm0 3h1.4V66h-1.4v-8.7zm12.2 4.9h-7.4a3 3 0 0 0 3 2.7 3 3 0 0 0 2.7-1.5h1.4a4.3 4.3 0 0 1-4.1 2.8c-2.5 0-4.4-1.9-4.4-4.5s1.9-4.5 4.4-4.5c2.6 0 4.4 2 4.4 4.5v.5zm-7.3-1.3h6a3 3 0 0 0-3-2.5c-1.6 0-2.8 1-3 2.5zm17-.1V66h-1.4v-4.9c0-1.8-.8-2.7-2.3-2.7-1.5 0-2.6 1.3-2.6 2.9V66h-1.4v-8.6h1l.3 1.4c.7-1 1.8-1.5 3.1-1.5 2-.2 3.3 1.4 3.3 3.5zm10.3 0V66h-1.4v-4.9c0-1.8-.8-2.7-2.3-2.7-1.5 0-2.6 1.3-2.6 2.9V66h-1.4v-8.6h1l.3 1.4c.7-1 1.8-1.5 3.1-1.5 2-.2 3.3 1.4 3.3 3.5zm11-3.5V66h-1.1l-.1-1.3c-.8.9-2 1.5-3.4 1.5-2.6 0-4.5-1.9-4.5-4.5s1.9-4.5 4.5-4.5c1.4 0 2.6.6 3.4 1.5l.2-1.3h1zm-1.3 4.4c0-1.8-1.3-3.2-3.2-3.2-1.8 0-3.2 1.4-3.2 3.2s1.4 3.2 3.2 3.2c1.8-.1 3.2-1.4 3.2-3.2zm-48.5 16.1c0 1.5-1.1 2.5-2.6 2.5-1.4 0-2.5-1-2.6-2.4h.6c.1 1.1.9 1.8 2 1.8s2-.9 2-2-.9-2-2.1-2h-1.9l-.1-.1.4-3.5h3.8v.5h-3.3l-.3 2.5h1.5c1.5.2 2.6 1.3 2.6 2.7zm1.3-1.5c0-2.5 1.2-4.1 3-4.1s3 1.6 3 4.1c0 2.5-1.2 4.1-3 4.1-1.9 0-3-1.6-3-4.1zm5.4 0c0-2.2-.9-3.6-2.4-3.6s-2.4 1.3-2.4 3.6c0 2.2.9 3.6 2.4 3.6 1.4-.1 2.4-1.4 2.4-3.6zm2 0c0-2.5 1.2-4.1 3-4.1s3 1.6 3 4.1c0 2.5-1.2 4.1-3 4.1-1.9 0-3-1.6-3-4.1zm5.4 0c0-2.2-.9-3.6-2.4-3.6s-2.4 1.3-2.4 3.6c0 2.2.9 3.6 2.4 3.6 1.4-.1 2.4-1.4 2.4-3.6zm7.4.8h-1.1v3.1h-.6v-8.8h.6v5.1h1.1l2.4-2.8h.7l-2.6 3.1 2.8 3.4h-.7l-2.6-3.1zm13.8-1v4.1h-.6v-3.9c0-1.3-.7-2.1-1.7-2.1-1.2 0-2 1-2 2.3v3.7h-.6v-3.9c0-1.3-.7-2.1-1.7-2.1-1.2 0-2 1-2 2.3v3.7h-.6v-6.5h.4l.1 1.1c.4-.8 1.3-1.3 2.2-1.3 1 0 1.7.6 2 1.5.4-.9 1.3-1.5 2.3-1.5 1.4.1 2.2 1.2 2.2 2.6zM54 13.7L52.6 5l-3.9 8.5h-.4L44.5 5 43 13.7h-1.4l1.9-11.2h1.4l3.7 8.2 3.7-8.2h1.4l1.9 11.2H54zm11.6-3.8h-7.4a3 3 0 0 0 3 2.7 3 3 0 0 0 2.7-1.5h1.4a4.3 4.3 0 0 1-4.1 2.8c-2.5 0-4.4-1.9-4.4-4.5s1.9-4.5 4.4-4.5c2.6 0 4.4 2 4.4 4.5v.5zm-7.3-1.2h6a3 3 0 0 0-3-2.5c-1.6 0-2.8.9-3 2.5zm21.9-.5v5.5h-1.4V8.6c0-1.6-.7-2.5-2-2.5s-2.3 1.2-2.3 2.8v4.8h-1.3V8.6c0-1.6-.7-2.5-2-2.5s-2.3 1.2-2.3 2.8v4.8h-1.4V5.1h1l.2 1.2c.7-.9 1.7-1.4 2.8-1.4 1.2 0 2.2.6 2.6 1.6.6-1 1.7-1.6 2.9-1.6 2 0 3.2 1.3 3.2 3.3zm15.2 0v5.5H94V8.6c0-1.6-.7-2.5-2-2.5s-2.3 1.2-2.3 2.8v4.8h-1.3V8.6c0-1.6-.7-2.5-2-2.5s-2.3 1.2-2.3 2.8v4.8h-1.4V5.1h1l.2 1.2c.7-.9 1.7-1.4 2.8-1.4 1.2 0 2.2.6 2.6 1.6.6-1 1.7-1.6 2.9-1.6 2 0 3.2 1.3 3.2 3.3zM98 2h1.5v1.6H98V2zm.1 3.1h1.4v8.6h-1.4V5.1zm11.7 3.4v5.2h-1.4V8.8c0-1.8-.8-2.7-2.3-2.7-1.5 0-2.6 1.3-2.6 2.9v4.7h-1.4V5.1h1l.3 1.4c.7-1 1.8-1.5 3.1-1.5 2-.1 3.3 1.4 3.3 3.5zm10.7-3.4v7.4c0 2.8-1.6 4.5-4.2 4.5-2.1 0-3.6-1.1-4.1-2.9h1.4c.4 1.1 1.5 1.7 2.7 1.7 1.7 0 2.9-1.1 2.9-3.1v-.5c-.8.8-1.9 1.3-3.1 1.3-2.4 0-4.3-1.9-4.3-4.3s1.9-4.3 4.3-4.3c1.4 0 2.6.6 3.4 1.5l.2-1.3h.8zm-1.4 4.1c0-1.7-1.3-3-3-3s-3 1.3-3 3 1.3 3 3 3c1.8-.1 3-1.3 3-3zm12.2.7h-7.4a3 3 0 0 0 3 2.7 3 3 0 0 0 2.7-1.5h1.4a4.3 4.3 0 0 1-4.1 2.8c-2.5 0-4.4-1.9-4.4-4.5s1.9-4.5 4.4-4.5c2.6 0 4.4 2 4.4 4.5v.5zm-7.4-1.2h6c-.3-1.5-1.5-2.5-3-2.5s-2.7.9-3 2.5zm17.1-.2v5.2h-1.4V8.8c0-1.8-.8-2.7-2.3-2.7-1.5 0-2.6 1.3-2.6 2.9v4.7h-1.4V5.1h1l.3 1.4c.7-1 1.8-1.5 3.1-1.5 2-.1 3.3 1.4 3.3 3.5zM43.4 21.1v8h-.6v-7.4h-1.7v-.5h2.3zm4.7 2.9c1.5 0 2.7 1.1 2.7 2.6s-1.2 2.6-2.7 2.6c-1.6 0-2.8-1.1-2.8-2.6 0-.7.3-1.7.9-2.7l1.6-2.9h.6a35.3 35.3 0 0 0-1.9 3.6c.4-.4 1-.6 1.6-.6zm2.1 2.6c0-1.2-.9-2.1-2.2-2.1-1.2 0-2.2.9-2.2 2.1 0 1.2.9 2.1 2.2 2.1 1.3-.1 2.2-.9 2.2-2.1zm1.7-1.5c0-2.5 1.2-4.1 3-4.1s3 1.6 3 4.1c0 2.5-1.2 4.1-3 4.1-1.9 0-3-1.6-3-4.1zm5.4 0c0-2.2-.9-3.6-2.4-3.6s-2.4 1.3-2.4 3.6c0 2.2.9 3.6 2.4 3.6 1.5-.1 2.4-1.4 2.4-3.6zm7.5.9h-1.1v3.1H63v-8.8h.6v5.1h1.1l2.4-2.8h.7l-2.6 3.1 2.8 3.4h-.7L64.8 26zm13.8-1v4.1H78v-3.9c0-1.3-.7-2.1-1.7-2.1-1.2 0-2 1-2 2.3v3.7h-.6v-3.9c0-1.3-.7-2.1-1.7-2.1-1.2 0-2 1-2 2.3v3.7h-.6v-6.5h.4l.1 1.1c.4-.8 1.2-1.3 2.2-1.3 1 0 1.7.6 2 1.5.4-.9 1.3-1.5 2.3-1.5 1.3.1 2.2 1.1 2.2 2.6zm117.1-3.7l-1.5-8.8-3.9 8.5h-.3l-3.9-8.5-1.5 8.7h-1.4l1.9-11.2h1.4l3.7 8.2 3.7-8.2h1.4l1.9 11.2h-1.5zm3.4-3.6v-5h1.4v4.8c0 1.7.9 2.7 2.5 2.7 1.5 0 2.5-1.1 2.5-2.7v-4.8h1.4v5c0 2.3-1.5 3.8-3.8 3.8-2.5 0-4-1.5-4-3.8zm17.9-1.6v5.2h-1.4v-4.9c0-1.8-.8-2.7-2.3-2.7-1.5 0-2.6 1.3-2.6 2.9v4.7h-1.4v-8.6h1l.3 1.4c.7-1 1.8-1.5 3.1-1.5 2-.1 3.3 1.4 3.3 3.5zm2.5-6.5h1.5v1.6h-1.5V9.6zm.1 3.1h1.4v8.6h-1.4v-8.6zM223 17c0-2.6 1.9-4.5 4.5-4.5 2.1 0 3.7 1.2 4.2 3.1h-1.3a3.1 3.1 0 0 0-2.9-1.8 3 3 0 0 0-3.1 3.2 3 3 0 0 0 3.1 3.2 3 3 0 0 0 2.8-1.8h1.4a4.2 4.2 0 0 1-4.2 3.1A4.4 4.4 0 0 1 223 17zm18.3-.9v5.2h-1.4v-4.9c0-1.8-.8-2.7-2.3-2.7-1.5 0-2.6 1.3-2.6 2.9v4.7h-1.4V9.6h1.4v4.3c.7-.9 1.7-1.4 3-1.4 2 0 3.3 1.4 3.3 3.6zm-56.2 11.5v8h-.6v-7.4h-1.7v-.5h2.3zm6.9 5.6c0 1.5-1.1 2.5-2.6 2.5-1.4 0-2.5-1-2.5-2.4h.6c.1 1.1.9 1.8 2 1.8s2-.9 2-2-.9-2-2.1-2h-.7V31l2.2-2.9h-3.6v-.5h4.5v.2l-2.3 2.9c1.4 0 2.5 1.1 2.5 2.5zm1.3-1.6c0-2.5 1.2-4.1 3-4.1s3 1.6 3 4.1c0 2.5-1.2 4.1-3 4.1-1.9 0-3-1.6-3-4.1zm5.4 0c0-2.2-.9-3.6-2.4-3.6s-2.4 1.3-2.4 3.6c0 2.2.9 3.6 2.4 3.6s2.4-1.4 2.4-3.6zm7.5.9H205v3.1h-.6v-8.8h.6v5.1h1.1l2.4-2.8h.7l-2.6 3.1 2.8 3.4h-.7l-2.5-3.1zm13.8-1v4.1h-.6v-3.9c0-1.3-.7-2.1-1.7-2.1-1.2 0-2 1-2 2.3v3.7h-.7v-3.9c0-1.3-.7-2.1-1.7-2.1-1.2 0-2 1-2 2.3v3.7h-.6v-6.5h.4l.1 1.1c.4-.8 1.2-1.3 2.2-1.3 1 0 1.7.6 2 1.5.4-.9 1.3-1.5 2.3-1.5 1.4.1 2.3 1.1 2.3 2.6zM29.8 107.9v1.3h-8.2v-.2l5.8-9.6h-5.5v-1.3h7.8v.3l-5.8 9.6h5.9zm1.6-2.3v-5h1.4v4.8c0 1.7.9 2.7 2.5 2.7 1.5 0 2.5-1.1 2.5-2.7v-4.8h1.4v5c0 2.3-1.5 3.8-3.8 3.8-2.5 0-4-1.5-4-3.8zm15-5v1.3h-.9c-1.6 0-2.5 1-2.5 2.7v4.7h-1.4v-8.6h1l.2 1.3c.6-.9 1.5-1.4 2.8-1.4h.8zm1.4-3h1.5v1.6h-1.5v-1.6zm.1 3h1.4v8.6h-1.4v-8.6zm3.4 4.3c0-2.6 1.9-4.5 4.5-4.5 2.1 0 3.7 1.2 4.2 3.1h-1.3a3.1 3.1 0 0 0-2.9-1.8 3 3 0 0 0-3.1 3.2 3 3 0 0 0 3.1 3.2 3 3 0 0 0 2.8-1.8H60a4.2 4.2 0 0 1-4.2 3.1 4.4 4.4 0 0 1-4.5-4.5zm18.3-.8v5.2h-1.4v-4.9c0-1.8-.8-2.7-2.3-2.7-1.5 0-2.6 1.3-2.6 2.9v4.7h-1.4V97.5h1.4v4.3c.7-.9 1.7-1.4 3-1.4 2 0 3.3 1.4 3.3 3.7zM26.9 124v.5h-5.2v-.2c3.8-3.9 4.3-4.6 4.3-5.7 0-1-.7-1.6-1.7-1.6-1.1 0-1.8.7-1.8 1.6v.2h-.6v-.2c0-1.3 1-2.2 2.3-2.2 1.4 0 2.3.9 2.3 2.2 0 1.2-.4 2-3.7 5.4h4.1zm6-7.5v.1l-3.2 7.8H29l3.1-7.5h-4.4v-.5h5.2zm1 4c0-2.5 1.2-4.1 3-4.1s3 1.6 3 4.1c0 2.5-1.2 4.1-3 4.1-1.9.1-3-1.5-3-4.1zm5.4 0c0-2.2-.9-3.6-2.4-3.6s-2.4 1.3-2.4 3.6c0 2.2.9 3.6 2.4 3.6 1.4 0 2.4-1.3 2.4-3.6zm7.4.9h-1.1v3.1H45v-8.8h.6v5.1h1.1l2.4-2.8h.7l-2.6 3.1 2.8 3.4h-.7l-2.6-3.1zm13.9-1v4.1H60v-3.9c0-1.3-.7-2.1-1.7-2.1-1.2 0-2 1-2 2.3v3.7h-.6v-3.9c0-1.3-.7-2.1-1.7-2.1-1.2 0-2 1-2 2.3v3.7h-.6V118h.4l.1 1.1c.4-.8 1.2-1.3 2.2-1.3 1 0 1.7.6 2 1.5.4-.9 1.3-1.5 2.3-1.5 1.3.1 2.2 1.1 2.2 2.6zm58 34.2c0 1.7-1.5 3.1-3.4 3.1h-4.5v-11.2h4.4c1.8 0 3.2 1.2 3.2 2.9 0 1-.5 2-1.4 2.5 1.1.4 1.7 1.4 1.7 2.7zm-3.5-6.8h-3v3.4h3c1 0 1.7-.7 1.7-1.7.1-1-.7-1.7-1.7-1.7zm2.1 6.6c0-1.1-.8-1.9-2-1.9h-3.1v3.7h3.1c1.1.1 2-.7 2-1.8zm3-1.1c0-2.6 2-4.5 4.6-4.5 2.6 0 4.6 1.9 4.6 4.5s-2 4.5-4.6 4.5a4.4 4.4 0 0 1-4.6-4.5zm4.6 3.2a3 3 0 0 0 3.2-3.2c0-1.9-1.3-3.2-3.2-3.2s-3.2 1.3-3.2 3.2c0 1.9 1.4 3.2 3.2 3.2zm6.6-10.6h1.4v11.7h-1.4v-11.7zm10 10.5v1.3h-6.8v-.2l4.6-7.2h-4.3V149h6.5v.2l-4.6 7.1h4.6zm10.3-7.4v8.6h-1.1l-.1-1.3c-.8.9-2 1.5-3.4 1.5-2.6 0-4.5-1.9-4.5-4.5s1.9-4.5 4.5-4.5c1.4 0 2.6.6 3.4 1.5l.2-1.3h1zm-1.4 4.3c0-1.8-1.3-3.2-3.2-3.2-1.8 0-3.2 1.4-3.2 3.2s1.4 3.2 3.2 3.2a3 3 0 0 0 3.2-3.2zm11.8-.8v5.2h-1.4v-4.9c0-1.8-.8-2.7-2.3-2.7-1.5 0-2.6 1.3-2.6 2.9v4.7h-1.4V149h1l.3 1.4c.7-1 1.8-1.5 3.1-1.5 2-.1 3.3 1.5 3.3 3.6zm1.9.8c0-2.6 2-4.5 4.6-4.5 2.6 0 4.6 1.9 4.6 4.5s-2 4.5-4.6 4.5a4.4 4.4 0 0 1-4.6-4.5zm4.6 3.2a3 3 0 0 0 3.2-3.2c0-1.9-1.3-3.2-3.2-3.2s-3.2 1.3-3.2 3.2a3 3 0 0 0 3.2 3.2zm-56.8 7.8v8h-.6v-7.4h-1.7v-.5h2.3zm6.9 7.4v.5h-5.2v-.2c3.8-3.9 4.3-4.6 4.3-5.7 0-1-.7-1.6-1.7-1.6-1.1 0-1.8.7-1.8 1.6v.2h-.6v-.2c0-1.3 1-2.2 2.3-2.2 1.4 0 2.3.9 2.3 2.2 0 1.2-.4 2-3.7 5.4h4.1zm1.2-3.4c0-2.5 1.2-4.1 3-4.1s3 1.6 3 4.1c0 2.5-1.2 4.1-3 4.1-1.9 0-3-1.6-3-4.1zm5.4 0c0-2.2-.9-3.6-2.4-3.6s-2.4 1.3-2.4 3.6c0 2.2.9 3.6 2.4 3.6 1.4-.1 2.4-1.4 2.4-3.6zm7.4.8h-1.1v3.1h-.6v-8.8h.6v5.1h1.1l2.4-2.8h.7l-2.6 3.1 2.8 3.4h-.7l-2.6-3.1zm13.8-1v4.1h-.5v-3.9c0-1.3-.7-2.1-1.7-2.1-1.2 0-2 1-2 2.3v3.7h-.6v-3.9c0-1.3-.7-2.1-1.7-2.1-1.2 0-2 1-2 2.3v3.7h-.6v-6.5h.4l.1 1.1c.4-.8 1.2-1.3 2.2-1.3 1 0 1.7.6 2 1.5.4-.9 1.3-1.5 2.3-1.5 1.3.1 2.1 1.2 2.1 2.6zm43-79.5h1.4v11.2h-1.4V88.6zm12 6v5.2h-1.4v-4.9c0-1.8-.8-2.7-2.3-2.7-1.5 0-2.6 1.3-2.6 2.9v4.7h-1.4v-8.6h1l.3 1.4c.7-1 1.8-1.5 3.1-1.5 2-.2 3.3 1.4 3.3 3.5zm10.2 0v5.2h-1.4v-4.9c0-1.8-.8-2.7-2.3-2.7-1.5 0-2.6 1.3-2.6 2.9v4.7H204v-8.6h1l.3 1.4c.7-1 1.8-1.5 3.1-1.5 2.1-.2 3.3 1.4 3.3 3.5zm1.9 2.5h1.3c.1 1 1 1.6 2.2 1.6 1.2 0 2-.5 2-1.3 0-1-1.1-1.2-2.2-1.4-1.5-.3-3.1-.6-3.1-2.5 0-1.5 1.3-2.5 3.3-2.5 2 0 3.2 1 3.3 2.7H219c-.1-.9-.8-1.5-2-1.5s-1.9.5-1.9 1.2c0 .9 1 1.1 2.1 1.3 1.5.2 3.2.5 3.2 2.6 0 1.6-1.4 2.7-3.4 2.7-2-.1-3.3-1.2-3.4-2.9zm18-1.7c0 2.6-1.9 4.5-4.5 4.5-1.4 0-2.5-.5-3.3-1.4l-.2 1.2h-1.1V88h1.4v4.2c.8-.8 1.9-1.3 3.2-1.3 2.6 0 4.5 1.9 4.5 4.5zm-1.4 0c0-1.8-1.3-3.2-3.2-3.2a3.2 3.2 0 0 0-3.2 3.2c0 1.8 1.4 3.2 3.2 3.2 1.8 0 3.2-1.3 3.2-3.2zm8.1-4.3v1.3h-.9c-1.6 0-2.5 1-2.5 2.7v4.7h-1.4v-8.6h1l.2 1.3c.6-.9 1.5-1.4 2.8-1.4h.8zm1.4 5v-5h1.4v4.8c0 1.7.9 2.7 2.5 2.7 1.5 0 2.5-1.1 2.5-2.7v-4.8h1.4v5c0 2.3-1.5 3.8-3.8 3.8-2.5 0-4-1.5-4-3.8zm9.5-.7c0-2.6 1.9-4.5 4.5-4.5 2.1 0 3.7 1.2 4.2 3.1h-1.3a3.1 3.1 0 0 0-2.9-1.8 3 3 0 0 0-3.1 3.2 3 3 0 0 0 3.1 3.2 3 3 0 0 0 2.8-1.8h1.4a4.2 4.2 0 0 1-4.2 3.1 4.4 4.4 0 0 1-4.5-4.5zm13.4.5h-1.2v3.9H260V88h1.4v6.6h1.3l2.7-3.5h1.7l-3.2 4.1 3.5 4.5h-1.7l-3.1-3.8zm-69 15.4c0 1.5-1.1 2.5-2.6 2.5-1.4 0-2.5-1-2.5-2.4h.6c.1 1.1.9 1.8 2 1.8s2-.9 2-2-.9-2-2.1-2h-.7v-.2l2.2-2.9h-3.6v-.5h4.5v.2l-2.3 2.9c1.4.1 2.5 1.2 2.5 2.6zm1.3-1.6c0-2.5 1.2-4.1 3-4.1s3 1.6 3 4.1c0 2.5-1.2 4.1-3 4.1s-3-1.6-3-4.1zm5.4 0c0-2.2-.9-3.6-2.4-3.6s-2.4 1.3-2.4 3.6c0 2.2.9 3.6 2.4 3.6s2.4-1.4 2.4-3.6zm7.5.9h-1.1v3.1h-.6v-8.8h.6v5.1h1.1l2.4-2.8h.7l-2.6 3.1 2.8 3.4h-.7l-2.6-3.1zm13.8-1v4.1h-.6v-3.9c0-1.3-.7-2.1-1.7-2.1-1.2 0-2 1-2 2.3v3.7h-.6v-3.9c0-1.3-.7-2.1-1.7-2.1-1.2 0-2 1-2 2.3v3.7h-.6v-6.5h.4l.1 1.1c.4-.8 1.3-1.3 2.2-1.3 1 0 1.7.6 2 1.5.4-.9 1.3-1.5 2.3-1.5 1.3.1 2.2 1.1 2.2 2.6z" fill="#3d7378"/></svg>