<svg xmlns="http://www.w3.org/2000/svg" viewBox="0 0 70 84"><g fill="#3d7378"><path d="M10.9 83.5a1 1 0 0 1-1-.8L0 24.3a1 1 0 0 1 .8-1.1l58.4-10a1 1 0 0 1 1.1.9l10 58.4a1 1 0 0 1-.9 1L11 83.6zM2 25l9.6 56.5L68.2 72l-9.6-56.6z"/><path d="M19.4 71.5a1 1 0 0 1-1-.8l-5.5-32.5a1 1 0 1 1 1.9-.3l5.3 31.5 36-6-6-36L18 32.7a1 1 0 0 1-.3-2l33-5.5a1 1 0 0 1 1 .8l6.6 38a1 1 0 0 1-.7 1.1l-38 6.4z"/><path d="M45.8 61.8a1 1 0 0 1-1-.8l-.6-4a1 1 0 0 1 .8-1.2l7.9-1.3L42 36.4l-5 20.8 3-.5a1 1 0 1 1 .2 1.9l-4.3.7a1 1 0 0 1-1.1-1.2l5.9-24.5a1 1 0 0 1 1.8-.3l12.7 21.4a1 1 0 0 1 0 1 1 1 0 0 1-.7.5l-8.4 1.4.6 3.1a1 1 0 0 1-.8 1.1zm-18.1-14a6 6 0 0 1-1-11.7 6 6 0 0 1 1-.1 6 6 0 0 1 1 11.7 6 6 0 0 1-1 0zm0-9.9a4 4 0 0 0-.7.1 4 4 0 0 0 .7 7.9 4 4 0 0 0 0-8z"/><path d="M17.3 59.1a1 1 0 0 1-.7-1.6 21.7 21.7 0 0 1 11.8-6.3c7.8-1.5 9.1 1 9.3 1.5l-1.8.7c-.2-.4-2-1.3-7.1-.3A20 20 0 0 0 18 58.8a1 1 0 0 1-.7.3zm-10.5-35a1 1 0 0 1-.6-1.7L28.6 2.7a1 1 0 0 1 1-.1l25.2 10.7a1 1 0 0 1-.7 1.8L29.5 4.6l-22 19.3a1 1 0 0 1-.7.2z"/><circle cx="29.3" cy="3.5" r="3.5"/></g></svg>