<svg xmlns="http://www.w3.org/2000/svg" viewBox="0 0 90 91"><g fill="#3d7378"><path d="M40.6 44a1 1 0 0 1-.5-2c.2-.2 5.1-3 9.1-2a1 1 0 1 1-.5 2.1c-3.2-.8-7.5 1.7-7.6 1.7a1 1 0 0 1-.5.1z"/><path d="M46.9 53.4a1 1 0 0 1-.3 0 1 1 0 0 1-.7-1.3c1.3-4.3 3.7-22.8 4.1-26a7.7 7.7 0 0 0-4.7-1.7 5.5 5.5 0 0 0-4.5 1.6c3.9 8.4-1 25.6-1.2 26.4a1 1 0 1 1-2-.6c0-.2 5.1-18 1-25.5a1 1 0 0 1 0-1 7.3 7.3 0 0 1 7-3c4.5.3 6.3 2.7 6.4 2.8a1 1 0 0 1 .2.8c-.1.9-2.8 22-4.3 26.8a1 1 0 0 1-1 .7z"/><path d="M51.1 27.2a1 1 0 0 1-.5-2c.1 0 9-5 10.6-10.5a1 1 0 1 1 2 .6C61.5 21.7 52 26.9 51.6 27a1 1 0 0 1-.5.1zm-5.5-3.8c-1.5 0-5-4.8-5.2-7.8-.1-2.2 1.2-3.7 3.7-4a8.4 8.4 0 0 1 1.1-.1 3.7 3.7 0 0 1 3.7 2c1.4 2.9-1.1 7.9-2.4 9.5a1.1 1.1 0 0 1-.9.4zm-.4-9.8a6.4 6.4 0 0 0-.8 0c-1.7.3-1.8 1-1.9 1.3-.3 1.7 1.7 4.7 2.9 6 1.1-1.9 2.3-5 1.6-6.5-.1-.2-.4-.8-1.8-.8zM35.1 36.5a1 1 0 0 1-1.1-1c-.9-6.7 4.7-10.5 4.9-10.6a1 1 0 0 1 1.2 1.7c-.2.2-4.7 3.3-4 8.7a1 1 0 0 1-1 1.2z"/><path d="M64 0a2.3 2.3 0 0 0-2.1 1.7 1.6 1.6 0 0 0 0 .3 5.3 5.3 0 0 0-1.1-1l-8.4 4.7a5.5 5.5 0 0 0 .2 1.4 1.6 1.6 0 0 0-.3-.2 2.3 2.3 0 0 0-2.5 1c-.7 1-.2 2.7 1 4s3.5 2.3 5.3 1.3c.5-.3.7-.2.7-.2l.3.5a.7.7 0 0 0 .8.6.7.7 0 0 0 .2-.1.7.7 0 0 0 .3-.7 3.6 3.6 0 0 0 2.5.5c.8.2 2.8 3.5 1.8 4.5-1.1 1-1.1 1.6-.8 2.2l-.8.4 1.3 2.3 7.8-4.3-1.3-2.3-.7.4c-.3-.6-.8-1-2.3-.5-1.4.3-2.9-3-2.8-3.9a3.6 3.6 0 0 0 .9-2.4.7.7 0 0 0 .8.1.7.7 0 0 0 .1-.1.7.7 0 0 0 0-1l-.3-.5c0-.1 0-.3.6-.6 1.8-1 2.1-3.2 1.7-5S65.3 0 64 0zm-8.6 12c-1.1.6-2.6 0-3.5-1s-1.3-2-.9-2.5a1 1 0 0 1 .9-.3c.2.1.1.7.1.8a.7.7 0 1 0 1.3.2 3.5 3.5 0 0 0 .1-.5 16.1 16.1 0 0 0 2.7 3 3.5 3.5 0 0 0-.7.3zm10.2-8.6c.3 1.3 0 3-1.1 3.6a3.4 3.4 0 0 0-.6.4 16.1 16.1 0 0 0-1.1-3.9 3.4 3.4 0 0 0 .5.2.7.7 0 0 0 .5-1.2c-.1 0-.7-.3-.6-.5a1 1 0 0 1 .7-.6c.7 0 1.4.8 1.7 2zm9.8 11.8a1 1 0 0 1-.8-.3 43.4 43.4 0 0 0-4.5-3.8 1 1 0 0 1 1.3-1.7 45.3 45.3 0 0 1 4.7 4 1 1 0 0 1-.7 1.8zM86 31.7a1 1 0 0 1-1-.7 42.3 42.3 0 0 0-7-12.3 1 1 0 0 1 1.7-1.4 44.5 44.5 0 0 1 7.3 13 1 1 0 0 1-.6 1.3 1.1 1.1 0 0 1-.4 0z"/><path d="M74.2 79.5a1 1 0 0 1-.3 0 1 1 0 0 1-.7-.9 29.6 29.6 0 0 0-44.3-20.9 29.3 29.3 0 0 0-14 19.4 1 1 0 0 1-.7.8 1 1 0 0 1-1-.3 45.6 45.6 0 0 1-8.7-51.8A45.5 45.5 0 0 1 51.4 1.2a1 1 0 0 1-.3 2.2A43.3 43.3 0 0 0 6.5 26.8a43.5 43.5 0 0 0 6.8 48A31.9 31.9 0 0 1 53.6 53a32 32 0 0 1 21.3 23.4 43.6 43.6 0 0 0 11.5-41.1 1 1 0 0 1 2.1-.5 45.7 45.7 0 0 1-13.6 44.5 1 1 0 0 1-.7.3z"/><path d="M63.3 86.7a1 1 0 0 1-1-1.5 40.8 40.8 0 0 0 2.7-9.1 1 1 0 0 1 1.6-.8l6.2 3.9a1 1 0 0 1 .1 1.7 45 45 0 0 1-9.1 5.7 1 1 0 0 1-.5.1zm3.5-8.7a42.3 42.3 0 0 1-1.5 5.5 43 43 0 0 0 5.2-3.3z"/><path d="M72.3 81.2a1 1 0 0 1-.6-.2l-6.2-3.9a1 1 0 0 1-.5-1c1.3-8.5-.7-15.3-5.5-18.2a1 1 0 0 1 1.1-1.9 31.7 31.7 0 0 1 14.7 22.3 1 1 0 0 1-.4 1l-2 1.6a1 1 0 0 1-.6.3zm-5-5.5l5 3.1.8-.7a29.6 29.6 0 0 0-6.6-14.3 26.4 26.4 0 0 1 .7 12z"/><path d="M28.1 74.3a1 1 0 0 1-.5-.2l-10.3-6.4a1 1 0 0 1-.4-1.4 31.5 31.5 0 0 1 14.4-12.4A31.7 31.7 0 0 1 60.6 56a1 1 0 0 1-.5 2 1.1 1.1 0 0 1-.6-.2l-.6-.3a11.4 11.4 0 0 0-5.4-1.3c-4 0-8.3 1.6-12.7 4.7v.1A44.5 44.5 0 0 0 29 73.8a1 1 0 0 1-.7.4zm-8.8-7.8l8.5 5.2a47 47 0 0 1 10.4-11.5l-6.6-4.1a29.4 29.4 0 0 0-12.3 10.4zM34 55l6 3.8a26.3 26.3 0 0 1 11-4.6 29.6 29.6 0 0 0-17 .8z"/><path d="M23.1 85a1 1 0 0 1-.5-.1 45.1 45.1 0 0 1-9.5-7.3 1 1 0 0 1-.3-1A31.6 31.6 0 0 1 17 66.2a1 1 0 0 1 1.4-.3l10.3 6.4a1 1 0 0 1 .3 1.5 47.1 47.1 0 0 0-4.9 10.5 1 1 0 0 1-.6.6 1 1 0 0 1-.4.1zM15 76.5a43.2 43.2 0 0 0 7.5 5.9 49.5 49.5 0 0 1 4.2-8.8l-8.5-5.3a29.5 29.5 0 0 0-3.2 8.2zm51 .8a1 1 0 0 1-.5-.2L52 68.7a1 1 0 0 1-.3-1.5l7-11.2a1 1 0 0 1 1.4-.3l.7.4c5.5 3.4 8 11 6.5 20.3a1 1 0 0 1-.7.8 1 1 0 0 1-.4.1zm-12-9.9l11.2 7c.9-7.5-1.1-13.6-5.4-16.4z"/><path d="M39 90.4a44.5 44.5 0 0 1-16.4-5.5 1 1 0 0 1-.5-1.3 49.2 49.2 0 0 1 5.1-11 1 1 0 0 1 1.5-.3l15.1 9.4a1 1 0 0 1 .3 1.4L40 90a1 1 0 0 1-1 .5zm-14.6-7a42.3 42.3 0 0 0 14.1 4.8l3.3-5.3-13.3-8.2a47.1 47.1 0 0 0-4.1 8.7z"/><path d="M43.3 83.7a1 1 0 0 1-.6-.2l-15.1-9.4a1 1 0 0 1-.4-1.5c7-11.2 17.3-18.5 26.3-18.5a13.5 13.5 0 0 1 6.4 1.5 1 1 0 0 1 .6.7 1 1 0 0 1-.2.8l-7 11.2-9.1 14.9a1 1 0 0 1-1 .5zM29.6 72.9L42.9 81l8.1-13-4.7-2.9a1 1 0 0 1-.5-.9 1 1 0 0 1 .2-.5 1 1 0 0 1 1.4-.4l4.7 3L58 57a11.8 11.8 0 0 0-4.4-.8c-7.9 0-17.4 6.7-23.9 16.7z"/><path d="M53.4 90a1 1 0 0 1-.6-.2l-10.1-6.3a1 1 0 0 1-.4-1.5l9.3-14.8a1 1 0 0 1 1.4-.3l13.6 8.4a1 1 0 0 1 .5 1.1 43 43 0 0 1-2.8 9.7 1 1 0 0 1-.5.5A44.7 44.7 0 0 1 53.6 90zm-8.7-7.7l8.9 5.5a42.4 42.4 0 0 0 9-2.9 41.2 41.2 0 0 0 2.3-8l-12.1-7.7z"/><path d="M44.9 90.8a45.6 45.6 0 0 1-6-.4 1 1 0 0 1-.8-1.6l4.3-6.8a1 1 0 0 1 1.4-.3L54 88a1 1 0 0 1-.4 2 45.3 45.3 0 0 1-8.7.8zm-4-2.3a42.1 42.1 0 0 0 9.6-.2l-6.9-4.2z"/></g></svg>