<svg xmlns="http://www.w3.org/2000/svg" viewBox="0 0 106 87"><title>svg-icon-3</title><g fill="#3d7378"><path d="M59.63 85.52a1.06 1.06 0 0 1-.15-2.12 40 40 0 0 0 34.26-39.47c0-13.15-4.88-23.5-14.51-30.77a1.06 1.06 0 1 1 1.28-1.7c10 7.58 15.36 18.81 15.36 32.47a42.15 42.15 0 0 1-36.09 41.58z"/><path d="M96 47.34a1.06 1.06 0 0 1-1-.86c-.06-.28-1.33-6.94 1.1-12a12.89 12.89 0 0 1 8-6.53 1 1 0 0 1 .82.14 1.06 1.06 0 0 1 .47.69c.06.28 1.33 6.94-1.1 12a12.9 12.9 0 0 1-8 6.53zm7.48-16.89a10.59 10.59 0 0 0-5.51 5c-1.55 3.2-1.34 7.38-1.11 9.41a10.59 10.59 0 0 0 5.51-5c1.51-3.22 1.3-7.38 1.06-9.41zm-10.77 18.4a10.91 10.91 0 0 1-8.38-3.69c-3.35-4.07-3.41-11-3.41-11.25a1.06 1.06 0 0 1 .95-1.06 7.44 7.44 0 0 1 .8 0A10.91 10.91 0 0 1 91 36.5c3.35 4.07 3.41 11 3.41 11.25a1.06 1.06 0 0 1-.95 1.06 7.62 7.62 0 0 1-.75.04zm-9.61-13.9c.15 2 .71 6.23 2.88 8.85a8.62 8.62 0 0 0 6.31 2.91c-.15-2-.71-6.23-2.87-8.86a8.62 8.62 0 0 0-6.33-2.9zm7.63 36.73a13 13 0 0 1-4.12-.68 1.06 1.06 0 0 1-.62-1.4c.11-.26 2.72-6.52 7.52-9.38a11.94 11.94 0 0 1 6.19-1.65 13.08 13.08 0 0 1 4.13.64 1.07 1.07 0 0 1 .62 1.4c-.11.26-2.71 6.53-7.52 9.38a11.93 11.93 0 0 1-6.2 1.69zm-2.25-2.35a11.76 11.76 0 0 0 2.25.22 9.84 9.84 0 0 0 5.1-1.35c3.07-1.82 5.19-5.42 6.11-7.24a11.83 11.83 0 0 0-2.25-.22 9.82 9.82 0 0 0-5.1 1.35c-3.07 1.83-5.19 5.42-6.11 7.24z"/><path d="M85.7 70.23a1.06 1.06 0 0 1-.54-.15c-.2-.12-4.89-3-5.13-8.45-.23-5.27 3.87-10.81 4-11a1.07 1.07 0 0 1 1.4-.28c.2.12 4.89 3 5.13 8.45.23 5.27-3.87 10.8-4 11a1.06 1.06 0 0 1-.86.43zm-.52-17.49c-1.06 1.66-3.18 5.4-3 8.8a8.61 8.61 0 0 0 3.29 6.12c1.07-1.66 3.18-5.4 3-8.8a8.59 8.59 0 0 0-3.28-6.12zm-8.47 34.03a13.1 13.1 0 0 1-8.5-3.36 1.07 1.07 0 0 1 0-1.53c.21-.2 5.14-4.85 10.69-5.5a11.4 11.4 0 0 1 1.33-.08 13.1 13.1 0 0 1 8.5 3.36 1.08 1.08 0 0 1 .32.77 1.06 1.06 0 0 1-.33.76c-.21.2-5.14 4.85-10.69 5.5a11.46 11.46 0 0 1-1.32.08zm-6.09-4.16a10.85 10.85 0 0 0 6.09 2 9.66 9.66 0 0 0 1.08-.06c3.53-.41 6.94-2.84 8.53-4.12a10.85 10.85 0 0 0-6.09-2 9.59 9.59 0 0 0-1.09.06c-3.53.41-6.93 2.83-8.51 4.12z"/><path d="M68.15 82.39a1.07 1.07 0 0 1-.87-.45c-.13-.19-3.25-4.72-1.24-9.8 1.96-4.91 7.96-8.3 8.2-8.44a1.06 1.06 0 0 1 1.39.32c.14.19 3.26 4.72 1.24 9.8-1.94 4.91-7.94 8.29-8.2 8.43a1.07 1.07 0 0 1-.52.14zm6.22-16.27c-1.65 1.08-5.11 3.63-6.35 6.8a8.62 8.62 0 0 0 .51 6.93c1.65-1.08 5.11-3.64 6.36-6.8a8.67 8.67 0 0 0-.51-6.93zm16.16-40.6a1.06 1.06 0 0 1-.82-.39c-.19-.23-4.62-5.66-4.64-11.27 0-5.76 4.54-9.28 4.74-9.43a1.07 1.07 0 0 1 1.46.17c.19.23 4.62 5.66 4.64 11.27 0 5.76-4.55 9.28-4.74 9.43a1.06 1.06 0 0 1-.64.22zm-.24-18.66a10.2 10.2 0 0 0-3.1 7c0 3.64 2.31 7.36 3.48 9a10.21 10.21 0 0 0 3.1-7c-.01-3.61-2.31-7.34-3.48-9zm-11.68 6.28c-2.48 0-7.16-.35-10.55-2.71-4.73-3.28-5-9-5-9.29A1.06 1.06 0 0 1 64 0h1.34c2.49 0 7.16.35 10.55 2.71 4.73 3.28 5 9 5 9.29a1.07 1.07 0 0 1-1 1.1s-.47.04-1.28.04zm-13.28-11a10.2 10.2 0 0 0 3.95 6.55c3.04 2.11 7.6 2.31 9.38 2.31a10.22 10.22 0 0 0-3.95-6.55c-3-2.1-7.54-2.33-9.34-2.33z"/><path d="M81.57 28.77a10.71 10.71 0 0 1-1.38-.09c-5.58-.71-10.43-5.76-10.63-6a1.06 1.06 0 0 1 0-1.48c.17-.17 4.25-4.26 10-3.52 5.52.71 11.44 5.72 11.68 5.94a1.06 1.06 0 0 1-1.38 1.62c-.06 0-5.68-4.82-10.57-5.44a10.3 10.3 0 0 0-7.38 2.2c1.52 1.37 4.94 4.09 8.54 4.55a9.28 9.28 0 0 0 5-.8 1.06 1.06 0 0 1 .87 1.94 11.64 11.64 0 0 1-4.75 1.08zM46.1 85.52H46A42.15 42.15 0 0 1 9.87 43.93c0-13.65 5.31-24.88 15.36-32.47a1.06 1.06 0 1 1 1.28 1.7C16.88 20.43 12 30.79 12 43.93A40 40 0 0 0 46.25 83.4a1.06 1.06 0 0 1-.15 2.12z"/><path d="M9.78 47.34h-.24a12.9 12.9 0 0 1-8-6.53c-2.43-5-1.16-11.69-1.1-12a1.06 1.06 0 0 1 .47-.69 1 1 0 0 1 .76-.12 12.89 12.89 0 0 1 8 6.53c2.43 5 1.15 11.68 1.1 12a1.07 1.07 0 0 1-1 .86zM2.3 30.44c-.23 2-.45 6.21 1.1 9.41a10.6 10.6 0 0 0 5.51 5c.23-2 .45-6.21-1.1-9.41a10.53 10.53 0 0 0-5.51-5zM13 48.85a7.62 7.62 0 0 1-.8 0 1.06 1.06 0 0 1-.95-1.06c0-.29.06-7.18 3.41-11.25a10.91 10.91 0 0 1 8.38-3.69 7.49 7.49 0 0 1 .8 0 1.07 1.07 0 0 1 1 1.06c0 .29-.06 7.18-3.41 11.25A10.9 10.9 0 0 1 13 48.85zm9.61-13.9a8.62 8.62 0 0 0-6.31 2.91c-2.17 2.63-2.73 6.89-2.88 8.86a8.63 8.63 0 0 0 6.31-2.91c2.2-2.63 2.76-6.9 2.91-8.86zM15 71.68A11.93 11.93 0 0 1 8.81 70C4 67.18 1.4 60.92 1.29 60.66a1.07 1.07 0 0 1 .62-1.4A13.07 13.07 0 0 1 6 58.61a12 12 0 0 1 6.19 1.65c4.8 2.85 7.41 9.11 7.52 9.38a1.07 1.07 0 0 1-.62 1.4 13 13 0 0 1-4.09.64zM3.79 61c.93 1.82 3.05 5.43 6.11 7.24a9.84 9.84 0 0 0 5.1 1.31 11.78 11.78 0 0 0 2.25-.22c-.93-1.82-3-5.42-6.11-7.24A9.83 9.83 0 0 0 6 60.74a11.78 11.78 0 0 0-2.21.26z"/><path d="M20 70.23a1.06 1.06 0 0 1-.85-.42c-.17-.24-4.28-5.77-4-11 .23-5.46 4.93-8.33 5.13-8.45a1.07 1.07 0 0 1 1.4.28c.17.23 4.28 5.77 4 11-.24 5.46-4.93 8.33-5.13 8.45a1 1 0 0 1-.55.14zm.52-17.49a8.65 8.65 0 0 0-3.29 6.11c-.15 3.4 2 7.14 3 8.8a8.67 8.67 0 0 0 3.29-6.12c.2-3.39-1.91-7.13-2.98-8.79zM29 86.77a11.49 11.49 0 0 1-1.33-.08c-5.53-.69-10.46-5.3-10.67-5.5a1.06 1.06 0 0 1 0-1.53 13.08 13.08 0 0 1 8.5-3.36 11.42 11.42 0 0 1 1.33.08c5.55.65 10.48 5.3 10.69 5.5a1.07 1.07 0 0 1 0 1.53A13.09 13.09 0 0 1 29 86.77zm-9.6-6.32c1.59 1.29 5 3.71 8.53 4.13a9.64 9.64 0 0 0 1.08.06 10.8 10.8 0 0 0 6.09-2c-1.59-1.29-5-3.71-8.53-4.13a9.59 9.59 0 0 0-1.08-.06 10.8 10.8 0 0 0-6.09 2z"/><path d="M37.57 82.39a1.05 1.05 0 0 1-.52-.13c-.25-.14-6.25-3.52-8.2-8.43-2-5.08 1.11-9.61 1.25-9.8a1.06 1.06 0 0 1 1.39-.32c.26.14 6.26 3.52 8.2 8.43 2 5.08-1.11 9.61-1.24 9.8a1.06 1.06 0 0 1-.88.45zm-6.21-16.27a8.66 8.66 0 0 0-.52 6.88c1.25 3.16 4.71 5.72 6.35 6.8a8.66 8.66 0 0 0 .51-6.92c-1.24-3.13-4.7-5.69-6.34-6.76zm-16.15-40.6a1.06 1.06 0 0 1-.64-.21c-.2-.15-4.76-3.67-4.74-9.43 0-5.61 4.45-11 4.64-11.27a1.07 1.07 0 0 1 1.46-.17c.19.15 4.76 3.67 4.74 9.43 0 5.61-4.45 11-4.64 11.27a1.06 1.06 0 0 1-.82.38zm.24-18.66c-1.17 1.67-3.47 5.4-3.49 9a10.2 10.2 0 0 0 3.1 7c1.17-1.67 3.47-5.4 3.49-9a10.15 10.15 0 0 0-3.11-7zm11.67 6.28h-1.34a1.07 1.07 0 0 1-1-1.1c0-.24.27-6 5-9.29C33.19.35 37.87 0 40.36 0h1.34a1.06 1.06 0 0 1 1 1.1c0 .24-.27 6-5 9.29-3.42 2.4-8.09 2.75-10.58 2.75zM27.07 11h.05c1.8 0 6.31-.23 9.34-2.33a10.2 10.2 0 0 0 3.95-6.55c-1.76 0-6.34.21-9.39 2.33A10.21 10.21 0 0 0 27.07 11z"/><path d="M24 28.82a13.12 13.12 0 0 1-8.38-3.35 1.06 1.06 0 0 1-.04-1.47c.2-.22 4.9-5.41 10.46-6.29a10.84 10.84 0 0 1 1.69-.13 13.12 13.12 0 0 1 8.39 3.36 1.07 1.07 0 0 1 .05 1.48c-.2.22-4.9 5.41-10.45 6.29a10.83 10.83 0 0 1-1.72.11zm-6-4.21a10.76 10.76 0 0 0 6 2.08 8.51 8.51 0 0 0 1.35-.11c3.59-.57 6.93-3.39 8.41-4.8a10.77 10.77 0 0 0-6.06-2.09 8.5 8.5 0 0 0-1.35.11c-3.58.57-6.92 3.4-8.35 4.81zm45.46 40.34h-26.6a1.06 1.06 0 0 1 0-2.13h4.74l5-30.47-6.17 3.85a1.06 1.06 0 1 1-1.12-1.81L64.9 18.5a1.07 1.07 0 0 1 1.61 1.08l-7.43 43.24h4.38a1.06 1.06 0 1 1 0 2.13zm-19.71-2.13h13.17L64 21.56l-15 9.3z"/></g></svg>