<svg xmlns="http://www.w3.org/2000/svg" viewBox="0 0 81.7 73.9"><path d="M19.6 32.8l3.9-2.2 3.9 2.2V26l-3.9 2.3-3.9-2.3zm3.9-9.8a11.5 11.5 0 1 0 0-23 11.5 11.5 0 0 0 0 23zm0-18.5a7 7 0 0 1 7 7 7 7 0 0 1-7 7 7 7 0 0 1-7-7 7 7 0 0 1 7-7zM61.6 34c7.8 0 14.2-6.4 14.2-14.2 0-7.8-6.4-14.2-14.2-14.2-7.8 0-14.2 6.4-14.2 14.2 0 7.8 6.4 14.2 14.2 14.2zm0-24a9.7 9.7 0 1 1 0 19.4 9.7 9.7 0 0 1 0-19.4z" fill="#3d7378"/><path d="M67.2 22l-3.7-3.2v-5.3h-4.4v7.3l5.1 4.5zM31.1 43.9l10.3-17.8h-5.5L25.6 43.9h-4.2L11.1 26.1H5.6l10.3 17.8H0v4.5h3.5v25.5h74.7V48.4h3.5v-4.5H31.1zM8 69.4V52.7l13 16.7H8zm18.6-.1L10.4 48.5h60.9l-17 20.8H26.6zm47.1.1H60l13.8-16.9v16.9z" fill="#3d7378"/></svg>