<svg xmlns="http://www.w3.org/2000/svg" viewBox="0 0 87.1 74.3"><path d="M34.4 29a8.03 8.03 0 0 1 0-11.3 12.5 12.5 0 0 0 0-17.7l-3.2 3.2c3.1 3.1 3.1 8.2 0 11.3a12.5 12.5 0 0 0 0 17.7l3.2-3.2zm11.5 0a8.03 8.03 0 0 1 0-11.3 12.5 12.5 0 0 0 0-17.7l-3.2 3.2c3.1 3.1 3.1 8.2 0 11.3a12.5 12.5 0 0 0 0 17.7l3.2-3.2zm11.5 0a8.03 8.03 0 0 1 0-11.3 12.5 12.5 0 0 0 0-17.7l-3.2 3.2c3.1 3.1 3.1 8.2 0 11.3a12.5 12.5 0 0 0 0 17.7l3.2-3.2zM59 69.8c8.5-5 14.2-14.3 14.2-24.8v-2.3H15.4V45c0 1 .1 2 .2 3-.8-.2-1.6-.4-2.5-.4-4.9 0-8.9 4-8.9 8.9a8.92 8.92 0 0 0 16.4 4.8c2.4 3.4 5.5 6.3 9.1 8.5H0v4.5h87.1v-4.5H59zm-46-8.9c-2.4 0-4.4-2-4.4-4.4 0-2.4 2-4.4 4.4-4.4s4.4 2 4.4 4.4c0 2.4-2 4.4-4.4 4.4zm7-13.7h48.6C67.4 59.6 57 69.4 44.3 69.4S21.1 59.6 20 47.2z" fill="#3d7378"/></svg>