<svg xmlns="http://www.w3.org/2000/svg" viewBox="0 0 91 75"><g fill="#3d7378"><path d="M45.6 40.6C23.5 40.6 0 46.7 0 57.8 0 69 23.5 75.1 45.6 75.1s45.6-6 45.6-17.2c.1-11.2-23.4-17.3-45.6-17.3zm0 29.9c-23.5 0-41.1-6.7-41.1-12.7 0-6 17.6-12.7 41.1-12.7s41.1 6.7 41.1 12.7c.1 6-17.5 12.7-41.1 12.7z"/><path d="M45.6 49.4c-2.9 0-28.2.2-28.2 8.4 0 8.2 25.3 8.4 28.2 8.4 2.9 0 28.2-.2 28.2-8.4 0-8.1-25.3-8.4-28.2-8.4zm0 12.3c-13.3 0-21.8-2.4-23.5-3.9 1.7-1.5 10.2-3.9 23.5-3.9s21.8 2.4 23.5 3.9c-1.7 1.6-10.2 3.9-23.5 3.9zm-.1-27.3c3.6 0 7.3-1.4 10.1-4.2a14.1 14.1 0 0 0 0-20.1L45.5 0 35.4 10.1a14.1 14.1 0 0 0 0 20.1c2.8 2.8 6.4 4.2 10.1 4.2zm-6.9-21.1l6.9-6.9 6.9 6.9a9.8 9.8 0 0 1-13.8 13.8 9.8 9.8 0 0 1 0-13.8z"/><path d="M43.7 21.9c-.5-.5-.7-1.1-.7-1.8s.3-1.3.7-1.8l-3.2-3.2c-1.3 1.3-2.1 3.1-2.1 5s.7 3.6 2.1 5l3.2-3.2z"/></g></svg>