<svg xmlns="http://www.w3.org/2000/svg" viewBox="0 0 85 69"><g fill="#3d7378"><path d="M61.1 52.3a12 12 0 0 1-11.7-8.9c-.5-1.6-7.6-27.2-5.9-31a1.2 1.2 0 0 1 2.1 1c-1 2.4 4.3 24 6 29.3C54 49.5 60 50.9 65 49.3s9.1-6.4 6.9-13.2C70.1 30.8 61.7 10.3 59.5 9a1.2 1.2 0 0 1-.5-1.6 1.2 1.2 0 0 1 1.6-.5c3.6 2 13 26.8 13.5 28.5 2.4 7.1-1.1 13.7-8.4 16.1a14.8 14.8 0 0 1-4.6.8z"/><path d="M46 14.6c-.5 0-2.2 0-2.6-1.3s1-2.4 2.5-3.2a31 31 0 0 1 5.5-2.4 26 26 0 0 1 7.2-1.4c.5 0 2.1 0 2.6 1.3S60 10 58.7 10.8a31 31 0 0 1-5.5 2.4l-1 .3a23.7 23.7 0 0 1-6.2 1.1zm11.7-6a28.4 28.4 0 0 0-5.5 1.4 28 28 0 0 0-5.3 2.2 26 26 0 0 0 4.5-1l1-.3a27.8 27.8 0 0 0 5.3-2.2zm1 60.5c-2.8 0-4.5-.7-5-2.1-1.3-4 9.5-8.3 11.7-9a1.2 1.2 0 0 1 .8 2.1c-7 2.6-10.1 5.3-10.2 6.2.7.8 6 .9 14-1.7s12.2-5.9 12.3-6.9c-.6-.6-4.7-1-11.9 1a1.2 1.2 0 1 1-.6-2.3c2.2-.6 13.4-3.5 14.7.5.5 1.6-.7 3.4-3.8 5.4a45.1 45.1 0 0 1-10 4.5A45.1 45.1 0 0 1 60 69h-1.2z"/><path d="M66 63.3a1.2 1.2 0 0 1-1.1-1.2 21.4 21.4 0 0 0-1.2-6.9 26.5 26.5 0 0 0-1.6-3.7 1.2 1.2 0 1 1 2.1-1 29 29 0 0 1 1.7 4 23.8 23.8 0 0 1 1.3 7.7 1.2 1.2 0 0 1-1.2 1.1zm5.8-1.8a1.2 1.2 0 0 1-1-.5 23.4 23.4 0 0 1-3.4-7 29 29 0 0 1-1.1-4.3 1.2 1.2 0 0 1 2.3-.3 26.6 26.6 0 0 0 1 3.9 21.4 21.4 0 0 0 3.1 6.3 1.2 1.2 0 0 1-1 1.8zm-13-27.6C54 34 46 33.5 46 30.7s7.9-3.3 12.6-3.3 12.7.4 12.7 3.3-8 3.2-12.6 3.2zm-9.4-3.2a38 38 0 0 0 9.4.9 38 38 0 0 0 9.4-1 37.8 37.8 0 0 0-9.4-.9 37.8 37.8 0 0 0-9.4 1z"/><circle cx="56" cy="40.6" r="2.5"/><path d="M23.5 46a14.9 14.9 0 0 1-4.6-.8c-7.3-2.3-10.7-9-8.4-16.1C11 27.4 20.4 2.6 24 .6a1.2 1.2 0 1 1 1.1 2C23 4 14.5 24.6 12.7 29.9c-2.2 6.8 1.9 11.5 7 13.2s11 .2 13.3-6.6c1.7-5.3 7-26.9 6-29.2a1.2 1.2 0 0 1 .6-1.6 1.2 1.2 0 0 1 1.5.6c1.8 3.7-5.3 29.3-5.9 31A12.1 12.1 0 0 1 23.5 46z"/><path d="M38.6 8.3a23.7 23.7 0 0 1-6.1-1.1l-1-.3c-3.4-1.1-8.8-3.3-8-5.6C23.8 0 25.4 0 26 0a26 26 0 0 1 7.2 1.4 31 31 0 0 1 5.5 2.4c1.4.8 2.9 1.9 2.4 3.3s-2 1.2-2.5 1.2zm-11.7-6a27.8 27.8 0 0 0 5.3 2.3l1 .4a26 26 0 0 0 4.5 1 27.8 27.8 0 0 0-5.3-2.3A28.3 28.3 0 0 0 27 2.4zm-1 60.5a43.5 43.5 0 0 1-12-2.3 45.1 45.1 0 0 1-10-4.5c-3-2-4.3-3.7-3.8-5.3 1.3-4 12.5-1.1 14.7-.5a1.2 1.2 0 0 1-.6 2.3c-7.4-2.1-11.4-1.7-11.9-1 .1 1 4.3 4.2 12.3 6.8s13.3 2.5 14 1.7c0-.8-3.1-3.5-10.2-6.1a1.2 1.2 0 0 1 .9-2.2c2.1.8 12.9 5 11.5 9-.5 1.5-2.4 2.1-5 2.1z"/><path d="M18.6 57a1.2 1.2 0 0 1-1.2-1.1 23.6 23.6 0 0 1 1.3-7.7 29.1 29.1 0 0 1 1.7-4 1.2 1.2 0 0 1 2 1 26.2 26.2 0 0 0-1.4 3.7 21.3 21.3 0 0 0-1.2 7 1.2 1.2 0 0 1-1.2 1.1zm-5.8-1.8a1.2 1.2 0 0 1-.9-2A21.4 21.4 0 0 0 15 47a26.4 26.4 0 0 0 1-4 1.2 1.2 0 1 1 2.3.5 29 29 0 0 1-1 4.2 23.4 23.4 0 0 1-3.5 7 1.2 1.2 0 0 1-1 .5zm13.5-29.5c-4.7 0-12.7-.5-12.7-3.3s8-3.3 12.7-3.3 12.7.5 12.7 3.3-8 3.3-12.7 3.3zM17 22.4a38 38 0 0 0 9.4 1 38 38 0 0 0 9.4-1 38 38 0 0 0-9.4-1 38 38 0 0 0-9.4 1z"/><circle cx="21" cy="32.3" r="1.7"/><circle cx="30.8" cy="29" r="2.5"/><circle cx="61.2" cy="46.8" r="1.4"/></g></svg>