<svg xmlns="http://www.w3.org/2000/svg" viewBox="0 0 1466 758"><title>trees</title><g fill="#fff" fill-rule="evenodd"><path d="M1.82 0A.6.6 0 0 1 .64 0H.05A.45.45 0 0 1 0 .37v5.11C1.53 4.2 1.31 2.71 2.4 0zM3 .59h1.17v1.18H3zm16.47 23.54c-2.05-2.76 3-2.37 0 0zm1403.46 140.68c1.6-.43 1.18 1.16 2.35 1.17-.18.8-1.48.49-2.35.59zm-50.63 25.31c.19 1.55-1.23 1.51-2.35 1.75-.18-1.55 1.22-1.51 2.35-1.75zm-75.3 14.13c-.25 1.12-.21 2.52-1.77 2.35.2-1.13.17-2.54 1.77-2.35zm27.61 27.06c1.15-.23.86 2.68-.58 1.77v-1.17c.5.09.56-.23.58-.6zM1125 293.7c1.61.88 3.38-.72 4.13 1.77-1.75-.18-3.98.09-4.13-1.77zm-688.73 54.15c.73-1.91-1.91-.44-1.18-2.35 1.1-.57 2 1.76 2.36 0 1.43.37.31 2.97-1.18 2.35zm660.52 47.68c.85 1.83-4.38 1.83-3.54 0 1.35-.53 2.6-.73 3.54 0zM1463 90.06c-.25 1.12-1.69 1.06-1.19 2.94a19.56 19.56 0 0 1 4 2.5v-7c-.43.67-1-.13-1.65-.2-1.41-1.06.77-.15 1.65 0V72.51c-1 .82.49 1.39-.48 2.83-1.52-.05-.85-2.3-2.35-2.35-.83 1.12-.95 3-2.36 3.52.32 2.83 2.63 3.66 4.13 5.3a63.43 63.43 0 0 1-5.89-2.35c2.06 2.06 3.74 4.51 5.89 6.46-3.11 1.52-5.91-2.31-7.66-4.12-1.38.86.73 3.16 1.77 3.53-.49 1.73-1.48-.77-2.94 0 2.31 1.61 2.32 5.52 7.08 4.73z"/><path d="M1465.79 98.39a13.12 13.12 0 0 1-1.65-1.27c-1.13.24-.47 2.29-2.36 1.77-1.34-3.21-3.84-1.62-5.88-4.12-.35.67-1.4 4 .59 4.71-1.34.91-1.34 1.44 0 2.35.64.52-1.75-.71-3.53.59 1.45 2.54 4.77 4.1 4.71 6.48a11 11 0 0 1-3.53 1.75c-.38-.59-1.35-.61-1.18-1.75-2.7.3-2.06.56-4.71 1.17-.1 2.26 3 1.28 2.94 3.53a2.19 2.19 0 0 0-2.94 0c-.31 2.08 2.08 1.44 1.77 3.52-1.2.33-1.16 1.78-2.36.59-.28 1.86 1.06 2.08.59 4.12-1.77-.59-1 1.31-1.18 2.36-1.87-.81-2-.13-4.13 0-.11 1.65 2.54 1.69-.58 1.77.7 1.62 1.67 2.06.58 4.12-2.69-2-2.78 2.87-4.11 4.13.52 1 1.64 1.49 1.17 3.52-1.63-1.64-1.89 1.09-3.54 1.17.13 2 1.95 1.78 0 3 2-.18 1.88 2.56 4.71 2.94-1.71.9-5.18-1.49-6.48-2.94-1.58-.42-1.13 1.21-1.77 1.75.26.53.52 1.06 1.19 1.19-.52 1.73-.88-1.38-2.36-.59-.85 2.82 3.09 5.93 6.48 6.48.09 1.87 1.34 2.59 1.17 4.71-1.35.18-.66-1.7-1.75-1.77-1.33 2 1.22 2.36 0 5.3-.53-.39-2.51-3.14-2.36-.59-1.56-.87-4.92-2.16-6.48-1.17.34 2.4 3.14 2.34 2.94 5.29-1 .08-1.24-.72-2.35-.58-1.53.62 2.87 3.33 1.17 4.12 1.24 1.31 3.09 2 4.12 3.54-3.29 3-5.53-1.87-8.82-2.36-2.1 1.15-.47 3.5 2.35 2.94 1.36 1.91-.2 3.08 2.36 3.53 0 1.39-1 1.73-.59 3.54-1.49-1.06-2-3.11-2.35-5.3-2.39.82-1.87-1.28-3.53-1.17-.87.25.23.76 0 1.77-.91-.67-1.45-1.69-2.36-2.36-.52.27-1 .52-1.17 1.19 0 .57.72.45 1.17.58-.06 2.08-1.94-1.25-1.75.59-.88-.25.23-.76 0-1.77-1.48-.1-1.44 1.33-2.36 1.77 3.09 1.43 2.64 6.38 7.07 6.48-1.48 1-.42 1-1.19 2.35a11.94 11.94 0 0 0 4.71 4.13c.23 1-.46 1.1-1.18 1.17.79 1.75 2.5 2.6 4.71 2.94.57 1.1-1.77 2 0 2.35-.37.25-3 .68-.58 1.77-.76 1.65-1.22-1.86-3-1.17-1.64 0 1.4 1.6-1.18 1.17-.12 2.1 2.77 1.16 2.36 3.54-2.56-.61-2.66.92-1.19 1.77-.49 1.39-1.45-1.63-3.52-.59.51 1.83 2 1.75-1.19 1.77.72 2.94 1.55 4.23 4.13 4.13-.39.59-1.35.61-1.19 1.76 1.6 1 3.32 1.79 4.13 3.53 1-.14 1.34-1 1.17-2.35 1-2.25 0 2.29 1.18 1.76 2.23.26.86-3.07 2.36-3.52.93 1.65 1.72 1.3 3.54 1.17-.06 1.69-3.9 0-2.94 4.12-1.91.34-3-.18-3.54-1.17-.62 1.35 1.43 2.77 1.17 4.71-1.15.73-3.22-2.65-5.88-2.35-.1 1.65 1.67 1.47 2.35 2.35-2.22.76.33 2.64-1.17 4.12-1.09-.09-.37-2-1.17-2.35-1.86-.29-1.34 1.81-3.53 1.17 1.89 2.88-2.5 1.4-4.71 1.77a8.87 8.87 0 0 0 5.88 2.94c-.77 2.54 1.68 1.87 2.36 2.94 1.93.76-1.75.25-1.77-.58-2.56 1-2.06 5-5.88 4.71.74-1 2.8-.73 2.94-2.36.1-1.27-2.1-.27-2.94-.58 0-1.17 1.6-.76 1.17-2.36-2.38.16-3.23 1.87-6.47 1.17.15-1.92-1.83-1.69-2.36-2.94 1.17-1.11.29-2.78 0-4.12H1410c-1.49.48-.82 3.11-1.77 4.12-2-1-1.87-4-4.13-4.71-.49 2.9-.57.91-1.75 3.54-1.72-.82.17-2.9.58-3.54-1.16-1.21-1.16-.56 0-1.77-.09-.68-1.07-.49-1.77-.58.18 2.47-4.53 1.64-5.88 5.29-2.65-1.82 1.21-5.86 1.77-8.23-2.93-1.3-4.39 2.46-8.24 1.17.95-2-.47-4-1.77-2.94-1.65-.59.16-2.5 0-3.53-.62-1.15-2.38 1.49-4.71.59.3-1.86-1.29-2.31 0-3.53a4 4 0 0 0-3.54 0c-1-.45 1-2.85 1.19-4.12.1-1.48-.91-1.86-1.77-2.36-.85 1.93-6.41.5-7.07 4.12-2.33-2-2-1.2-5.29-.58 1.72-2.25 6.68-2 9.42-4.13-.88-1.94-1.44 1.23-3 .59.21-1-.46-1.11-1.18-1.17a3 3 0 0 1 1.77-1.77c-.59-1.52-2.73-2.26-3.54-.59-1.26-.88.43-1.44-.58-2.94h-2.94c1.55-1.86-1.67-2.7-1.77-4.71-1.29.09-1.28 1.49-1.19 2.94-1.23-.34-1.89-1.24-2.94-1.77a2.6 2.6 0 0 0-1.17 2.36c-.65-.15-.4-1.17-1.17-1.17-1.91-.73-.45 1.91-2.36 1.17a1.61 1.61 0 0 0 1.17 1.77 8.14 8.14 0 0 1-4.11 0c.14 1.82 1.64 2.29 2.35 3.54-.25.87-.75-.24-1.76 0 1.4 2.46 2.46 1.7 2.94 4.71a2.77 2.77 0 0 0-1.77-.59c-.44 1.81 1.62 1.12 1.17 2.94-1.76-1-3 .19-4.12-.59a10 10 0 0 0-1.77 2.36 2.83 2.83 0 0 1 .58 1.77c.86-.33 3 .68 3-.59 1.54 1.86-1.55 2.52-5.3 1.77.82 1.77.86 4.27-1.17 4.71.27 1.69 2.08 1.84 1.77 4.12-2.16.2-3.28-.64-4.72-1.17-1.59 1.91-1.1 5 1.19 5.88-.16 1.21-2.2.56-2.36 1.77 1.44 1.7 2.59 3.69 4.71 4.71-1.35 1.31-3.29-1.77-5.3-1.77a5.41 5.41 0 0 0 2.36 2.94c-1 .39-2.94-2-4.71-.58 1.64 1.69 2.61 4.05 4.71 5.29-1.92 1.5-3.52-2.34-5.88-2.35-.2 2.08 5.59 4.68 4.71 7.65-3.52-2.83-5.38 5-7.07 2.35-1.24 1.24.78 2.22 1.77 3-.34.3-5.39.32-4.71-2.36-1.46-.09-2.85-.11-2.94 1.17-1.83-1.12.92-2.55.59-4.12-1.43.44-3.59 2.41-3.53-.59-1.48-.1-1.43 1.33-2.36 1.77-.63-1.34 1.48-3.87-2.35-2.35.53-1 1.41-1.72 1.77-2.94-1.77-1.34-2.81 2-5.3 1.75-.47-4 2.12-4.95 2.35-8.23-.76-2.12-4.27.4-2.35-2.36-2.87 1.39-3.91 1.1-5.88 3.53-1.07-.42 1.82-3.67-1.19-1.77-1.56.18 1.56-2.28-1.17-1.77 2.29-.85 1.51-4.76 3.54-5.88-3-2-5.11 1.17-7.07.59 1.29-1.46 3.78-1.72 4.71-3.54-2.21-.44-5.67 3-8.24 4.12.16 1.39 2.2-.05 2.36-.58 1.62 1.45-3 1.69-1.77 4.71a1.38 1.38 0 0 0-2.35 1.17c-.73-.37 0-2.84-3-2.94.86-.91 2.3-1.24 4.13-1.19.4-1.58-1.21-1.14-1.77-1.75 1.31-1.44 3.84-1.65 5.88-2.36.28-1.25-.83-1.12-1.75-1.17a14.6 14.6 0 0 0 4.7-4.12c-.16-2.49-3.47.56-1.75-1.77-.24-2-2.29 1.57-1.77-1.19-2.22-.44-2.81.72-4.71.59-1-1.2.43-1.15-.59-2.35-1.46-.09-2.85-.11-2.94 1.17-1.08-2-2.42-.33-4.13-1.17.09-1.45.09-2.84-.58-3.53-1.76 0-.76 2.78-1.77 3.53-1.48-.49-1.87-2.07-2.94-2.94-2.07 1.29-.82 3.62.58 5.29a21 21 0 0 1-4.12-.59c.33.86-.69 3 .59 3-.52 1.73-.88-1.38-2.36-.59 1 2 1.59 4.29 4.12 4.71-1.21 1-8.17-2.28-10-2.94a5.84 5.84 0 0 0-1.77 3.53c.06 1.5 2 1.16 3.54 1.17-.57 2.71 3 1.35 2.35 4.12-1.67-.49-3.64-.68-5.29-1.17-1 .53-1 2.17-2.36 2.35.52.86.47 2.29 2.36 1.77-.35 1.94-2.23.85-3.53.59-.25 5.67 4.29 5.39 7.65 8.82-1.79.73-2 1.44 0 2.36-.52 1.7-.88.66-2.36.58-.72 1.91 1.91.45 1.19 2.36-2.91-.63-4.47-2.6-6.48-4.13-.48.11-.59.59-1.19.59 1.27 2.3 2.41 2.56-.58 1.17-.52 1.89.9 1.84 1.77 2.36.7.52-3.65.54-4.71-.59-1.63.53 1.36 2.39-1.77 1.77 1.62 2.89 2.68 6.35 6.47 7.07-2.16 1.81-4.33 1.77-7.07.58 2.11 2.31 2.5 6.4 2.94 8.84-1.84.67-1.43-.94-2.35-1.19-1.58 1.8 2.11 3.36 2.35 5.3a6.53 6.53 0 0 1-2.94-4.12c-1.2.76-3.55.37-3.54 2.35-1.24-.16.86-1.58-.58-2.35-1.3.66-3.26.67-3.54 2.35-.78-.58-1.16-1.59-2.36-1.77-1.83.14-1 2.93-1.17 4.71-.84.31-1.44-2.3-1.77-.59-1.19-1.35.4-2.61-.58-4.7-3-.42-4.05 4.17-3 5.88-1.53 1.1-2.19-3.67-3.52-4.71 1.91.72.44-1.91 2.35-1.17a5.45 5.45 0 0 0-2.35-3.54c1-.57 1.29-1.86 1.77-2.94-2.23-.5-2.76 1.94-4.13.58.14-.85 1.76-.2 1.77-1.17-.72-1.79-2 .64-3.53 0 .37-2.39 1.8-3.69 1.17-7.06-4 .5-7.34 1.69-8.23 5.29-1 .35-2.45-1.73-2.94 0-.67-.53 0-1.31-1.18-2.35-2.43 1.5-7.22.62-10 1.77a7.39 7.39 0 0 0 2.36 5.29c-2.4.67-6.73-3.46-10-.59.5 1.86 2.25 2.47 2.94 4.13-.18.8-1.46.48-2.35.59-.85 2.6 2 1.53 1.77 3.52-.57 0-.46.72-.59 1.17H1211c.44 2.31 3.17 2.34 3.54 4.71 2.62-.45 3.53.79 5.88.59.39 2.35-.31 3.6-2.35 3.53.25-1.24-.4-1.57-.59-2.36-6.45 0-9.88-3.05-14.72-4.71.51 1.49.54 2.34 1.19 4.71 2.55-1.53 1.29 3.09 5.29 2.94-2 1.21-.4 1.22 0 3-3.21.16-4.08-.4-7.06-1.19-1.39.16.67 1.58.58 2.36 1.3 1.41-1.11-.92-1.75-1.17-.94.25-.51 1.84-2.36 1.17-.31 2.66 3.14 1.56 2.94 4.12h-1.77c-.09 2.25 2.41 1.92 3.53 2.94-2.16 1.38-5.26 1.46-7.06-.58-.44 1.62.49 3.66.58 7.06-2.18-1-4.05-3.89-6.48-2.94.86 1.69 1.48 3.62 3.54 4.11-1.74 1.89-2.9-1.77-4.71-1.77-1.8 1.92-.15 1.51-3.54.59 0 2 1.92 2 1.77 4.12-2.18-2.46-2.13-.95-4.11.59.16-2.89 1.45-4.51-1.17-5.88-.62.81-2.89 2.93-1.78 3.52-2.64-1.23 2.66-8.32 4.13-11.17-1.11-2-2.07 1-3.54.58a3.33 3.33 0 0 1-.59-2.35c-.35.16-2.26 1.46-2.35 0-1 .14-1.34 1-1.17 2.35-1.26-.69-3.3-.63-4.13-1.77a4.14 4.14 0 0 0-2.94 3c-.75-1.29-.14-1.31-1.17-3 4.32-2.2 6.93-6.35 8.82-9.4-1.93-1.1-1.93 1.65-2.35-1.19-2.12.24-1.79 2.92-2.94 4.13-1.77-.39.55-1.26 0-2.36-1.39.29-2.66 1-4.71 0-.68 1.48-2.47 1.86-3.54 2.94-1.13-.24 0-2.69-2.36-1.77-.68-3.43 2-3.48 3.54-4.71-3.11-1-.55-3.27-.58-4.71-3.21-2.45-8.76 1.45-11.19 3.54-.86-.72-.8-2.35-2.36-2.35-4.09-.08-4.25 3.14-3.54 6.48-4.27.44-8 1.4-12.36 1.75 1.37 3.16 3.8 2.35 5.88 2.36 0 2.75-5.5 0-6.48 1.77.14 1.62 2.2 1.34 2.94 2.35.28 2.33-2.75-.27-4.12 0 .06 2.69 3.29 2.2 3.54 4.71-.93 1.34-5.76-1.23-3.54 1.77-.88 1.94-1.44-1.23-2.94-.59-1.06-.06-1.25.73-2.36.59 1.38 2.76 0 2.58.59 5.3h-2.94c2.41 2 1.59 4.15 6.48 4.12-.15 1-1 1.34-2.36 1.17.39 2.46 3.42.05 4.13 1.19-1.94 2-.24 3.07 1.17 4.71-.74 1.44-1.72-1.77-2.94-1.77a.59.59 0 0 0 0 1.17c-1.82 1-2.07-4.58-5.89-3.54a1.6 1.6 0 0 0 1.19 1.77c-.54 1.43-1.74-1.34-3.54-.59-.1 1.48 1.31 1.44 1.77 2.36-1.29 1.43-2.73-1.94-4.71-1.77-.72 2.15 2.87 2.31-.59 2.36.43 1.33 1.77 1.76 2.94 2.35-.29 2.22-4.82-.44-2.94 1.77-1.32.91-1.67-4.19-4.12-4.12-1.39.15-.37 2.6.58 2.35-1 .77-3.17-2.3-4.71-2.94-1.14 1.76 1.91 4.36 3.54 5.29-1.78 1.74-2.59-2.47-4.12-2.94-1.55.67.78 2.28 1.17 2.94-.33 1.34-.92-.71-1.77.59 2.38 2.52 4.73 5.09 7.07 7.65-3.33 2.13-5.25-2.2-7.66-2.94-1.75 1.55 2.69 2.23.6 4.13 4.21 1.65 4.83 4.07 8.82 6.46a21.77 21.77 0 0 1-15.3-5.88c-2.24 1.53 1.49 2 1.17 3.54-1.12-.25-1.06-1.68-2.94-1.17a8.32 8.32 0 0 0 3.53 4.11c-2 1.53-3.14-2.71-5.88-2.36-.68 1.91 4.14 3.08 1.17 3.54 2.83 3 5.9 4.24 8.82 5.88-2.69 1.16 1.21 3.48-1.17 3.53.83 1.72 3.23 1.87 4.71 2.94-2.08 1.55-.72 5.5 2.94 4.71-1.1 1.4-1.86.81-4.12 1.77-.05.83-.1 1.67.59 1.77-2.69.1-5.67-1-9.43-1.77 1.11 3.26 3.41 2.46 3 6.48h3.52c-2.26.78-1.62 1.79 0 2.94-1 .37-1 1.78-1.77 2.36.38 1.59 2.46 1.47 2.36 3.52-1.53-1.55-2.19-.56-4.12-1.17 2.68 4.5-2.06 3.68-1.19 7.65a7.72 7.72 0 0 1-2.35-4.71c-1.66.49-1.53-.83-2.94-.59a14.83 14.83 0 0 0 2.94 6.48c-3.93.58-2.57-9.19-7.07-10-2 1.17-.18 2.17 0 4.12-1.41.24-1.28-1.07-2.94-.59.67-1.19-2.29-4.08-4.11-2.94a9.35 9.35 0 0 0 5.29 5.9c-1 .56-1.83 1.94 0 2.35-1.12.52-3.74-2.53-4.71-4.12-2.41.67-.52 3 0 4.12-1.16 0-.75-1.6-2.35-1.17-2.37 3.52 2.87 6.44 5.3 5.3-1.93 3.79 1.2 7 4.7 8.23-1.17 2-2.17.18-4.12 0-1.63.4 1.64 3.09-1.77 2.36.06 2.08 2 2.36 4.13 2.35a6.17 6.17 0 0 0-2.94 2.94c1.45 2.41 1.87 2.31 3.52 4.13-1.63 1.39-3.14-.53-5.29.58-.3 2.28 3.89 3.13 5.29 1.77 1.63.25 0 1.86-1.18 1.18 1.11 3.43 5.28.19 6.48 3.53.27 1.64-3.21-.46-2.94 1.17 1.78 1.37 6.07.22 8.83.6-.19 1.58-3.83 0-1.77 3.53a5.37 5.37 0 0 1-2.35-2.36c-1.94 1 .12 2.4-2.36.59-4.63 1.79-11.4 10.1-14.72 5.88-.52.27-1 .52-1.17 1.17-1.49-2.09 1.24-5 1.77-7.06-1.79.36-3 1.3-2.94 3.53-.55-1.32-1.9-1.1-2.94 0-2.37-3.33-3.67-7.71-9.42-7.66-.68 2.45 1.24 2.3 1.17 4.13-1.67.09-1.38-1.77-2.94-1.77-1 1.35-1.54 2.2-3.54 1.17-1.69 1.26.85 3.69.6 4.13-1 2.16-4.09-2.35-6.48-1.19-.49 2.84 3.56 1.15 3.54 3.54-2.49-1-3-.47-4.72-1.77-.79.19-.48 1.48-.58 2.36 3.6.95 4.17 5.2 8.82 3.52.68 2.45-1.24 2.3-1.18 4.13-1.59-.76-2.09-2.61-4.71-2.36-.11 1.29.48 1.88 1.77 1.77-.9 1.78-2.59-.49-4.13 0 .2 1.36.39 2.77 2.36 2.36-.16 2.11-5.69-2.55-7.07-1.19 2.7 2.6 6.74 3.88 11.18 4.71-2.28 1.19-2 1.44-2.94 3.54-1.39 0-1.73-1-3.54-.58 1.55 1.8-2.64 4.71-5.88 5.29-.52-1.64-1.4-2.9-1.77-4.71-1.46-.1-1.84.91-2.35 1.77-.69-.1-.51-1.07-.59-1.77h-4.71a2.77 2.77 0 0 1 .59 1.77c-.93-.25-.5-1.86-2.36-1.17a62.21 62.21 0 0 1 1.17 7.65c-1 1.92-2.31-2.31-2.35.58-3.91-1.58-6.22-5.89-10.59-5.29-2 2.59-4.44 7.4-7.07 5.88-.28-1.84 1.58-1.55 1.77-2.94-2-2.31-1.31-7.32-5.3-7.65-1.2.38-.39 2.75-1.77 2.94-1.92.15-1.25-2.28-2.94-2.35-.77.2-.92 1-1.77 1.18 1.86 3.4 1.13 6.2 3.54 9.42-1.92-2.21-5.66-2.59-10-2.36v1.77c1.78 1.35 4.56 1.72 6.47 2.94-2 .86-6.63-.68-8.24.59.28 3.07 2.89 1.13 3.54 2.94-.52 2.26-2.36-.1-4.12 0 .2 1.36.38 2.75 2.35 2.35.19 1.36-1.69.66-1.77 1.77-.49-2.52-2.6-2.11-4.11-2.35.14-.64 1.17-.41 1.17-1.18-4.12-1.89-7-.15-9.42.58 0 1.17 1.6.74 1.17 2.36-.55-.31-2-2.65-2.35-1.19-.53-2.61-1.32-4.23 0-5.88-.15-1.23-2.59-.16-2.94-1.17-1.29.09-1.26 1.48-1.19 2.94-1.86.09-1.14-2.39-2.35-2.94-1.73.75-2.36 2.58-4.71 1.17-.63 2.2 1.46 1.68 1.17 3.53-3 .66-3.52-3.85-4.71 0-.79-.18-.49-1.48-.59-2.36-5.22.95-8 2.26-13 3-.77-.44 1.54-2.75 3-3-.06-2.2-.67-1.68 0-3.52-2 .19-1.92 2.4-4.13 2.35 1.29-2.9-3.79-6.91-1.17-9.42-.23-.74-3.13.74-2.94 2.36-3.14.25-6-2.15-8.84.58.85-1.46-1.09-2.44-1.63-1.51 1.28-3.22 1.07-6.46 3.4-9.67-1.68 1.39-5-.56-7.65.59-1.89-1 1.48-1.59 2.36-1.77-.53-1.26-.69-5.93-2.36-4.12-1.7-1.17 1.69-2.18 1.17-4.11-.53-1.62-1.31 1.78-2.35 0 .64-.23 2.23-2.36.58-3 .52-1.45 2.18-1.74 3-2.94 0-1.58-3-1.58-3 0-.3-1.21-.92-1.89-3.52-1.17.25-.92 1.84-.51 1.17-2.35-2.46.34-3.81 2.7-5.3 2.35-.66-1.46 3.61-3 3.53-5.88-1.25-2-1.7 1.77-3.53 1.17.4-1.36 2-1.58 2.36-2.94-1.28 0-4.91-.93-4.71 2.35-.64-2.45-2.34-1.45-3.54 0-.34-.95 4.44-11.35-2.36-9.41-.8.1-.76-3.41-1.77-1.19-1.71-.33.91-.91.59-1.77.37-.83-2-.93-2.36-.3.29-1.31 4.31-2.66 4.72-5a8.56 8.56 0 0 0-5.3 1.17c-1.71-1 2-1.46 1.17-3.54-4.12 2.45-9.37-1.1-14.72 1.17 5.49-2.35 11.31-4.38 13-10.59-2.51 2.58-5.59 2-6.47 5.3-1.22-.37-2.21-3-2.94-.59-1.78-.72.42-2.25.59-2.94-2.12.21-2.84.9-4.71 0 2.45-3.61-.19-5.3 2.35-8.82-.49-1.73-1.48.77-2.94 0-1.54.82-1.67 3-2.35 4.71-1.2-.57-1.28-2.26-1.19-4.13-.06-1.29-2.49-.24-3.52-.58-1.33.25-.24 2.9-.59 4.11-1.39-1-.9-3.81-2.94-4.11.2 1.48.3 8.18 1.77 8.82-.52-.72-4.3 2.21-1.17 2.94-2.68 2.71-4.18-1.87-7.66-1.75.68 3.74 4.83 2.58 5.3 5.29-4-1-7.26-3.42-11.19-5.88.9 8.37 8.67 7.85 11.19 13.53-7.54-.53-9 1.78-14.72-1.17 1.36 2.58 8.09 7.16 10 3.54.8.18.48 1.46.58 2.35h6.49c-.4 1.4-3.48 2.41 0 2.94-1.54 1.49-3.9-1.17-4.72-2.35-.68.19-2.76 1.82-1.17 2.35-1.92 1.63-3.91-1.1-5.3 0-.68-.88-1.69-1.44-1.75-2.94-2.78 1-4.86-2.2-7.07-3.53-1.78 3.61 2.85 7.17 5.88 9.42-2 .86-.71 2.76-.58 4.71-1.91-2.14-4.43-1.35-5.3-3.52-1 .43-.09 1.06 0 1.75-.25 1.49-1.28-1-1.18-1.75-3.19.82-3.65-.8-6.48-.59 1.91 3.59 4 7 7.65 8.82-1.69 2.84-6.41-.25-8.25-2.35-.92 3.82 1.25 7.3 4.71 9.42-1 .54-1.19 2.4-2.35 1.17 0 3.89 6.77 1.07 7.06 4.71-1.92 1.88-4-1.07-5.3-1.77-.8.19-.48 1.48-.58 2.36-3.5.3-3.87-2.31-7.07-3.54-1.14-.24-.86 2.68.59 1.77-.52.57-3.7.25-2.36 1.77-.33 1.7-.91-.91-1.77-.59-1.83.88 1.74 2.54 0 3.54 1.16 1.59 4.29 1.21 4.13 4.12-1.12-.25-1.06-1.68-2.94-1.18 1.46 2.78 1.55 3.36 4.12 4.71-.33.54-1.63.88-.58 1.17-.79 1.68-2.62-.45-3.54-.59-2.68.73 1 1.72-.59 2.94 0 1.75 2.78.76 3.53 1.77.42 1.6-2.78-.42-2.36 1.19a34.51 34.51 0 0 0-4.71-4.71c-1.48 2.33 1.32 3.22-2.94 2.35.21 2 1.77 2.55 2.94 3.54-1.62 1.58-3.6-1.46-4.71-2.36-3 .85 1.53 3.43-1.17 4.13 1.28 1.47 3.13 2.36 4.71 3.53-.78 1.49-2.61-.87-4.12-.59a24.81 24.81 0 0 0-1.19 2.94c-2.54.19-2.47-2.23-5.29-1.77 2-2.12 5.19-3 5.29-7.06-.1-.48-.58-.6-.58-1.19-2.27 0-2.71 3.93-4.71 2.36a34.83 34.83 0 0 0-1.77 4.12c-2.5-1 .92-1.58-.59-3.52-2.27.25-2.1.64-3.53-.59.67-2.48.67-5.62 1.77-7.65-2.37 1.77-.91-.13-3.52-.59a4.85 4.85 0 0 0-1.19 3.53c-1.1-2.41-3.48-.71-5.3-2.94-1.46.09-.16 2 0 2.35-.68 1.76-.73-1.93-1.75-1.77-1.6.49.14 6.08 1.17 7.66-.09 1.31-1.49-.77-2.94 0a27.58 27.58 0 0 0 2.35 2.94c-1.16.59-2.69.25-5.29.58.52 1.83 2.61 2.09 3.52 3.53-2.45.28-5.71-3.7-9.42-4.12-1.65 3 2.51 5.32 5.9 5.29.86 1.68-1.16 3.37 2.35 2.94.09.78-2.4 1.78-.58 2.36-3.09 0-6.39 3.18-10.61 0 1 3.94 6.86 3 9.42 5.3-1.25.48-1.41 2.21.59 2.35-.14 1.88-3.32-1.87-2.94 1.17-1.49-.47-1.5-2.42-2.36-3.52-2.1.34-4.59-2.46-7.65-3-1.87 4.43 3.45 6.74 7.07 7.65-.88 2.28-4 1-2.36 5.3-2.89-2.61-6.58-2.55-9.42-4.11-1.24.16.86 1.56-.59 2.35 1.94 3.16 5.43 4.77 7.42 7.89a1.27 1.27 0 0 1 .24.35c-.08-.13-.16-.24-.24-.35-1.25-1.29-6.62-2.15-8.6-3.77-.95 1.74.2 2-.59 4.72-2-.54-.29-1.1-.58-3-3.57.76-.62 1.92-4.71 1.77.1-1.66 1.92-1.6 2.35-2.94-2-2.3-3 1.25-4.71 1.17.58-1.77 1.2-3.5 1.77-5.29 1.69.11 3-.15 3.54-1.18-.53-1.43-3.32-.25-3.54.58-1.72-.66.74-1.91 1.77-1.77-.49-2.65-.58-2.16-1.17-4.71-1.82-.43-1.13 1.62-2.94 1.19 1.62-.87-.48-3-1.19-1.19-.74-3.73 2-5.45 2.94-9.42-4.94-.93-6.84 6-11.19 7.66.24-1.13 2.29-.47 1.77-2.36a11 11 0 0 0-3.52-1.77c-.88.51-.86 1.89-1.19 2.94-2.11-3.11 3-4 2.94-7.06-1.27-.11-1.87.48-1.75 1.77-.73-1.2.1-2.06-1.19-3.54h1.77c-1-2.32-1-1.8 0-4.12-4.08 2.83-5.41-2.49-8.25-2.36-1.2.17-1.17 1.58-1.77 2.36-.79-.19-.48-1.48-.58-2.36-1.73 0-2.18 1.35-2.94 2.36-1.67-1.73-2.81-5.6-1.77-8.24-1.71-2-3.8-.62-4.13 1.77-1.27.1-.27-2.1-.58-3-3.29-.93-2.69 2-3.53 3.54-1.62-.34-2.46-1.47-4.13-1.77-.86 2.46 1.56 4.34.59 7.66-.52-1.19-3-.16-1.17.58-.27.87-.76-.23-1.77 0-1.33.64-.23 3.7-2.94 2.94.26.53.52 1.06 1.17 1.17-.78.14-3-.62-4.71-.58.87 3.25 4.13 4.12 7.07 5.29 1.26 2.75-.44 4.24-2.36 6.48-2.41-2.41-5.52-1-8.24-3.52-.78 4.12 6.88 4.88 11.18 5.88a3.89 3.89 0 0 1-4.12.58c-1.5 1.06-.63 1.59-2.36 3-1.55-2.85-3.42-1.74-6.48-3-1.91 2.16 3 5.65 4.13 4.71 1.78.92-2 3.17.58 3.54-.74 3.66-3.52-2.55-3.52.59-.69-.88-1.7-1.44-1.77-2.94-2 1.38-1.71.67-3.54-.59-1.48-.1-1.84.91-2.36 1.77 2.39 3.56 8.81 6 8.83 10-.77-.95-2.6-3.85-3.54-1.17-2.25-2.4-3.77-2-5.88-4.71-2.11 2.73 2.34 3.93 3.53 5.3-1.47 1.12-2.86 2.45-5.89 1.77-.25 2.21 1.25 2.68 2.36 3.52-.33 1.28-2.28-2-3.54 0a27.37 27.37 0 0 0 2.36 3c-.79 1.74-2.05-2.22-3.53 0 .22.87 3.36 3.37.59 3.52.91 3 4.23 3.62 7.06 4.71-.27.86-.52-.05-1.18 0-1.25.19.09 2.57.59 2.94-.69 1-2.92-1.35-4.71-1.17-.87.25.23.76 0 1.77-2.16-.31-3.26-1.68-5.3-.59 1.22 1.73 1.21 4.68 4.12 4.71-1.19 4 1.74 4.37 1.18 7.07-1 1.17-2.31-2.36-4.12-2.36-.5.38-1.84 2.75-.59 2.94a7.94 7.94 0 0 0-5.3.59c-.17 2.65-1.64 1.9-4.12 3.54a2.57 2.57 0 0 0 1.18 2.35c-.4 1.46-1.79-.87-2.35-1.18-2.2 1.47.22 5.23 2.94 5.3-.11 1.68-.08 3.21 1.77 2.94 0 1.93-2.52 1.4-2.35 3.53-.93-.26-.5-1.86-2.35-1.19 0-2-1.75-6.75-4.71-7.65 1.77-2.06-1-3.33-1.18-5.29.55-1.21 1.9-1.64 2.94-2.36-2.49-1.73-6.43 2.78-9.42.59a7 7 0 0 0 .59-6.48c-4.68 0-7.86 1.55-8.24 5.88-2.7-4.4-7.28-2.36-13.54-2.35.11 2.63 2.68 2.8 3.53 4.71-1.73 1.49-3.46-2-5.88-1.77-1.61-.43-1.19 1.16-2.35 1.17a15.93 15.93 0 0 0 2.94 4.71c.22 2.57-2.56 2.15-1.77 5.29-1-.52-1.72-1.41-2.94-1.76a4.2 4.2 0 0 0 2.94 5.29c-2.26 2.78-4.46-3.44-8.83-2.35 1.08 1.07 1.61 2.7 4.12 2.35.27 3 3.83 2.65 6.47 6.48-1.25.14-4.33-1.1-4.71 1.77-1.66-.11-1.62-1.92-2.95-2.36-.47.11-.58.59-1.17.59-.58 2.35 1.76 1.78 1.17 4.12-3.19.85-.8-3.9-4.12-2.94.13 2-.9 1.35-4.12 1.19-.38 1.27 1.67 1.87-.59 1.75a8.24 8.24 0 0 0 2.94 3c-1.15.82-2.78.58-4.12-.59a2.58 2.58 0 0 0-1.17 2.35c0 1.39 1.6-.21 1.17-1.17.86 1.12 4.62 2.41 3.54 3.54-1.86 1.85-.76-2.24-2.94-1.77-2.24-.86-.12 2.63-2.36 1.77v-2.36a4.45 4.45 0 0 1-4.12 1.19c-.75 1-2 1.54-1.76 3.52-3.54-2.59 3.09-5 4.12-8.23-2.33-2.28-5.61 1.92-7.65 0 2-1.13 3.5-2.78 5.3-4.13.17-.95-.56-1-.59-1.77-2.56.58-5.6.68-7.65 1.77-1.52-.14.81-1 0-2.35-1.77 2.59-4 1-6.48 2.94-1.45-.73 1.76-1.72 1.77-2.94-.07-1.44-2-.12-1.77.58-.68-1.68 3.5-3.53 2.36-7.65-1.21 1.74-3.23 2.66-3.54 5.3-.57 0-.45-.72-.59-1.18-.72-.86-2.25-.89-2.94-1.77-2.82.39-3.83 2-2.95 4.71-.47-.4-1.61-.92-1.76 0-1.36-.47 1-2.06 1.18-2.94-.41-1.84-1.57-.77-2.94-.59 1.58-1.65-.81-2.64-2.95-2.35 4.67-3.18 10.25-5.45 11.19-12.36-5.07 2.6-8.09 9.39-14.13 7.65 2-1.73 3.72-3.74 7.07-4.13-.67-4.39 3.19-4.27 3.53-7.65-.37-3-2.46 1.77-2.35-1.17a1.61 1.61 0 0 0-1.17 1.77c-6.8 3-2.2.92-.59-3.54-1.36-1.69-4.29 0-4.71 1.17-1-1.73-2.8-.85-1.77-2.35-3.17-.62-3.14 2-4.71 2.94-1.78.18-3.49-2.74-4.71-1.17-.49-2-.42-7.22 0-11.78-2.37.77-2.25 4-2.94 6.48-2.17-1.21 0-3.07-.59-5.88a11.12 11.12 0 0 1-4.71.59c-1 1-1 6 0 7.06-1.89.69-2.59-4.85-4.71-5.88-2.27.11-1.58 2.78-4.12 1.17 2.62 3 2.3 5.2 4.71 8.24-2.78.71-1.16 2.68-.59 4.71-1.44-2.21-3.18-.86-5.3-1.77-.63.14-.4 1.16-1.18 1.17-.4 2.38 2.48 1.45 2.36 3.54-.4-.47-3.28-1.31-3.53 0-1.27-1.54-3.26-3.27-5.89-1.77.44-1.11 1.76-.4.59-1.77-2 2-2.66-.69-5.3.59.61 3.31 3.76 4.09 6.48 5.29-.5 2.58-1.67 1.09-4.12 1.19 2 2.07.9 3.84 3.54 4.7a4.23 4.23 0 0 1-1.77 1.19c2.16 3.91 6.92 5.24 11.19 7.06a.6.6 0 0 1-1.18 0c-1 .15-1.34 1-1.18 2.36-2.2 1.17-4.24-1.14-5.29 1.17a11.13 11.13 0 0 0 3.53 2.35c0 1.65-1.6-1.4-1.17 1.19-3.85-2.23-6.31-5.87-11.19-7.07.78 2.16 2.7 3.19 4.71 4.13-1.74 1-2.2-.83-4.12-1.19-1.05.05-.63 1.06 0 1.54.22.09.43.16.64.23a.77.77 0 0 1-.64-.23 20.86 20.86 0 0 0-6.43-2.12c3.8 5.81 11.17 8.05 18.84 10 .33 1 .3 2.45 1.18 2.94-2.84-.5-9.52-2.16-12.36-5.88-1-.22-1.11.47-1.18 1.17-2.11-.82-3.91-2-4.12-4.71-1.55 1.82-2 .41-3.54-.58-1.95.88 1.22 1.44.59 2.94-1.5-.44-4.17 2.31-7.66 1.77.46-1.3 2.06-1.48 2.94-2.36a1.63 1.63 0 0 0-1.76-1.17c2.06-2.79 6.29-4 5.3-8.24-3 .44-5 4.61-7.65 3.53 1.8-2.32 4.6-3.64 5.88-6.48-1.65-.78-3.23.92-5.88 2.94-1.92-2.15 3.4-2.07 2.94-4.71-1-1.72-2.15 1.34-4.12.59 2.63-1.15-.53-2.44.59-3.53-1.84-.28-2.41.73-2.94 1.77-.51-.35-1.29-3.29-2.35-1.17-2.72-1.34.23-6-1.18-7.65-1.65.31-1.09 2.83-1.76 4.11-.52-1.92-.11-4-3.54-4.11a9.19 9.19 0 0 0-.59 5.88c-1.23-.53-1.79-1.74-1.77-3.53-3.28.08-4.13-1.73-7.06-.58.86 2.3-.14 1.87-1.18.58-2.15.93 1.37.88.59 2.36-2.17-1-2.6.34-3.53.58-.9-1.64-1.5-3.58-3.53-4.12-1.65.58.85 1.57-.59 2.36-1.12-.25-1.07-1.69-2.94-1.19-2.9.48 1.5 4.61-2.94 3.53a9.29 9.29 0 0 0 2.94 4.71c-.71 1.41-3.19-.28-2.35-2.36-1.5.08-2.06 1.09-2.94 1.77-.72-.49 1.47-3 1.17-3.52-.14-1-1-1.35-2.35-1.19 3.12-1.8 3.52-2.73 5.89-5.29-.61-1.31-2.71.77-4.71 0a55.36 55.36 0 0 0 3.53-5.3c-3.48-2.47-3.83-4.45-5.89-8.24.06-1.5 2.3-.83 2.36-2.35-2.26-1.67-1.27-.57.59-2.94-1.11-1.17-2.06-1-3.53-.59.82-.75.36-2.78 1.18-3.54-.54-1.6-2.06 1-2.95-.58.38-.61 1.36-.61 1.18-1.77-3 .87-2.92-5.19-2.94-7.65-1.31 2.89-.82-4.44 1.76-5.3-.95-2-1.86 1.86-2.94 0-1.15-7.7-4.89-13-3.53-18.82-1.75-.39-2-.5-1.18-3-.53.27-1.05.52-1.18 1.19-.26-2.49-.41-4-2.94-4.13 1.27-2.06.22-2.07-1.18-2.35.06-3.36-.84-6.62-4.12-5.88.3-.88.87-1.49 1.17-2.36-1.77-.12.49-1.07-2.35-1.17-.25-1.24.4-1.57.59-2.36-.53-1.6-1.32 1.79-2.35 0-.22-1 .46-1.11 1.17-1.18-.38-1.77-1.26.57-2.36 0 .3-2.18 1-1.47-1.18-1.17.75-1.84-.58-2.41 1.18-3.53-2.1.64-3-2.94-4.71-1.77-.38-.48.29-2.06.59-2.94-.66-.27-2.84-.07-2.35-2.94-.69.09-.5 1.07-.59 1.77-3-2.14-3.44-7.79-7.06-7.65-.9-2.69-.88-3.69-2.94-2.94.36-1.89-2.12-.81-.59-2.36H491c-.64-4.68-2.93-1.16-3.53-5.88-.61.57-1.19 1.16-1.77 1.77.5-3-3.24-1.6-3.54-5.3a2.76 2.76 0 0 1-1.77.59c-1.18-1.2.26-1.16.59-2.36-1.06-.08-1.24.72-2.36.6.4-1.36 2-1.58 2.36-2.94-1.19-.66-3.25-.9-2.95-3.54-3.18.23-5 .53-7.06.59a25.84 25.84 0 0 1 8.24-4.71c.2-2.28-4-.52-1.18-2.36-.24-1.3-3.23-.56-2.94.59-.79-.4.17-3.6-1.77-1.77.64-.93 1.16-5.31 2.94-5.88-.19-1.26-2.56.09-2.94.58-1.14 0 .92-2.18-.59-2.94-2.53 1-5.15 1.92-6.48 4.13-.87-.27.23-.76 0-1.77-3.24.61-6.71 3.71-8.83 3.53 4.79-3.27 5.42-9 8.24-11.78-.17-1.21-1.57-1.17-2.36-1.77 2.09-2-1.7-4.24 0-5.88-.72-.45-2.47-.93-3.28.13.59-1.44-.34-3.52 1.51-4.84-.24-1.14-2.7 0-1.77-2.35a3 3 0 0 0-1.77 1.75c-1.74-.5 1.37-.87.59-2.35-1.26-1.4-2.2 1.76-3.53-.59.24-1.14 2.29-.47 1.77-2.35-1.81-.94-4.82-.68-6.48-1.77-.5-1.88.51-2.23 1.18-2.94-.09-1.09-2-.37-2.36-1.17 0-1.17 1.61-.76 1.18-2.36-3-.26-5.27.63-8.83-1.17-.8 2.27-1.46 1.29-4.12 1.17.91 2.11-.61 3.23 1.77 4.12-.73 1.6-2.27 1.48-1.17 3.54-2.27-1.06-2.83-3.85-5.89-4.12.49 2.45 2.13 3.75 4.12 4.71-1.64 1.79-3.57-1.11-4.71-1.77-2.15-.19-2.33 1.58-2.94 2.94h-2.94c1.57-.82 2.2-2.16 1.17-4.12-2 .24-.74 1.59-2.94.58a15.73 15.73 0 0 0 3.54-7.65c-1.55-1-2.31-2.79-2.95-4.71-1.38.78-3.31 1-4.71 1.77-1.7-1.36 2.89-1.39 2.35-3.53-1.78.37-2.66-3.16-2.94-2.35-1.72-.66.75-1.92 1.77-1.77-.41-1.82-.41-1.14 0-2.94-2.46.62-2.59.15-5.3 0-.07-1.06.72-1.24.59-2.36-1.62.67-4.36-3.71-4.71 0-.85-.13-.2-1.76-1.17-1.77.14 1.94-2 2.47-1.77 5.89-2.88-1.25-2.84-5.4-6.48-5.89 2.17 2.87 1.23 5.21 4.71 6.48-.24 1.34-3.45-.3-2.36 2.36-1.26-1.49-3.26-2.23-5.3-2.94-.48.11-.59.59-1.17.58.53 3 2.24 4.82 5.88 4.71-1.11 4.12-4.79-1-7.06-2.35-1.2 1.62 2.1 3.77 2.94 5.29-3 3.66-3.56-3.38-8.83-2.35-.1 2.45 1.8 2.9 1.77 5.3-.68-.1-1 .13-1.18.58-1.53-.23-1.64-1.88-4.12-1.17 1 2.2-.07 1.81-1.18.59-1 1.34-1.26 3.45-1.17 5.88-.85-.72-.79-2.35-2.35-2.36-.7.1-.5 1.07-.59 1.77-.47-.41-1.61-.91-1.76 0-2-1-.5-4.52 1.17-5.29-.11-.48-.59-.59-.59-1.19-2.79 2.27-4.49-1.55-6.47 1.19a1.64 1.64 0 0 1-1.18-1.77c-3.75 1-5.84 2.17-8.83 1.77a7.78 7.78 0 0 0 4.12-7.07c1.5-1.64 3.18-3.11 4.71-4.71-2.32-3.94 4.74-2.71 5.89-7.06-1.94-.81-4.44 1-6.48-.59 1.67-1.48 5.13-1.16 4.71-4.71-2.15-2-3.2-3.13-3.53-5.88-1.83-.06-1.68 1.86-4.12 1.17.72-.73 5.21-3.47 1.17-3.54.79-1 2.62-.91 3.54-1.77-.88-2.58-2.74-1.09.59-2.94-.77-1.54-1.93-1.81-3.53-1.17.82-.74.36-2.78 1.17-3.54-.54-1.6-2.06 1-2.94-.58.38-.61 1.35-.61 1.17-1.77-2.24.57-3.78-2.79-7.06-3.54.17-1.64 4.43-2.59 1.18-4.12 3.14-1.5 2.37-3.31 4.71-5.3-1-2-1.86 1.85-2.94 0 .37-3.12-2.07-3.42-1.77-6.48-2.19-.21-1.54 2.39-4.12 1.77.38-.59 1.35-.61 1.18-1.77-1.67.73-4 1-6.48 2.36-1.67-.11-.74-2.8-2.95-2.36 3.5-1 7.68-.78 11.77-2.35-1.36-2.31-1.72-4-4.12-5.3 1.6-2 .45-3.17 2.35-4.71-.78-1.48-1.93 1.55-3.53 1.19-.42-1.81.6-2.15.59-3.53-4.12 1.45-4.67.09-7.65 0-.3-2.61 3-6 .59-7.07-2.49-.14-1 3.67-3.53 3.53a3.83 3.83 0 0 0 .59-2.94c-.59-1-2.5-.64-3.54-1.17-.8.18-.49 1.48-.59 2.35-1.92.16-1.25-2.29-2.94-2.35.51 3.41 1 4.19 1.17 7.06-.95-.16-1 .55-1.77.59.21 2.15 1.2 3.51 1.77 5.29-5-1.5-6.41-6.54-11.77-7.65-1.94.88 1.22 1.44.59 2.94-1.87-1.79-2.46 1-4.71.59 1.24-.52 1-2.51 2.95-2.35-1.19-3-.34-5.26 1.76-6.48-2.15-1.11-4.66-.57-7.06-.59-1.27-.93 1.52-2.75 2.36-3.53-2.15-.48-1.72-.53.59-1.76-1.24-2.22.3-2.08 1.18-3.53-1.77-1.6-1.62 1.4-4.12 0 .41-.48.92-1.62 0-1.77a2.57 2.57 0 0 1 2.36-1.17c.21-1-.46-1.11-1.17-1.19.18-1.58 2.47-1 2.94-2.35-2.44-.64-.83-1.92-1.77-3.53-1.53.24-1.77 1.75-3.53 1.77.3-.87.86-1.48 1.17-2.35-.85.32-3-.69-2.94.58-2-.57.66-1.16.59-1.77s-.59-.58-.59-1.17c-2.16.2-2.38 2.34-5.29 1.77.28-2.6 2.23.11 3.53-1.17 0-2.85-1.41-5.38 1.77-6.48-1.35-3.09 1-2.41 1.77-4.71-1.58-2.35-3.61 2.83-2.95-1.77-1.33.43-1.76 1.77-2.36 2.94-1.78-.72.42-2.25.59-2.94-.11-.48-.59-.58-.59-1.17-1.43.33-3 .51-2.94 2.35-.7-1.84-2.58-2.53-3.54-4.12 1.33-.57 5.31-.09 7.06-1.77-.25-1.31-2.9-.24-4.12-.59.63-2.06 2.86-3.28.59-5.29.4-1.36 2-1.58 2.35-2.94-1.19-.66-3.25-.91-2.94-3.53-3.19-.15-6 1.74-8.83 0 3 .09 7.1-2.85 10-4.71.12-1-4.4-.64-1.18-1.17 0-1.59-3-1.59-2.95 0-.79-.4.17-3.6-1.76-1.77.63-.93 1.15-5.31 2.94-5.88-.2-1.26-2.57.09-2.94.58-.78.54.84-4.72-1.18-2.35-1.4-.18.66-1.59 1.18-1.77-.66-2.23-2.33.21-2.95-1.77 1.29-.87 1.66-2.65 2.95-3.54-2-.91-1.33-.78-1.18-3.52-3.22.71-5.21 2.64-8.83 2.94-.12-1.48 2.87-3.16-.59-2.94.18-1.62 3.43-2.46 0-2.94 3-.78 6.11-1.35 8.24-3-2-2.58-5.33.52-7.07-1.75-.07-.61 2.54-1.2.59-1.77 3.41.87 1.94-4.35 5.89-2.36-.13-2.46-1.86.35-2.36-1.77-1 1-1.54 2.39-3.54 2.36.52-.86.47-2.29 2.36-1.77v-2.96c-2.53.69-2.4-.05-4.72-.59a10 10 0 0 1-3.53 2.36c-.11-2.07 2-1.94 2.35-3.54-.11-.48-.59-.59-.59-1.17-2.76 0-3.56 1.93-4.12 4.12-1.51-2.5-5.63-.83-3.54 2.36-4.14-1.14-4.85-1.25-8.24-1.19 1.07 1.87 1.88 4 4.12 4.71-.5 1.73-1.48-.76-2.95 0-1.19-.18.12 1.7.59 1.77-1.53 1.12-3.49-1.4-5.89 0 .16-1.21 2.19-.56 2.36-1.77-.38-.59-1.35-.61-1.18-1.77-1 .54-2.94.2-3.53 1.19-.65-.4.12-2-1.77-2.36a2.82 2.82 0 0 0-2.36 3.53c-1.42.24-1.28-1.07-2.94-.59-.68 3.07 2.73 1.63 2.94 2.36.32 2.1-4 .11-4.71-.59-.68 2.44 1.24 2.3 1.18 4.13-2.66-2.46-2.51.71-3.53 2.35a4.12 4.12 0 0 0-3.53 0c-.23 2 2.61.92 1.77 3.53-1.55-2.18-4.16.28-2.94 1.77-.51 1.72-1.9-.35-2.95 0 1.22 2.16-.16 3.26-.59 5.29-1.15-1.88-.86-3.46-2.35-5.88-1.46.06-1.83 1.1-2.94 0-1.41 2-1.8 1.3-4.12 2.35-.25-1.12-.21-2.52-1.77-2.35 1.91-2.21 4.37-3.88 5.89-6.48-.11-.48-.59-.58-.59-1.17-3.36-.06-3.56 3.89-7.06 2.94.94-1.11-.4-3.51-1.77-4.12-.24-1.63 2.2-.56 2.36-1.77-2.34-1.34-7.7-.66-9.42.58.44-1.81-1.62-1.12-1.17-2.94h-4.12c-.06 1.83.26 3.27 1.18 4.13-.57 1.45-2.27-.82-4.12 0 .42 2.12 1.93 3.17 2.36 5.29-5.77-.77-5.88-.49-10.6-1.17-.28 1.86 1.81 1.34 1.17 3.53-.52-1.19-3-.15-1.17.58 0 .58-.72.45-1.17.59h-1.18c.27-1.75 2-3.89-.59-2.36-1.07-1.48 3.7-2.16 4.12-4.12-2.92-1.56-4.53-2.84-7.65-1.17.92-1.83 2.4-3.09 3.54-4.71-2.16-1.84-3.43-.43-5.89 0 .06-5.24 3.68-6.92 7.66-8.24-1.2-3.57 1.49-4.06 1.17-7.65-.68-.45-4.23 1.24-5.3 2.36-2.13-1.24 1.17-1.91 1.17-3-.25-1.16-2.45-3.37-2.94-2.35 1.33-3.72.21-4.38 3.54-7.06-.12-.48-.59-.59-.59-1.19-2.26.18-4.1 3-5.89 1.77 5.67-1.59 6.45-9.68-.59-8.23-3.43-2-.42-3.81 1.77-5.9-.76-1.39-3.18-1.14-4.71-1.77.08-1.3 2.49-.24 3.53-.58a3.45 3.45 0 0 0-4.71-1.77c1-2.7 3.22-2.56 4.12-4.12-1.71-2.58-4.35-1-6.48-1.77a2.61 2.61 0 0 1 2.35-1.19c1-4-4.09-3-2.94-5.88-2.05.29-3 2.06-3.53-.59-1.82.28-1.81 2.73-2.95.59a20.34 20.34 0 0 0-1.17 3.53c-1.73 0-1.74-1.79-2.95-2.36-2.47 1.17-2.19 1.44-4.71 2.36 1 2.12-.1 2.85.59 4.71-.88-.3-1.49-.87-2.36-1.17-1.36 1.29 2.31 2.75-1.77 2.35 2.82 2.76 1.2 5.1 2.35 7.65-.81-.95-2.8-.73-2.35-2.94-1.85.66-1.66.38-2.36-1.17-1.21.33-1.16 1.77-2.35.58 1.08 5.4.86 4.91 2.35 9.43-1.89-.86-2.25-3.26-4.71-3.54-1.59 1.24 1.58 1.7 0 3.54-1.17 0-.75-1.62-2.36-1.19-1.25 1.35.26 2.08-.59 4.13a4.18 4.18 0 0 0-6.47 0c-.37-3.29-2.39-3.4-4.71-3.53.86-1.69 2.7-2.41 4.12-3.54-1.51-1.17-2.54 1.57-4.12 0 2.32-3.11 2.74-4.7 4.12-8.24-.17-1.22-1.59.88-1.77-1.17-1 .53-1 2.17-2.35 2.36-1.57.95 2.19-1.3 1.18-3.53-1.92-.15-1.71 1.83-2.95 2.35-3.65-2.08 3.6-7.37-1.17-8.82-.18-1.35 1.7-.66 1.77-1.77-.64-2.08-2.89 2.08-3.53 0-1.56-1.55 1.74-1.24 1.77-2.94-1.93-1.41-2.22-1.79-2.36-4.12-1.86 2.47-2.87-.91-5.3.58.78-1.12-.43-2.36.59-4.12-2.11.39-4-2.56-1.77-4.12-.09-1.1-2-.37-2.36-1.19a10.34 10.34 0 0 1 3.53-5.29c-3.85-1-7.52-.23-9.42 2.35-.85-.71-.79-2.35-2.36-2.35 3.48-.64 7.81-.86 10-4.13-.19-1.25-2.57.1-2.95.59-.5-1.06-1.52-1.63-1.76-2.94a1.61 1.61 0 0 0-1.77 1.17c-1.09-.09-.36-2-1.18-2.35a2.58 2.58 0 0 0-2.36 1.17c-1.63.27.46-3.21-1.17-2.94.88-1.08 2.46-1.46 2.94-2.94-1.77-1.88-3.05-1-4.71-2.36-.52 1.25-2.51 1-2.35 2.94-1.42.24.33-2.68-1.77-1.77a4.23 4.23 0 0 1 1.77-1.17c-1.86-2.69-5 2.1-8.25 1.77 2.12-3 6.58-3.62 7.06-8.24-2 .22-2.55 1.77-3.53 2.94-.83-.2-.05-1 .59-1.17-1-1.63-.43-1.67-1.18-2.94a27.68 27.68 0 0 0 2.95-2.94c-1.23-1.24-2.81-2.13-4.71-1.17.17-1.2 1.59-1.16 1.76-2.36-2.09-1.55.11-3.74-3.53-3.53 1.39-.88 2.17-.88 1.17-2.94-3.64.85-1.07-1.36-4.71-1.75.3-1.48 1.57-2 1.77-3.54-1-.05-2.49-1.46-3.54-.59-1.7-.33.91-.91.59-1.77-1.51-2-2.79-1.4-5.89-2.35.86-2.63.14-3.64 1.18-6.48-.67-.57-3.89-1.53-4.12-.59-1.27 0 .9-3.83-1.18-1.77-.87 0 .12-3 1.18-2.94-2-1.92-3.74-.92-7.06-1.77 3.57-1 2.33-3 4.12-4.71-.65-2.8-3.19-1.43-4.72-2.35-1.12 1.22-2.78 1.93-2.35 4.71-1.21-1.17-2.18-2.18-1.17-4.12-1.55.15-1.93 1.21-1.77-1.17-2-.46-2.59.55-2.94 1.77-.69-.09-.5-1.07-.59-1.77-2.12-.35-2.85.68-4.12 1.17 2.13 1.39-2.23 2.25 0 3.53-2 2.7-3.28-2-5.3-1.18A10.41 10.41 0 0 0 77.76 33c-.05 2 1.73 2.19 2.94 2.94-1.55 1.05-4-1.5-6.48 0a1.6 1.6 0 0 0 1.17 1.77c-.49 1.19-2.06-1.41-2.94-1.77-2.67 2.63.09 6 2.94 6.47-1 1.72-2.14-1.33-4.12-.58-.27 1.84 1.48 1.65 2.36 2.35-1.42-.48-2.4 2.94-4.12.59-.11 1.92 1.38 2.83-1.18 2.94 1.3-1.36-.11-3.34-.59-4.71-1.21.16-1.17 1.58-1.77 2.35-1.09-.08-.36-2-1.17-2.35-3.23-.68-3.52 1.59-4.12 3.53-1-2.32-1.77-1.34-4.71-1.77-.47 2 .87 2.26.59 4.12-1.6.43-1.19-1.16-2.35-1.17-.85 2.22 1.61 1.12 1.17 2.94-2-.61-.92 1.83-1.17 2.94-2.36.2-3.27-1-5.89-.58-.43 1.6 1.17 1.19 1.18 2.35 1.29 1.43-1.12-.92-1.77-1.17a6.45 6.45 0 0 0-2.35 3.52c-.78-.2-.93-1-1.77-1.17-1.82 1.16-1.29 4 0 5.3 1.76.92-2.15.66-1.17-1.17-2.17.21-2.61 1.75-3.53 1.77-.18-.87.08-4.47-3.54-3.54-.09-2.06 1.43-2.5 1.77-4.13-2-.43-.75 2.4-2.94 1.77.15-3.27-.7-.35-2.35-.58.67-1.3 2-2 2.35-3.54-1-1.3-3.18.11-1.77-2.35-1.05-.08-1.24.72-2.36.58 1.5-1.49-1.48-1.5-2.36-2.35-.52-2.49.6-3.33 1.77-4.13-1.2-1.39-3.69-1.45-4.12.59.64-1.91-1-1.86-.59-4.13-2.16 1.51-4.75 1-7.66 1.77-1.23-.71 1.52-2.36 1.77-3.53-.51-.87-.88-1.87-2.35-1.79 1.15-1.1.18-2.16 0-3.53 1.48.1 1.84-.9 2.35-1.77-.78-2.24-1.62-1.38-2.94-3.53 5-4.24-.13-9.95-1.77-12.36-.86.32-3-.69-2.94.59-1.52-.15.81-1 0-2.36-1.85-.28-1.66 1.48-2.35 2.36-1.65-.94.82-2.65 0-4.71-2.38 1-2.53.58-4.72 1.77 1-2.13 2.95-3.34 4.12-5.3C8.29 6.67 6.43 7 6.53 5.3A4.12 4.12 0 0 1 3 5.3c-.58 1-1.06 2.18-3 1.87v751.3h1465.79zm-42.28 76.43a.6.6 0 0 1 1.19 0c-.26.84-.52-.07-1.19 0zm-55.92 20h1.77c-.2.77-1 .92-1.17 1.75-.51.11-.56-.23-.59-.58zm-235.47 97.7c0-.58.72-.46 1.17-.59-.01.58-.72.46-1.17.6zm-34.15 90c.23-.23-1.77-.63-1.77-.59-.2-.88 3.18-.77 1.8.65zm-.59-8.82c1-1.58 1.36-2.25 0-3.53-.47-1.65 2 2.78 3 3.53-.56 1.77-1.95-.3-3.01.05zm1.19-5.3c1.34-1.33-.4-2.59-1.19-3.53 3.23-1.53 2.51 2.26 3.53 4.71-1.91.78-.44-1.86-2.35-1.13zm-210.76 14.77c0-.58.72-.46 1.17-.59.02.57-.72.42-1.17.59zm-61.23 67.1c0-.58.72-.47 1.17-.59-.01.57-.75.45-1.17.59zm-227.24 67.68c0-.57.72-.45 1.18-.59-.02.58-.72.46-1.18.59zm-.59 15.9c-.77-.21-.92-1-1.77-1.18.24-1.46 2.29-.04 1.77 1.17zM360.33 266c-1.07.9-1.81 2.12-4.12 1.77a11.42 11.42 0 0 1 4.12-1.77zM1.82 12.95a1.62 1.62 0 0 1 1.76-1.17 1.62 1.62 0 0 1-1.76 1.17zm12.94 18.83c-2-.53-.51-1.31 0-2.35 1.77.39-.56 1.26 0 2.35zm74.77 8.82c-.55-.62-2.17-.18-1.77-1.76h3.54c.23 1.41-2.69-.32-1.77 1.77zm31.79 43.57a1.62 1.62 0 0 1 1.77-1.17v-1.78c1.91.99.76 3.29-1.77 2.95zm4.12-15.31c-.31.87-.87 1.49-1.18 2.36-.77.29-.26-2.92 1.18-2.36zm1.18 8.84c0 .57-.72.45-1.18.58.01-.57.72-.46 1.18-.58zm0 5.29c-.52-.35-1.05-.71-1.18 0-.67 0 .45-3 1.76-2.94a3.86 3.86 0 0 0-.58 2.95zm2.95-1.17c-.68 1.91-.67-1.58-.59-2.35.67-1.91.66 1.53.58 2.34zm1.75 1.18c-1 1.39.06-.22 0-1.17.18-2.21 1.47 1.71 0 1.17zm56.52 41.21c-.78-.21-.93-1-1.77-1.17.25-1.49 2.29-.04 1.77 1.15zm.59-2.94c-1.48-1.11 1-.06 1.77 0-.44 1.03-1.07.07-1.77-.02zm4.12 2.94c.08-.16 1.26-1.09 1.76-.59s-2.31 1.61-1.76.57zm20 63.56c.54-1 1.84-1.3 3.53-1.17a3.66 3.66 0 0 1-3.51 1.16zm4.12-5.3c-.8 1.17-4.12-.18-4.12 1.77-1.69.73 1.42-2.5 2.36-2.94.11-.49-.23-.55-.59-.58.6-1.51 2.62.45 2.37 1.74zm2.94 2.36a.59.59 0 0 1 1.17 0c-.23.84-.49-.08-1.15-.01zm4.12 2.35a1.61 1.61 0 0 0-1.18-1.75c-1.7-.14 6.55-.91 6.48 1.17-2.03-1.85-3.03.8-5.27.56zm5.88 8.84c.1-.69 1.07-.5 1.77-.59-.07.67-1.05.47-1.74.57zm5.89-8.24c1.75 0 2 1.53 3.54 1.77-.24 1.94-3.95.45-3.51-1.79zm3.54 30c0-.58.72-.45 1.17-.59.01.58-.69.45-1.15.59zm40-44.73c-.25-1.24.4-1.57.59-2.36 1.76.1 1.46 2.8-.54 2.36zm10.6-4.13c.23-.23-1.78-.63-1.77-.58-.12-.93 3.23-.83 1.82.58zm-2.89-2.92c-.45-.92-1.87-.88-1.77-2.35.74.85 3.12 1.03 1.77 2.35zm.59 4.71a4.43 4.43 0 0 0 4.12 1.17c-1.05 2.53-3.88 1.46-4.13-1.19zm4.12 10.59c0-.57.72-.45 1.17-.58-.01.55-.72.43-1.18.56zm7.65 41.79c.14-.73 1.17-.59 1.18 0-.29.84-.52-.09-1.19-.02zm1.18 17.66c0-.57.72-.45 1.17-.59-.01.56-.72.44-1.18.57zm0-10c0-.57.72-.45 1.17-.58-.01.54-.72.42-1.18.55zm4.12-48.26c-2-1.83 1.64-3 3.53-2.94-.15 1.98-3.12 1.16-3.53 2.91zm4.71 56.51a10.75 10.75 0 0 1-1.77-3.53h1.77c-.85.87-.45 1.87 1.17 1.77-.21.76-1.04.89-1.17 1.76zm.59-3.53c.57-1.94 1.16.67 1.77.59-.34 1.66-.93-.94-1.78-.63zm23.54 41.21c0-.57.73-.45 1.18-.59-.01.53-.72.42-1.18.54zm.59-11.77c-.08-1.06.72-1.25.59-2.36 1.84.72 2.56 2.54 4.71 2.94-1.14 1.45-2.96-1.37-5.3-.62zm7.06 4.71c0-.58.72-.47 1.17-.59 0 .52-.71.41-1.17.55zm4.71 0c-.84-.67-1.44-.64-1.77.58-.5.11-.55-.23-.59-.58v-1.19c1.05.1 2.96-.63 2.36 1.15zm1.77 7.65a3.35 3.35 0 0 0 .59-2.36c1-.16 1 .56 1.77.59-.93.4-.88 1.83-2.36 1.73zm4.71-7.65v1.75c-.77-.2-.93-1-1.77-1.17.1-.72 1.07-.54 1.77-.62zm1.18 10c-.55-.63-2.17-.18-1.77-1.77.55.59 2.17.15 1.77 1.72zm7.65 100.06c-1-.43-.09-1.07 0-1.77 1.08.39.08 1.03 0 1.73zM358.56 362c-.3-2.46 2.7-1.62 3.54-2.94.63.45-.89 3.76-3.54 2.94zm9.44-52.4c.18 1.55-1.23 1.52-2.36 1.77-.19-1.56 1.22-1.53 2.36-1.77zm-3.54 2.35c0 .58-.72.47-1.17.59 0-.54.71-.46 1.16-.6zm0 48.26c-.47-.11-.58-.58-1.17-.58.3-1.39 2.77-.37 1.16.58zm5.89-18.84c-.35-1.25 3.52-2.13 2.94 0-1.13-1.1-1.07.36-2.95 0zm1.77 3c1.22-.32 1.25 2.29.59.58-1.24.61-1.26.59-.61-.62zm3.54 23c.35 2.32-1.32 2.6-2.95 2.94-.23-2.31 1.45-2.55 2.93-3.03zm-.59 2.94c2.24-.87.12 2.62 2.36 1.77-.71 1.47-3.15-.08-2.43-1.86zm1.18-.59c0-.57.72-.45 1.18-.58-.04.47-.75.36-1.2.49zm2.94-22.36c-.91-1.25-2.18-2.13-4.71-1.77.11-1.86 1.94-2 4.12-1.77-.03 1.3 1 1.64.57 3.45zm49.45 6.48c.14-.64 1.17-.4 1.18-1.19.64.15.4 1.17 1.17 1.19-.4 1.66-1.27-.66-2.37-.1zm139.5 172.35c0-.58.73-.45 1.18-.59-.01.58-.72.46-1.18.59zm13 12.36c-1.76-.39.56-1.26 0-2.36 1.42.09.13 2-.05 2.36zm3.54 1.77h-1.18v-1.19c.51.11.56-.23.59-.58 1.16.33 1.19.92.53 1.77zm3.53-.59c1.61-1.55-.37-2.12-2.35-1.77.06-1.6-1-1.19 0-2.35 2.49.06 3 2.12 4.72 2.94a2.61 2.61 0 0 1-2.43 1.18zm25.91-22.37c-1.88.12-2.54-1-2.94-2.35 1.37.33 2.96.5 2.88 2.35zm-.59-4.7c0 .57-.72.46-1.18.58-.04-.57.65-.45 1.12-.58zm-2.95-2.36c.5.11.56-.23.59-.59 1.81.75-.66 1.78-1.18.59.06-.67.54-.3.53 0zm-1.23 4.7c.45-.69.12 2.59 1.17 4.12-.47-.4-1.61-.91-1.76 0-1.53-.82.43-3.04.59-4.12zm-2.35-3.53c1.4 1.19-.65-.25-1.18-.58-1.82-.77 1.69-.78 1.18.58zm-.59 4.71c.66 1.22.63 1.25-.59.59-.09-1.46.93-1.82 1.18-2.94 1.38.17-.68 1.57-.59 2.35zm10 13c-4-.16-5.54-1.15-8.24-3.53.5-.87 1.48-1.26 2.95-1.17 1.32 3.88 5.25.37 5.88 0 1.65 1.06-.11 3.71-.59 4.66zm14.72-15.9c0-.57.72-.45 1.17-.58-.01.53-.71.42-1.17.54zM690 515.6c1.85-.68 1.43.92 2.35 1.18.3.77-2.92.22-2.35-1.18zm2.94 11.77v-1.17c1.26-.28 1.13.84 1.18 1.77-.48-.12-.58-.6-1.18-.6zm21.78-7.06c1.32 2.11-1.3-2.22-1.17-.59-.67-.4-.91-4.09 1.76-4.12.14 2.52-1.95 2.4-.58 4.71zm44.15-54.16c1.31-.32.85 1.12 1.77 1.19-.24 1.46-2.64.44-1.77-1.19zm55.35 8.85h-1.77a2.76 2.76 0 0 0 .58-1.77c-.38-.61-1.35-.61-1.17-1.77 2.21-.44 1.29 2.25 2.94 2.35-.11.47-.58.59-.58 1.19zm13.53-12.36c-1.64-1.5-2.79-3.48-4.71-4.71 1.43-1.39 3.17 1.91 5.3 1.77a3.82 3.82 0 0 0-.59 2.93zm.59-10.59c.14-.64 1.17-.4 1.17-1.19.86.52 1.87.88 1.77 2.36-1.11-.22-1.05-1.7-2.93-1.22zm2.35 10c0-.57.72-.45 1.19-.59-.02.54-.72.45-1.18.54zm5.89-9.42c-.11-1.29.48-1.87 1.77-1.77-.62.55-.18 2.14-1.76 1.76zm14.13-8.24c.95 2.32-2.55.21-2.36 1.77-1.24-.38.51-2.58 2.37-1.79zm-3.54 8.84a5.49 5.49 0 0 1-3.53-2.36c-1 .53-1.49 1.64-3.52 1.19 3.69-3.32 8.38-2.07 12.36-4.72-.38 2.3-4.87 2.15-5.3 5.87zm11.83-8.86a1.64 1.64 0 0 1 1.17 1.77 1.61 1.61 0 0 1-1.17-1.77zm-3-.58c-1-.54-1-2.17-2.35-2.36.25-1.12 1.68-1.06 1.17-2.94 1.13.25 1.07 1.68 3 1.17-1.62 1.56.37 2.12 2.35 1.77-.79 1.4-3.86.5-4.17 2.36zm4.72-1.19c0-.57.72-.45 1.17-.58 0 .57-.71.46-1.16.59zm4.71.59c.09-1.46 2-.16 2.35 0-.39 1.81-1.26-.56-2.34.01zm2.94-15.89c.09-.68 1.07-.49 1.77-.58-.14.69-1.07.5-1.76.59zm1.77 4.71a2.8 2.8 0 0 0 .58-1.77 2.75 2.75 0 0 0 1.77.59c-.06 2.17-.85 1.49-2.34 1.17zm.58-2.94c-1.38-1.33 1.55.49 2.94 0 1.89.85-2.86.85-2.93 0zm2.36 5.3c-.28-1.26.85-1.12 1.77-1.17a1.64 1.64 0 0 1-1.76 1.18zm38.86-43.55c-1.4-.37.09-3.62-1.19-4.13-.47.5-1.6.35-1.77 1.19-.85-.14-.2-1.77-1.17-1.77a4.78 4.78 0 0 1 3.54-1.18c-.13 2.48 2.24 2.46 2.35 4.7a1.6 1.6 0 0 0-1.75 1.19zm1.17-5.88a.59.59 0 0 1 1.17 0c-.28.84-.5-.07-1.16 0zm3.54 1.18c0-.58.72-.46 1.17-.59 0 .57-.71.47-1.16.58zm1.17-7.07c-.8-.18-.49-1.47-.59-2.35h2.36c-.17 1.19-1.59 1.14-1.76 2.3zm6.48 28.25c0-.57.72-.45 1.17-.58 0 .56-.71.45-1.16.58zm50.62 30.61c0 .57-.72.46-1.18.58.03-.56.73-.49 1.19-.58zm-5.92 15.3c-.72-.91-2.22-1.89-2.36 0-2.8-1.83 1.4-5.44 4.13-3.53.36 2.08-2.04 1.45-1.77 3.53zm1.17-7.07c0-.57.72-.45 1.18-.58.03.57-.68.44-1.13.58zm3.53 6.48c0-.57.72-.45 1.18-.58.04.57-.67.45-1.13.58zm-.59-4.11c1.26-1.6 3.51.76 3.53 2.35-2.64.77-2.56-1.32-3.48-2.36zm-1.11-2.95c.94-1.63-1.53-2.65-1.77-1.19-1.93-.61 2.88-2.7-1.17-2.35 1.4-2.51 2.58-2.64 5.29-2.94-.39 2.56 1.06 3.26 2.36 4.11-1.6.81-2.71 2.06-4.71 2.37zm11.78 2.94c-.7-.1-1 .13-1.19.58a11.4 11.4 0 0 0-2.94-2.35c.54-.52 1.74-.1 3.53-.59-.08 1.06.71 1.25.59 2.36zm13.52-6.5c0-.58.72-.45 1.19-.59-.03.59-.74.48-1.19.59zm17.07-5.3h-1.17c.12-.49-.23-.56-.58-.58-.25-1.12 2.67-.84 1.75.61zm4.13.59c-.46-.92-1.87-.88-1.77-2.36 1.17 1 .75 0 2.35 0-1.03 1.23.44 1.19-.58 2.39zm2.94-.59c-1.77-.71.09-2.58 1.77-1.77.17 1.39-1.71.68-1.77 1.8zm1.77 4.13c.18-.81 1.47-.49 2.35-.59-.17 1.38-1.56 1.37-2.35.61zm6.47 1.75c-.69-.87-2.45-.68-2.36-2.35 1.11-1.09 2.61.41 2.36 2.38zm9.42-8.23c-.1.68.13 1 .58 1.17-.15 1.24-1.57-.86-2.35.59 0 .83-.1 1.67.59 1.77-1.36.2-.57 2.58-2.36 2.35-.4-1.8-.4-1.14 0-2.94-1.22-.25-1.55.4-2.35.59-1.75-.49 3.38-2 1.17-3 1.34-2 3.9-.1 5.29-1.17.92.39.06.69-.57.67zm-1.77-1.77c-.42-1.81-4.9-2.4-4.71 0-1-1.48-.75-.63-2.94-.59.14-2 1.76-2.56 3.54-2.94 1.65 1.88 4.82 2.24 7.06 3.54 1.38 1.34-1.55-.47-2.95.02zm3.54 2.35c.72-1.78 2.25.42 2.94.59-.41 1.48-1.57-1.06-2.94-.52zm18.84-2.35c.23-.23-1.77-.63-1.77-.59-.17-.91 3.18-.8 1.76.62zm7.65-13.53c0-.58.72-.47 1.19-.59-.04.59-.74.48-1.2.61zm4.13-5.3c-1.34-.43-1.29-2.25-2.94-2.35-.22-1.07 3.31.55 5.29.58.16 1.59-3.31-.53-2.36 1.79zm18.84-2.94c-.72-5.08 10.76-5.4 10-10.59 2.07 1.06 2.21 4.06 2.94 6.48-1-.79-.92-2.63-1.77-3.54-1.75 0-2 1.53-3.53 1.77a8.4 8.4 0 0 0 2.94 2.94c-1.48 1.67-4 2.23-5.29 4.11-1.69-.34-3.69-4.34-5.3-1.15zm4.71 5.29c.1-.68 1.07-.49 1.77-.58-.12.71-1.09.48-1.81.6zm5.3-1.17c-.78-.2-.93-1-1.77-1.17.67-1.69 4.07-.64 3.54-3.53h1.76c-.12.48-.58.59-.58 1.19a4.29 4.29 0 0 0 1.77 1.17c-.77 2.82-5.36-1.51-4.73 2.36zm18.24-88.88c-1.28-.88-1.36-2.94-3.53-2.94-.09-1.28 2.1-.27 3-.59-.49 1.82.95 1.76.52 3.55zm5.3 16.49h-1.77v-1.19h1.77zm2.35-41.21c0-.57.72-.46 1.19-.58-.04.59-.73.48-1.2.6zm3.54 23c1.24-.24 1.56.4 2.36.59-.13 1.64-2.53 1.08-2.37-.62zm2.36 2.36c0-.57.72-.45 1.17-.59-.02.55-.73.43-1.18.56zm5.88-43.55c0-.57.72-.45 1.17-.59-.02.55-.73.45-1.18.56zm1.17-3.54c.58-1.8 1.58.68 2.36.59-.54 1.81-1.99-.29-2.37-.62zm20.6-14.71c0-.58.73-.47 1.19-.59-.03.54-.73.43-1.19.57zm5.3 17.65c.21-.77 1-.92 1.17-1.77.7.1.51 1.07.59 1.77zm53-23c1-.08 1.24.72 2.35.59 0 .57-.72.45-1.17.58a33.82 33.82 0 0 0 1.77 4.13c-4.03 1.33-4.74-2.32-2.97-5.28zm28.25 14.72c-.11-1 1-1.53 0-1.77 1.38-2.03 2.6 2.15-.01 1.8zm1.77-6.48c-1.11-3.09-4-2.75-4.71-3.53.68.1 1-.13 1.17-.59 1.86.6 4.5 2.6 3.53 4.15zm1.77 15.3c0-.57.72-.45 1.17-.59-.04.61-.73.51-1.19.62zm1.77-16.49h-1.18v-1.17h1.18zm11.18 11.78c-2.31-1-2.75-3.93-2.94-7.07h2.35c.59 2.91 1.51 5.56.57 7.1zm2.36-16.49c.77.22.92 1 1.75 1.19-.51.86-.87 1.87-2.35 1.77-.5-1.64.82-1.5.59-2.93zm0 10.61c0-.58.72-.47 1.18-.59-.05.59-.74.48-1.19.62zm1.18-7.07c.06-1 2.51.57 2.35 1.77-1.22-.19-1.17-1.56-2.37-1.74zm20.6-36.49c-3.05-1.36-5.48-1.94-7.65-2.94-3.64-.52 6.15-1.19 7.65-1.77-1.43 2.51 1.16 2.5-.02 4.78zm4.71-4.13c-.7-.09-.49-1.07-.59-1.77 1-.21 1.11.47 1.19 1.19-.53-.08-.6.26-.62.61zm4.71-2.35a1.6 1.6 0 0 1 1.77 1.17c-.46-.96-4.48 1.66-1.79-1.13zm1.17-4.13c.25-.92 1.86-.49 1.17-2.35h1.77c-.23 1.73-1.93 2-2.35 3.54-.93-.18.51-1-.61-1.15zm4.13 14.72c-.25-1.22.4-1.55.58-2.36 1.03-.14 1.04 3.32-.6 2.4zm2.94-2.94a1.63 1.63 0 0 1 1.17 1.77 1.63 1.63 0 0 1-1.19-1.73zm24.7 18.9c-1.41-.88 5.86-2.27 1.77-4.13.21-.77 1-.92 1.19-1.75 1.6-.43 1.17 1.16 2.35 1.17-1.43 1.93-3.58 4.8-5.31 4.71zm8.84.58c-1.59 1.73-2.29.52-4.13 0 .25-1.12 1.69-1.06 1.19-2.94h2.94c-.88 1.06-1.58 1.97 0 2.91zm24.72-48.84c0-.58.73-.45 1.19-.59-.07.54-.74.42-1.19.56zm65.34 21.78c0-.58.72-.45 1.19-.59-.03.54-.72.42-1.19.56zm16.49-13c-1.6.43-1.19-1.16-2.35-1.17.53-2 1.09-.29 2.94-.59a2.77 2.77 0 0 0-.59 1.77zm10.59-90c.22-.23-1.77-.63-1.77-.59-.16-.93 3.2-.86 1.77.55zm4.72-11.78c.67.11.32.59 0 .59-.11.5.23.56.58.59-.74 1.78-1.76-.68-.6-1.21z"/><path d="M36 60.63c.68 2.32.68-2.32 0 0zm88.85 0c-1.6 1.79 1.79-1.62 0 0zm-86.54 2.94c.39.38-.24-.25 0 0zm84.78 8.83c.38.39-.25-.24 0 0zm5.29 11.18c.38.38-.25-.25 0 0zm-2.94 1.77c.39.38-.25-.25 0 0zm5.88 0c.39.38-.25-.25 0 0zM129 89.46c.39.39-.25-.24 0 0zm-4.74 4.13c2.92-.8.92-2.79 0 0zM136 95.94c.38.39-.24-.25 0 0zm9.46 4.71c-1.43 2 2-1.43 0 0zm1310.44 3.53c.39.38-.25-.25 0 0zm-1312.21.58c.38.39-.25-.24 0 0zm50.62 14.72c1.79 1.6-1.6-1.79 0 0zm4.13.6c.39.38-.25-.25 0 0zm-14.13 1.75c.39.39-.25-.24 0 0zm-28.85 1.77c-.1 4.54 1.39-1.89 0 0zm45.33 2.94c4.07.62 1.95-2.34 0 0zm-16.48 0c.39.39-.25-.24 0 0zm20.02 7.66c.38.38-.25-.25 0 0zm-31.79 2.35c.38.38-.25-.25 0 0zm0 2.94c.38.39-.25-.24 0 0zm1272.17 9.42c.39.39-.24-.25 0 0zM210.8 154.79c.39.39-.25-.24 0 0zm1224.49 4.71c.39.39-.25-.24 0 0zm-1226.84 4.13c.38.38-.25-.25 0 0zm89.48 2.94c.38.38-.25-.25 0 0zm-23.55 3.53c.39.39-.25-.24 0 0zm1152.08 4.72c.57 1.39-1.84-4.62 0 0zm-1130.3-1.19c.38.39-.25-.24 0 0zm-15.89 2.94c.38.39-.25-.24 0 0zm-51.22.6c.38.38-.25-.25 0 0zm69.47.58c.39.39-.25-.24 0 0zm1132.06 0c.38.39-.25-.24 0 0zm-1181.51 5.89c.38.38-.25-.25 0 0zm57.1.58c.38.39-.25-.24 0 0zm-52.39 1.19c-1.61 1.78 1.79-1.62 0 0zm-.59 2.35c.68 2.32.68-2.32 0 0zM209 190.7c.39.39-.25-.24 0 0zm38.89 1.17c.39.39-.24-.24 0 0zM1355.23 196c.39.38-.25-.25 0 0zm-1059.65 8.83c.68 2.32.68-2.32 0 0zM1357 207.77c.39.39-.25-.24 0 0zm84.18 0c1.79 1.6-1.61-1.79 0 0zm-140.11 2.94c.39.39-.25-.24 0 0zM234.94 216c.68 2.32.68-2.32 0 0zm1197.41 1.19c.38.39-.25-.24 0 0zm-1.17 1.81c.38.39-.25-.25 0 0zm-1122.06 1.72c1.55 3.11-1.12-2.24 0 0zm3.52 0c.38.38-.25-.25 0 0zm1032.58 0c.39.38-.24-.25 0 0zm-1037.28 1.17c-3.13-.63-.69 1.79 0 0zm997.84.6c.39.38-.24-.25 0 0zm1.76.58c.38.39-.25-.24 0 0zm-991.95 0c-1.63 2.25 2.16 2.59 0 0zm1001.97 4.71c.38.39-.25-.24 0 0zm80.64 1.22c.39.38-.24-.25 0 0zm-1.2.54c.68 2.34.68-2.32 0 0zm-83.57.6c.39.38-.24-.25 0 0zm105.97 0c.38.38-.24-.25 0 0zm-110.09 0c-3.13-.64-.7 1.79 0 0zm93.02.58c.38.39-.25-.24 0 0zm-1100.87 1.77c.39.39-.25-.24 0 0zm12.95 0c.68 2.34.68-2.32 0 0zm-1.17 1.18c-1.79 2 2.18 1.78 0 0zm1119.11 1.76c.38.39-.25-.24 0 0zM320.3 236c.39.39-.24-.25 0 0zm960.7 0c1.79 1.6-1.61-1.79 0 0zm-983.07 1.19c.38.39-.25-.24 0 0zm1.17 1.81c.39.39-.25-.24 0 0zm974.9 0c.39.39-.25-.24 0 0zm66.51 0c1.79 1.6-1.6-1.79 0 0zM302 239.55c.39.38-.24-.25 0 0zm4.76 1.18c.38.39-.25-.24 0 0zm926.02 8.82c.38.39-.25-.24 0 0zm40.04 1.77c.38.39-.25-.24 0 0zm-948.99 2.94c.39.39-.25-.24 0 0zm922.49 2.36c-2.82-1.64-1.43 1.93 0 0zm5.3 7.65c.68 2.32.68-2.32 0 0zM353.86 266c.38.38-.25-.25 0 0zm-20.02 1.22c.38.39-.25-.24 0 0zm2.36.59c.86 1.94 1.46-2.3 0 0zm18.24 0c.38.38-.25-.25 0 0zm4.71 1.19c.38.38-.25-.25 0 0zm-10.6.58c.39.38-.25-.25 0 0zm914.85.58c-1.62 1.79 1.78-1.6 0 0zm-901.89 1.76c.38.39-.25-.24 0 0zm807.7 4.71c.38.39-.25-.24 0 0zm-839.49 1.77c1.79 1.6-1.61-1.79 0 0zm927.78 0c.39.38-.24-.25 0 0zm-907.18.6c-2-1.78-1.78 2.18 0 0zm6.48 1.75c-1.61 1.79 1.79-1.6 0 0zm819.46 1.19c.39.38-.24-.25 0 0zm83.6 1.17c-1.68 2.89 1.11-1.92 0 0zm-120.09 1.17c.68 2.32.68-2.32 0 0zm25.31 2.36c.39.38-.24-.25 0 0zM369.75 299c.38.38-.25-.25 0 0zm767.08 2.35c.38.39-.25-.24 0 0zm-1.18 1.18c.38.39-.25-.24 0 0zm-10.01 1.76c-1.6 1.79 1.79-1.6 0 0zm-5.3 2.36c.39.38-.24-.25 0 0zm-754.12 7.06c.86 2 1.47-2.3 0 0zm-4.71.6c.38.38-.25-.25 0 0zm8.24 12.95c.38.38-.25-.25 0 0zm742.34 0c2.9 1.67-1.92-1.11 0 0zM419.2 329c.38.39-.25-.24 0 0zm698.2 11.2c.38.39-.25-.24 0 0zm2.34 1.17c.68 2.34.68-2.32 0 0zm-750.58.63c.38.39-.25-.24 0 0zm2.36 1.73c.39.38-.25-.25 0 0zm1.76 5.89c.69 2.32.69-2.32 0 0zm77.72.59c.38.38-.25-.25 0 0zm-73.6 2.94c.68 2.32.68-2.32 0 0zm765.31 1.77c.39.38-.24-.25 0 0zm-689.95 1.17c-1.61 1.79 1.79-1.6 0 0zm-103.61.6c.38.38-.25-.25 0 0zm25.31 1.17c.38.38-.25-.25 0 0zm-1.18 4.14c.69 2.32.69-2.32 0 0zm88.31 5.28c.68 2.32.68-2.32 0 0zm435.64 6.47c.68 2.32.68-2.34 0 0zm-538.08 4.71c.38.38-.25-.25 0 0zm104.79 1.18c.39.38-.25-.25 0 0zm457.42.59c.68 2.32.68-2.33 0 0zm-558.09.58c.38.39-.25-.24 0 0zm556.33 2.36c-1.43 2 2-1.43 0 0zm179.54 7.65c.39.38-.24-.25 0 0zm-204.86 4.71c.18 3.57 1.15-2.25 0 0zm207.81 0c.68 2.32.68-2.32 0 0zm8.83 3.54c.39.38-.25-.25 0 0zm-240.77 1.75c.38.39-.25-.24 0 0zm212.52 2.36c.68 2.32.68-2.32 0 0zm-16.49 1.77c1.79 1.6-1.6-1.79 0 0zm35.32 4.71c-1.6 1.79 1.79-1.62 0 0zm-27.08.58c.38.39-.25-.24 0 0zm-10.01 3.53c1.79 1.6-1.6-1.79 0 0zm33.59 2.35c.86 2 1.46-2.28 0 0zm-598.15.59c.38.39-.25-.24 0 0zm576.92 3.54c.39.38-.24-.25 0 0zm1.77 1.75c.39.38-.24-.25 0 0zm-210.16 2.36c.38.39-.25-.24 0 0zm176.02 0c.38.39-.25-.24 0 0zm16.48 8.25c.86 1.94 1.46-2.3 0 0zm-291.4.59c.86 1.94 1.47-2.3 0 0zm293.76.58c.38.39-.25-.24 0 0zm-207.24.6c1.79 1.6-1.6-1.79 0 0zm22.39 0c1.78 1.6-1.62-1.79 0 0zM982 435.55c.38.38-.25-.24 0 0zm28.84 1.77c-.78-2.92-2.79-.92 0 0zm-146.59.59c.39.38-.24-.25 0 0zm-89.48 2.35c.68 2.32.68-2.32 0 0zm259.03 0c.39.38-.24-.25 0 0zm-200.16.59c-2.37-2.07-1.37 1.89 0 0zm15.36.58c-1.6 1.79 1.79-1.6 0 0zm143 1.18c.68 2.34.68-2.32 0 0zm-139.51.59c1.46 2.3.86-1.94 0 0zm161.88 0c.39.39-.24-.25 0 0zm-229.59 3.53c.39.38-.24-.25 0 0zm-2.35 1.18c-1.68 2.89 1.1-1.92 0 0zm188.97.59c.68 2.32.68-2.32 0 0zm21.78 0c2.57 3.06-1.07-1.88 0 0zm-215.46.58c.38.39-.25-.24 0 0zm207.22 0c.38.39-.25-.24 0 0zm-218.4.6c.85 1.94 1.47-2.3 0 0zm220.17 0c-1.68 2.89 1.11-1.92 0 0zm-222.53 1.76c.39.38-.25-.25 0 0zm207.82 0c.68 2.32.68-2.32 0 0zm14.71 1.18c.38.39-.25-.24 0 0zm-226.07.59c.39.38-.24-.25 0 0zm211.94.58c.38.39-.25-.24 0 0zm-208.4 3.54c-3.38-1.75-1.94 1.86 0 0zm17.66-.59c-2.92.78-.92 2.79 0 0zm-17.66 3.53c.39.39-.25-.24 0 0zm35.91 1.73c.38.39-.25-.25 0 0zm-.59 1.21c.38.39-.25-.24 0 0zm-55.93 1.18c.38.39-.25-.24 0 0zm9.43 0c.38.39-.25-.24 0 0zm.59 1.76c1.55 3.12-1.12-2.23 0 0zm-4.72.6c.38.39-.25-.24 0 0zm62.41.59c.68 2.32.68-2.34 0 0zm-1.19 1.17c.39.38-.24-.25 0 0zm-4.71 1.77c-1.61 1.79 1.79-1.62 0 0zm4.71 1.72c.39.38-.24-.25 0 0zm-64.16 3c1.79 1.6-1.61-1.79 0 0zm-1.77 15.88c.38.38-.25-.25 0 0zM640 505c.38.39-.25-.24 0 0zm61.19 1.18c.39.38-.25-.25 0 0zm-102.44 2.35c.39.39-.25-.24 0 0zm130.1 0c.38.39-.25-.24 0 0zm-93.6.6c-1.6 1.79 1.79-1.6 0 0zm-2.94 1.17c.68 2.32.68-2.32 0 0zm-31.79 3.53c-.78-2.92-2.78-.92 0 0zm28.26 0c-1.61 1.79 1.79-1.62 0 0zm59.45.58c.38.39-.25-.24 0 0zm-68.28 1.19c1.79 1.6-1.61-1.79 0 0zm-17.08.58c.86 2 1.46-2.3 0 0zm-45.33.6c.39.38-.25-.25 0 0zm158.37 1.17c.38.39-.25-.24 0 0zm-30.62 1.17c.39.39-.25-.24 0 0zm6.48 1.19c.38.38-.25-.25 0 0zm-147.77.58c.38.39-.25-.24 0 0zm144.82 0c.39.39-.25-.24 0 0zm0 3.54c-3.12-.64-.69 1.79 0 0zm-68.87 1.17c.38.39-.25-.24 0 0zm69.47 0c.38.39-.25-.24 0 0zm-115.98.59c.38.38-.25-.25 0 0zm114.79 1.18c1.47 2.3.86-1.94 0 0zm14.14 2.94c.39.39-.25-.24 0 0zm-96.55.59c1.47 2.3.86-2 0 0zm-1.18.58c.39.39-.25-.24 0 0zm51.81 1.19c.38.38-.25-.25 0 0zm-61.82.58c.86 2 1.46-2.3 0 0zm-69.47 4.13c.68 2.32.68-2.32 0 0z"/></g></svg>