<?xml version="1.0" encoding="utf-8"?><svg xmlns="http://www.w3.org/2000/svg" xmlns:xlink="http://www.w3.org/1999/xlink"><symbol viewBox="0 0 22 23" id="alarm"><path d="M4.8 20.9L4 22a.7.7 0 1 0 1.1.8l.9-1.2a11 11 0 0 1-1.2-.7zM18 22l-.8-1.2a11 11 0 0 1-1.1.7l.8 1.3a.7.7 0 1 0 1.2-.8zM4.6 0A4.6 4.6 0 0 0 .8 7.2a11.2 11.2 0 0 1 6.8-6.1 4.6 4.6 0 0 0-3-1.1zm12.8 0a4.6 4.6 0 0 0-3 1 11.2 11.2 0 0 1 6.8 6.2A4.6 4.6 0 0 0 17.4 0zM11 5.8a5.9 5.9 0 1 0 5.9 5.9 5.9 5.9 0 0 0-5.9-6zm2 7.8a.7.7 0 0 1-1 0l-1.5-1.4a.7.7 0 0 1-.2-.5V8.6a.7.7 0 1 1 1.4 0v2.8l1.3 1.3a.7.7 0 0 1 0 1z"/><path d="M17.9 4.8A9.7 9.7 0 0 0 4 18.6 9.7 9.7 0 0 0 18 4.8zM11 18.9a7.3 7.3 0 1 1 7.3-7.2 7.3 7.3 0 0 1-7.3 7.2z"/></symbol><symbol viewBox="0 0 640 640" id="arrow-left"><path d="M122 288L317 94l-45-46L0 320l272 272 45-46-195-194h518v-64H122z"/></symbol><symbol viewBox="0 0 47 48" id="arrow-left-round"><path d="M20.8 15.2a1 1 0 0 0-1.1-1.1 1 1 0 0 0-.8.3L10.3 23a1 1 0 0 0 0 1.5l8.6 8.7a1 1 0 0 0 .8.3 1 1 0 0 0 .8-1.8l-6.9-6.9h27.7a1 1 0 0 0 0-2.1H13.6l6.8-6.8a1 1 0 0 0 .4-.8M47 28.6a1 1 0 0 0 .1-.5 1 1 0 1 0-2.2 0 21.6 21.6 0 1 1 0-8.6A1 1 0 1 0 47 19a23.8 23.8 0 1 0 0 9.6"/></symbol><symbol viewBox="0 0 47 48" id="arrow-right-round"><path d="M26.4 32.5a1 1 0 0 0 1.1 1 1 1 0 0 0 .8-.3l8.7-8.6a1 1 0 0 0 0-1.6l-8.7-8.6a1 1 0 0 0-1.9.8 1 1 0 0 0 .4.7l6.8 6.8H5.9a1 1 0 0 0 0 2.2h27.7l-6.8 6.8a1 1 0 0 0-.4.8M.1 19a1 1 0 0 0-.1.5 1 1 0 1 0 2.2 0 21.6 21.6 0 1 1 0 8.6 1 1 0 1 0-2.2 0 1 1 0 0 0 .1.5 23.8 23.8 0 1 0 0-9.6"/></symbol><symbol viewBox="0 0 25 22" id="balcony"><path fill="#176162" d="M23.7 14h-4.4V7a7 7 0 1 0-14 0v7H1a1 1 0 0 0 0 2h.3v5a1 1 0 0 0 1 1h20a1 1 0 0 0 1-1v-5h.4a1 1 0 0 0 0-2zM11.3 2.1V7h-4a5 5 0 0 1 4-4.9zM7.3 9h4v5h-4zm10 5h-4V9h4zm-4-7V2.1a5 5 0 0 1 4 4.9z"/></symbol><symbol viewBox="0 0 22 22" id="bathrobe"><path d="M13.9.6a1.3 1.3 0 0 0-1.1-.6H9.2a1.3 1.3 0 0 0-1.1 1.9l2.3 4.7a.6.6 0 0 0 1.2 0l2.3-4.7a1.3 1.3 0 0 0 0-1.3zM10 8a2 2 0 0 1-.7-.8L6.9 2.4a2.5 2.5 0 0 1-.2-1l-3.1.7A3.2 3.2 0 0 0 1 5l-1 7.2a.7.7 0 0 0 .6.7h4.5l-1.2-7a.7.7 0 0 1 .6-.7.6.6 0 0 1 .7.5l1.2 7.2h6.1zm8 13.3l-1-7.1h-2.8V22h3.2a.6.6 0 0 0 .7-.8zm4-9.1l-1.1-7.3a3.2 3.2 0 0 0-2.5-2.7l-3-.7a2.6 2.6 0 0 1-.3 1l-2.4 4.7a2 2 0 0 1-1.1 1l2.4 4.7h1.6L16.9 7a.6.6 0 1 1 1.3.3L17 12.9h4.5a.6.6 0 0 0 .6-.7zm-11.8 5.7a.6.6 0 0 1-1-1l2.8-2.7H5l-1 7a.6.6 0 0 0 .6.8h8.3v-7z"/></symbol><symbol viewBox="0 0 22 23" id="bathroom"><path d="M22 13.1a.7.7 0 0 0-.7-.6H.7a.7.7 0 0 0-.7.6 7.1 7.1 0 0 0 4.6 6.7 3 3 0 0 0-.8 2 .7.7 0 0 0 1.3 0 1.6 1.6 0 0 1 1.6-1.6h8.6A1.6 1.6 0 0 1 17 22a.7.7 0 1 0 1.3 0 3 3 0 0 0-.8-2.1A7.1 7.1 0 0 0 22 13zM16.7 0a3.3 3.3 0 0 0-3.3 3.3v1.2a.7.7 0 1 0 1.4 0V3.3a2 2 0 1 1 3.8 0V11H20V3.3A3.3 3.3 0 0 0 16.7 0zm-2.6 6.2a.7.7 0 0 0-.7.7v.6a.7.7 0 1 0 1.4 0v-.6a.7.7 0 0 0-.7-.7zm0 3a.7.7 0 0 0-.7.7v.5a.7.7 0 0 0 1.4 0v-.6a.7.7 0 0 0-.7-.6z"/></symbol><symbol viewBox="0 0 16 25" id="best-place"><path d="M8.6 7.5L8 6.2l-.6 1.3-1.5.3 1 1-.2 1.4L8 9.5l1.3.7L9 8.8l1-1z"/><path d="M16 8a8 8 0 0 0-8-8 8 8 0 0 0-8 8 8 8 0 0 0 1.3 4.3L8 22.5l6.2-9.4A8 8 0 0 0 16 8zm-4.8 4.8L8 11l-3.2 1.7.6-3.6-2.6-2.5 3.6-.5L8 3l1.6 3.2 3.6.5-2.6 2.6zm2 4.4l-5 7.6c4.4 0 7.8-2 7.8-4.3 0-1.3-1-2.5-2.7-3.3zM0 20.5c0 2.4 3.4 4.3 7.8 4.3l-5.1-7.6C1 18 0 19.2 0 20.5z"/></symbol><symbol viewBox="0 0 768 768" id="chevron-right"><path d="M587 346L258 16c-22-21-55-21-77 0s-22 55 0 77l291 291-291 291a53 53 0 0 0 0 77c11 11 22 16 38 16s28-5 39-16l329-330c22-22 22-54 0-76z"/></symbol><symbol viewBox="0 0 768 768" id="close"><path d="M768 77L461 384l307 307-77 77-307-307L77 768 0 691l307-307L0 77 77 0l307 307L691 0z"/></symbol><symbol viewBox="0 0 31 31" id="envelope"><path d="M25.1 21.5a.5.5 0 0 1-.3-.1L19 16a.5.5 0 1 1 .7-.8l5.8 5.4a.5.5 0 0 1-.4 1zM6 21.5a.5.5 0 0 1-.3-.9l5.7-5.4a.5.5 0 0 1 .7.8l-5.8 5.4a.5.5 0 0 1-.3.1z"/><path d="M28.5 26.5h-26A2.5 2.5 0 0 1 0 24V7c0-1.4 1.1-2.5 2.5-2.5h26C30 4.5 31 5.6 31 7v17c0 1.4-1.1 2.5-2.5 2.5zm-26-21C1.7 5.5 1 6.2 1 7v17c0 .9.7 1.5 1.5 1.5h26c.8 0 1.5-.6 1.5-1.5V7c0-.8-.7-1.5-1.5-1.5h-26z"/><path d="M15.5 18c-.7 0-1.3-.2-1.8-.6L.8 6.2a.5.5 0 0 1 0-.8.5.5 0 0 1 .7 0l12.8 11.2c.7.6 1.7.6 2.4 0L29.5 5.4a.5.5 0 0 1 .7.8L17.3 17.4c-.5.4-1.1.6-1.8.6z"/></symbol><symbol viewBox="0 0 512 512" id="facebook"><path d="M304 96h80V0h-80c-62 0-112 50-112 112v48h-64v96h64v256h96V256h80l16-96h-96v-48c0-9 7-16 16-16z"/></symbol><symbol viewBox="0 0 27 20" id="fireplace"><path d="M20.1 11.4a.5.5 0 0 0 .8 0c0-.1 2-2.3.5-4.1-.8-1-.2-1.6 0-1.7a.5.5 0 0 0-.7-.8 2.1 2.1 0 0 0-.1 3.1c.9 1.1-.5 2.8-.5 2.8a.5.5 0 0 0 0 .7zm4.5-.7a.5.5 0 1 0 .8.7c.1-.1 2-2.3.6-4.1-.8-1-.3-1.6-.1-1.7a.5.5 0 0 0-.7-.8 2.1 2.1 0 0 0 0 3.1c.8 1.2-.5 2.8-.6 2.8zM6 4.8a.5.5 0 0 0-.7.8c.2.1.8.7 0 1.7-1.5 1.8.4 4 .5 4a.5.5 0 1 0 .8-.6S5.2 9.1 6 8a2.1 2.1 0 0 0 0-3zm-4.8 6.6a.5.5 0 0 0 .8-.7S.6 9.1 1.5 7.9a2.1 2.1 0 0 0 0-3 .5.5 0 0 0-.7.7c.1.1.7.7 0 1.7-1.5 1.8.4 4 .4 4z"/><circle cx="13.5" cy="2.7" r="2.7"/><path d="M1.6 17.7h7.8a1 1 0 0 0 1-1v-2a1.6 1.6 0 0 1 3-.4 1.6 1.6 0 0 1 3.1.4v2a1 1 0 0 0 1 1h8a1.5 1.5 0 1 0 0-3h-6a1 1 0 0 0 .2-1.2l-2.8-6a1 1 0 0 0-.2-.2 2.4 2.4 0 0 0-2.5-1.5h-1.4a2.4 2.4 0 0 0-2.5 1.4 1 1 0 0 0-.3.3l-2.8 6a1 1 0 0 0 .2 1.1H1.6a1.5 1.5 0 1 0 0 3zm15.2-3.4v-2l1 2.1a1 1 0 0 0 .2.2h-1.2a2.6 2.6 0 0 0 0-.3zm-7.7.1l1.1-2.3v2.1a2.6 2.6 0 0 0 0 .4H9a1 1 0 0 0 .1-.2z"/><path d="M11 14.6v4.5a1 1 0 0 0 2 0v-4.5a1 1 0 0 0-2 0zm3 0v4.5a1 1 0 0 0 2 0v-4.5a1 1 0 0 0-2 0z"/></symbol><symbol viewBox="0 0 22 23" id="garage"><path d="M21.4 6.4l-9.2-6a2.3 2.3 0 0 0-2.4 0l-9.3 6a1.2 1.2 0 1 0 1.4 2L11 2.5l9 6a1.2 1.2 0 1 0 1.4-2.1z"/><path d="M19.1 13.8a1 1 0 0 0-.9-.7h-.5l-.2-2a4.1 4.1 0 0 0-4.1-3.8H8.6a4.1 4.1 0 0 0-4.1 3.8l-.2 2h-.5a1 1 0 0 0-1 .7l-.7 4.3A1.8 1.8 0 0 0 4 20.2v.7a1.8 1.8 0 0 0 1.8 1.9h.5a1.8 1.8 0 0 0 1.9-1.9v-.7H14v.7a1.8 1.8 0 0 0 1.8 1.8h.5a1.8 1.8 0 0 0 1.8-1.8v-.7a1.8 1.8 0 0 0 1.8-2.1zM5.5 18.6A1.5 1.5 0 1 1 7 17.1a1.5 1.5 0 0 1-1.5 1.5zm.3-5.5l.2-1.9A2.6 2.6 0 0 1 8.6 9H9v.6a.9.9 0 0 0 .9.9h2.4a.9.9 0 0 0 1-1V9h.2a2.6 2.6 0 0 1 2.6 2.3l.2 1.9zm10.7 5.5a1.5 1.5 0 1 1 1.6-1.5 1.5 1.5 0 0 1-1.6 1.5z"/></symbol><symbol viewBox="0 0 14 23" id="golf"><path d="M11.3 5.7H9v5.8H7.7V3.9h3.6V2.7A2.7 2.7 0 0 0 8.6 0H6.3v11.5H5v-7H2.7A2.7 2.7 0 0 0 0 7.4v1.2h3.6v3H0V15h14v-3.6h-3.6V9.7H14V8.5a2.7 2.7 0 0 0-2.7-2.8zM1 16h11.2v7H1z"/></symbol><symbol viewBox="0 0 22 22" id="hairdryer"><path d="M13.7 3.9a2.7 2.7 0 1 0 2.7 2.7 2.7 2.7 0 0 0-2.7-2.7zM0 0v5.7l2.6.7V0H0z"/><path d="M13.7 0H3.9v6.8l3.3 1a6.6 6.6 0 0 0 3.8 4.8v1.5h5.4v-1.5A6.6 6.6 0 0 0 13.7 0zm0 10.6a4 4 0 1 1 4-4 4 4 0 0 1-4 4z"/><path d="M20.6 13.2a3 3 0 0 0-3 3V19a1.7 1.7 0 0 1-3.3.3 2.7 2.7 0 0 0 2-2.6v-1.3H11v1.4a2.7 2.7 0 0 0 2 2.6 3 3 0 0 0 6-.4v-2.9a1.7 1.7 0 0 1 1.6-1.7H22v-1.3z"/></symbol><symbol viewBox="0 0 23 21" id="heating"><path d="M21.2 0H2a2 2 0 0 0-2 2v6.6h23.2V2a2 2 0 0 0-2-2zM0 10v.2a2 2 0 0 0 2 2h19.2a2 2 0 0 0 2-2V10zm11.6 7a1.5 1.5 0 0 1 .5-1.1 2.8 2.8 0 0 0 1-2 .7.7 0 1 0-1.4 0A1.5 1.5 0 0 1 11 15a2.8 2.8 0 0 0 0 4.1 1.5 1.5 0 0 1 .6 1.1.7.7 0 0 0 1.3 0 2.8 2.8 0 0 0-.9-2 1.5 1.5 0 0 1-.5-1.2zm4.5 0a1.5 1.5 0 0 1 .6-1.1 2.8 2.8 0 0 0 .9-2 .7.7 0 1 0-1.4 0 1.5 1.5 0 0 1-.5 1.1 2.8 2.8 0 0 0 0 4.1 1.5 1.5 0 0 1 .5 1.1.7.7 0 0 0 1.4 0 2.8 2.8 0 0 0-1-2 1.5 1.5 0 0 1-.5-1.2zM7 17a1.5 1.5 0 0 1 .6-1.1 2.8 2.8 0 0 0 .9-2 .7.7 0 1 0-1.4 0 1.5 1.5 0 0 1-.5 1.1 2.8 2.8 0 0 0 0 4.1 1.5 1.5 0 0 1 .5 1.1.7.7 0 0 0 1.4 0 2.8 2.8 0 0 0-1-2A1.5 1.5 0 0 1 7 17z"/></symbol><symbol viewBox="0 0 640 640" id="instagram"><path d="M569 0H71C32 0 0 32 0 71v498c0 39 32 71 71 71h498c39 0 71-32 71-71V71c0-39-32-71-71-71zM319 516a197 197 0 0 0 194-232h56v257c0 14-11 25-25 25H96c-14 0-25-11-25-25V284h55c-2 12-4 23-4 35 0 109 89 197 197 197zM196 319a123 123 0 1 1 247 0 123 123 0 0 1-247 0zm348-141h-57c-14 0-25-11-25-25V96c0-14 11-25 25-25h57c14 0 25 11 25 25v57c0 14-11 25-25 25z"/></symbol><symbol viewBox="0 0 22 21" id="jacuzzi"><path d="M20.6 2.2a.4.4 0 0 1 0-.8A.7.7 0 0 0 20 0a1.9 1.9 0 0 0 0 3.5.4.4 0 0 1 0 .8.7.7 0 1 0 .5 1.4 1.9 1.9 0 0 0 0-3.5zm-3.6 0a.4.4 0 0 1 0-.8.7.7 0 0 0-.5-1.4 1.9 1.9 0 0 0 0 3.5.4.4 0 0 1 0 .8.7.7 0 1 0 .5 1.4 1.9 1.9 0 0 0 0-3.5zm-11.5 0a.4.4 0 0 1 0-.8A.7.7 0 1 0 5 0a1.9 1.9 0 0 0 0 3.5.4.4 0 0 1 0 .8.7.7 0 1 0 .5 1.4 1.9 1.9 0 0 0 0-3.5zM2 2.2a.4.4 0 0 1 0-.8.7.7 0 1 0-.5-1.4 1.9 1.9 0 0 0 0 3.5.4.4 0 0 1 0 .8.7.7 0 1 0 .5 1.4 1.9 1.9 0 0 0 0-3.5zM22 20a.7.7 0 0 0-1-.3 3.2 3.2 0 0 1-3-.3 4.6 4.6 0 0 0-5.2 0 3.1 3.1 0 0 1-3.5 0 4.6 4.6 0 0 0-5.1 0 3.2 3.2 0 0 1-3.1.3.7.7 0 1 0-.6 1.3 4.6 4.6 0 0 0 4.5-.3 3.1 3.1 0 0 1 3.5 0 4.6 4.6 0 0 0 5.1 0 3.1 3.1 0 0 1 3.6 0 4.6 4.6 0 0 0 4.5.3.7.7 0 0 0 .3-1zM18.2 8.6H3.8A2.9 2.9 0 0 0 1 11.5v2.8a1.5 1.5 0 0 0 1.1 1.5A1.4 1.4 0 0 0 4 14.3v-2.1a.7.7 0 0 1 .7-.7H6a.7.7 0 0 1 .7.7v2.2h.5a4 4 0 0 1 2.7 1 1.7 1.7 0 0 0 2 .1 6 6 0 0 1 3.4-1v-2.3a.7.7 0 0 1 .7-.7h1.4a.7.7 0 0 1 .8.7v2.1a1.5 1.5 0 0 0 1.1 1.5 1.4 1.4 0 0 0 1.7-1.5v-2.8a2.9 2.9 0 0 0-2.8-2.9zM11 1.4a2.9 2.9 0 1 0 2.9 2.9A2.9 2.9 0 0 0 11 1.4z"/><path d="M22 17.2a.7.7 0 0 0-1-.4 3.2 3.2 0 0 1-3.2-.2 4.6 4.6 0 0 0-5 0 3.1 3.1 0 0 1-3.6 0 4.6 4.6 0 0 0-5.1 0 3.2 3.2 0 0 1-3.1.2.7.7 0 1 0-.6 1.3 4.6 4.6 0 0 0 4.5-.3 3.2 3.2 0 0 1 3.5 0 4.6 4.6 0 0 0 5.1 0 3.2 3.2 0 0 1 3.5 0 4.6 4.6 0 0 0 4.6.3.7.7 0 0 0 .3-1z"/></symbol><symbol viewBox="0 0 410 410" id="location"><path d="M205 0C119 0 50 70 50 156c0 83 143 245 149 252a8 8 0 0 0 12 0c6-7 150-169 150-252C361 70 291 0 205 0zm0 390C178 358 66 224 66 155a139 139 0 1 1 279 0c0 69-112 203-140 235z"/><path d="M208 78a84 84 0 1 0 0 168 84 84 0 0 0 0-168zm0 153a68 68 0 1 1 0-137 68 68 0 0 1 0 137z"/></symbol><symbol viewBox="0 0 20 20" id="menu"><path d="M0 3h20v2H0V3zm0 6h20v2H0V9zm0 6h20v2H0v-2z"/></symbol><symbol viewBox="0 0 463 463" id="phone"><path d="M463 381c-2-11-8-21-18-26l-114-66c-14-8-32-6-43 6l-23 22c-6 6-15 7-22 1a650 650 0 0 1-98-98c-6-7-5-16 1-22l22-23c12-11 14-29 6-43L108 18C103 8 93 2 82 0 71-1 60 3 52 10L18 44c-24 24-24 67-1 122 22 53 63 111 116 164s111 94 164 116c27 11 51 17 71 17 22 0 39-6 51-18l34-34c7-8 11-19 10-30zm-140-79l115 66a21 21 0 0 1 6 30l-152-87 6-6c7-6 17-8 25-3zM80 15c6 1 12 5 15 10l66 115c5 8 3 18-3 25l-6 5L65 19a21 21 0 0 1 15-4zm328 419c-19 19-57 18-105-2-52-21-108-61-159-113-52-51-92-107-113-159-20-48-21-86-2-105l25-25 87 151-6 6a31 31 0 0 0-2 42 665 665 0 0 0 101 101c12 10 30 9 42-2l5-6 152 87-25 25z"/></symbol><symbol viewBox="0 0 60 60" id="play"><path d="M46 29L24 14a1 1 0 1 0-2 1v30a1 1 0 0 0 2 1l22-15a1 1 0 0 0 0-2zM24 43V17l19 13-19 13z"/><path d="M30 0a30 30 0 1 0 0 60 30 30 0 0 0 0-60zm0 58a28 28 0 1 1 0-56 28 28 0 0 1 0 56z"/></symbol><symbol viewBox="0 0 22 26" id="safe"><path d="M11.9 12.7a2 2 0 1 0-1.8 0 .8.8 0 0 1 .4.7v2.8a.5.5 0 0 0 1 0v-2.8a.8.8 0 0 1 .4-.7z"/><path d="M22 7v-.8a2.7 2.7 0 0 0-2.6-2.7 10.6 10.6 0 0 1-7.3-3 1.6 1.6 0 0 0-2.2 0 10.6 10.6 0 0 1-7.2 3A2.7 2.7 0 0 0 0 6.2V7c0 3 0 6.8 1.2 10.2a13 13 0 0 0 3.1 4.9 16.3 16.3 0 0 0 6.1 3.6h.3a1.9 1.9 0 0 0 .7 0h.2a16.3 16.3 0 0 0 6.1-3.6 13 13 0 0 0 3.2-4.9C22 13.8 22 10 22 7zm-8.5 7v3a2.4 2.4 0 0 1-4.9 0v-3a4.2 4.2 0 1 1 4.9 0z"/></symbol><symbol viewBox="0 0 22 22" id="skiing"><circle cx="19" cy="2" r="2"/><path d="M14.6 2.5a2 2 0 0 1 2.2 1.8A15.7 15.7 0 0 1 16 8l2.7 1.9c1.1.9.8 1.7-.8 1-2.4-1-3.6-1.5-3.8-2.2a6.8 6.8 0 0 1 0-2l-1.4.6-6-4.3a2.3 2.3 0 0 1-.9.4 1.5 1.5 0 0 1-.6-.2l.7-1-.8-.8 1 .4.7-.8a1 1 0 0 1 .4.6 1.5 1.5 0 0 1-.1.7l2.6 1.9a6.8 6.8 0 0 1 5-1.7zM8.3 6l5.5 3.9c.7.5 2.2 1.9.6 3.9L11 17.6l-1-.4-1.3-.6 2.8-3.5c.4-.5.3-1-.3-1.5L9 10.1A3 3 0 0 1 8.3 6z"/><path d="M19.2 22a4.6 4.6 0 0 1-1.8-.4h-.1L.5 12a1 1 0 0 1 .9-1.6L18.2 20c.2 0 1.5.6 2.1-.3a1 1 0 0 1 1.5 1 3.1 3.1 0 0 1-2.6 1.3z"/></symbol><symbol viewBox="0 0 23 16" id="sofa"><path d="M12 8.4h6.7v1.3H12zm-8 0h6.7v1.3H4zM18.5 0H4.2a2.7 2.7 0 0 0-2.7 2.7V4A2.7 2.7 0 0 1 4 6.7V7h14.7v-.4A2.7 2.7 0 0 1 21 4V2.7A2.7 2.7 0 0 0 18.5 0z"/><path d="M21.3 5.3A1.3 1.3 0 0 0 20 6.7V11H2.7V6.7a1.3 1.3 0 0 0-2.7 0v7h1.6v1.9h1.3v-1.8h16.9v1.7H21v-1.7h1.6V6.6a1.3 1.3 0 0 0-1.4-1.3z"/></symbol><symbol viewBox="0 0 28 18" id="swimming"><path d="M24.8 14.3a1.6 1.6 0 0 1-2.3 0 5 5 0 0 0-7.5 0 1.5 1.5 0 0 1-2.3 0 5 5 0 0 0-7.6 0 1.5 1.5 0 0 1-1.1.5 1.5 1.5 0 0 1-1.2-.5A5 5 0 0 0 0 12.7v3a2.1 2.1 0 0 1 .7.5 4.5 4.5 0 0 0 6.6 0 2.1 2.1 0 0 1 3.2 0 4.5 4.5 0 0 0 6.7 0 2 2 0 0 1 3.1 0 4.5 4.5 0 0 0 6.8 0 2.1 2.1 0 0 1 1-.7v-3a5 5 0 0 0-3.3 1.8z"/><circle cx="21.7" cy="7.8" r="3.6"/><path d="M13.4 13.6a.6.6 0 0 0 .8 0 6 6 0 0 1 3.6-2 3.4 3.4 0 0 0-.2-1.6l-1.2-4.2a2.2 2.2 0 0 1 .3-1.5 4.2 4.2 0 0 1 3-1.4 1.5 1.5 0 1 0-.5-2.9 6.8 6.8 0 0 0-4.9 2.6 5.1 5.1 0 0 0-.8 3.9l.3 1.3a3.4 3.4 0 0 0-.5 0l-6 2.2a3.4 3.4 0 0 0-2.2 3 6 6 0 0 1 8.3.7z"/></symbol><symbol viewBox="0 0 22 18" id="telephone"><path d="M11.1 3.3c3.7 0 6-.2 6.4 4H22C22 .8 16.4 0 11 0S0 .9 0 7.2h4.5c.3-4.2 3-4 6.6-3.9zm-8.8 6c1 0 2 0 2.2-1a2.8 2.8 0 0 0 0-.5H0c0 1.6 1 1.5 2.3 1.5zm15.2-1.5a2.4 2.4 0 0 0 0 .5c.2 1 1.1.9 2.2.9 1.3 0 2.3 0 2.3-1.4z"/><path d="M15.3 6.7V6c0-.3-.4-.3-.8-.3H14c-.4 0-.8 0-.8.3v1H8.4V6c0-.3-.3-.3-.7-.3H7c-.4 0-.7 0-.7.3v1.2a47.5 47.5 0 0 0-4.8 6.4v3.9a.6.6 0 0 0 .7.6h17.1a.6.6 0 0 0 .7-.6v-3.9a48.3 48.3 0 0 0-4.7-6.4zm-7 7.5a.6.6 0 1 1 .5-.7.6.6 0 0 1-.6.7zm0-2.2a.6.6 0 1 1 .5-.6.6.6 0 0 1-.6.6zm0-2.1a.6.6 0 1 1 .5-.7.6.6 0 0 1-.6.7zm2.5 4.2a.6.6 0 1 1 .6-.6.6.6 0 0 1-.6.7zm0-2a.6.6 0 1 1 .6-.7.6.6 0 0 1-.6.6zm0-2.2a.6.6 0 1 1 .6-.7.6.6 0 0 1-.6.7zm2.6 4.2a.6.6 0 1 1 .6-.6.6.6 0 0 1-.7.7zm0-2a.6.6 0 1 1 .6-.7.6.6 0 0 1-.7.6zm0-2.2a.6.6 0 1 1 .6-.7.6.6 0 0 1-.7.7z"/></symbol><symbol viewBox="0 0 22 22" id="tenis"><path d="M21 4.5a.6.6 0 0 0 0-.4 5.5 5.5 0 0 0-1.5-2.5A5.5 5.5 0 0 0 17 .2a.6.6 0 0 0-.3 0 7.2 7.2 0 0 0-4 .3.6.6 0 0 0-.4.1 8.8 8.8 0 0 0-4.7 4.6.6.6 0 0 0 0 .2 8 8 0 0 0-.7 2.3.7.7 0 0 0 0 .3 9.5 9.5 0 0 1-2.4 6.2L.5 18a2 2 0 0 0 2.8 2.7L7.2 17a9 9 0 0 1 5.9-2.7.7.7 0 0 0 .3 0 8 8 0 0 0 2.2-.6.6.6 0 0 0 .3 0 8.8 8.8 0 0 0 4.6-4.9.6.6 0 0 0 .1-.3 7.2 7.2 0 0 0 .4-4zM2.4 19.9a.6.6 0 1 1-1-.9l.5-.5 1 1zM19.6 4.2l-1.4 1.5-1-1L19 3a4.3 4.3 0 0 1 .6 1.2zM14 8l1 1-1.3 1.2-1-1zm-2.2.3l-.9-.9 1.3-1.2.9.9zM15 7.1l1.4-1.4 1 .9L15.8 8zm2-5.6a4.3 4.3 0 0 1 1.2.6l-1.7 1.7-1-.9zm-3 4.7l-1-1 1.5-1.4 1 1zm1.3-5l-.8.8-.6-.6a6 6 0 0 1 1.4-.1zm-2.7.7l1 1-1.4 1.5L10.9 3a7.7 7.7 0 0 1 1.7-1.1zm-2.7 2l1.4 1.3L10 6.5l-1-1a8 8 0 0 1 1-1.6zm1 5.3l-1.8 2a4.3 4.3 0 0 1-.7-1.3l.2-.2h.1L10 8.3zM8.2 7.8a6.1 6.1 0 0 1 .2-1l.7.6-.9 1v-.6zM7 15.4l-1-1a11.2 11.2 0 0 0 1.7-3.3 5.5 5.5 0 0 0 1 1.4 5.4 5.4 0 0 0 1.3 1 11 11 0 0 0-3 2zm4.3-2.7A4.3 4.3 0 0 1 10 12l1.9-1.9.9 1zm1.6.2l.9-1 .6.7a6.2 6.2 0 0 1-1.5.3zm2.8-.8l-1-1 1.2-1.3 1.4 1.3a7.5 7.5 0 0 1-1.6 1zm2.5-1.9L16.7 9l1.5-1.4 1 1a7.7 7.7 0 0 1-1.1 1.7zm1.6-3l-.6-.6.7-.8a6 6 0 0 1-.1 1.3zm-1.6 9a2.6 2.6 0 0 0-1.1-1.7 3.8 3.8 0 0 0 0 7.4 3.4 3.4 0 0 1-.4-1.3 3.5 3.5 0 0 1 1-2.7 2.2 2.2 0 0 0 .5-1.8zm.6-1.8a3.5 3.5 0 0 1 .7 1.5 3.4 3.4 0 0 1-1 2.9 2.2 2.2 0 0 0-.5 1.7 2.4 2.4 0 0 0 .8 1.5 3.9 3.9 0 0 0 0-7.6z"/></symbol><symbol viewBox="0 0 576 448" id="tripadvisor"><path d="M162.75 249.25c0 13-10.5 23.5-23.25 23.5-13 0-23.5-10.5-23.5-23.5 0-12.75 10.5-23.25 23.5-23.25a23.37 23.37 0 0 1 23.25 23.25zm288.5-.25c0 13-10.5 23.5-23.5 23.5s-23.5-10.5-23.5-23.5 10.5-23.25 23.5-23.25 23.5 10.25 23.5 23.25zm-260 .25c0-26.5-21.75-48.25-48.25-48.25a48.28 48.28 0 0 0-48.25 48.25A48.12 48.12 0 0 0 143 297.5c26.5 0 48.25-21.5 48.25-48.25zM479.5 249c0-26.5-21.5-48.25-48.25-48.25-26.5 0-48.25 21.75-48.25 48.25a48.28 48.28 0 0 0 48.25 48.25A48.12 48.12 0 0 0 479.5 249zm-267 .25c0 38.5-31 69.75-69.5 69.75s-69.75-31.25-69.75-69.75c0-38.25 31.25-69.5 69.75-69.5s69.5 31.25 69.5 69.5zM501 249c0 38.5-31.25 69.5-69.75 69.5a69.51 69.51 0 0 1 0-139c38.5 0 69.75 31 69.75 69.5zm-241 .75c0-63.75-51.75-115.5-115.5-115.5-63.5 0-115.25 51.75-115.25 115.5S81 365.25 144.5 365.25c63.75 0 115.5-51.75 115.5-115.5zM427 106.5c-41.25-18-87.75-27.75-139-27.75s-102.25 9.75-143.25 27.5C224 106.5 288 170.5 288 249.75c0-77.75 61.75-141 139-143.25zm119.75 143.25c0-63.75-51.5-115.5-115.25-115.5S316 186 316 249.75s51.75 115.5 115.5 115.5 115.25-51.75 115.25-115.5zm-66.5-141.5H576c-15 17.5-26 41-28.75 57.25a142.72 142.72 0 0 1 27.5 84.25C574.75 329 510.5 393 431.5 393c-45 0-85-20.5-111.25-52.75 0 0-11.75 14-32.25 44.75-3.5-7.25-21.25-32.5-32-45a142.8 142.8 0 0 1-111.5 53c-79 0-143.25-64-143.25-143.25 0-31.5 10.25-60.5 27.5-84.25C26 149.25 15 125.75 0 108.25h91.25C140.25 75.5 211.5 55 288 55s143.25 20.5 192.25 53.25z"/></symbol><symbol viewBox="0 0 22 19" id="tv"><path d="M16.5 17.8h-2.4v-1.2H7.8v1.2H5.5a.7.7 0 0 0 0 1.3h11a.7.7 0 0 0 0-1.3zM0 12.9v1.8a.7.7 0 0 0 .7.6h20.6a.7.7 0 0 0 .7-.6v-1.8zM21.3 0H.6a.7.7 0 0 0-.6.7v10.9h22V.6a.7.7 0 0 0-.7-.6z"/></symbol><symbol viewBox="0 0 22 22" id="views"><path fill="#176162" d="M22 16V2a2 2 0 0 0-2-2H6a2 2 0 0 0-2 2v14a2 2 0 0 0 2 2h14a2 2 0 0 0 2-2zM9.5 10.5l2.5 3L15.5 9l4.5 6H6zM0 4v16a2 2 0 0 0 2 2h16v-2H2V4z"/></symbol><symbol viewBox="0 0 22 22" id="wardrobe"><path d="M0 0v5.2h22V0zm12.8 3.2H9.1V2H13zM0 6.5v5.1h22V6.5zm12.8 3.2H9.1V8.4H13zM0 13v5h22v-5zm12.8 3.2H9.1v-1.3H13zM1.3 19.4h19.4V22H1.3z"/></symbol><symbol viewBox="0 0 22 17" id="wifi"><path d="M3.6 7.6a1.2 1.2 0 0 0 1.6 1.7 8.2 8.2 0 0 1 11.6 0 1.2 1.2 0 1 0 1.6-1.7 10.5 10.5 0 0 0-14.8 0z"/><path d="M6.8 10.8a1.2 1.2 0 0 0 1.6 1.7 3.6 3.6 0 0 1 5.2 0 1.2 1.2 0 1 0 1.6-1.7 6 6 0 0 0-8.4 0z"/><circle cx="11" cy="15.1" r="1.6"/><path d="M21.7 4.4a15 15 0 0 0-21.4 0A1.2 1.2 0 0 0 2 6.1a12.7 12.7 0 0 1 18 0 1.2 1.2 0 0 0 1.7-1.7z"/></symbol></svg>